<?xml version="1.0" encoding="utf-8"?>
<!-- Generator: Adobe Illustrator 19.0.0, SVG Export Plug-In . SVG Version: 6.00 Build 0)  -->
<svg version="1.1" xmlns="http://www.w3.org/2000/svg" xmlns:xlink="http://www.w3.org/1999/xlink" x="0px" y="0px"
	 viewBox="0 0 500 500" style="enable-background:new 0 0 500 500;" xml:space="preserve">
<style type="text/css">
	.st0{fill:#EBEBEB;}
	.st1{fill:#E0E0E0;}
	.st2{fill:#F5F5F5;}
	.st3{display:none;}
	.st4{display:inline;}
	.st5{fill:#365FA6;}
	.st6{fill:#263238;}
	.st7{fill:#E8505B;}
	.st8{opacity:0.7;}
	.st9{fill:#FFFFFF;}
	.st10{opacity:0.3;}
	.st11{fill:#455A64;}
	.st12{fill:none;stroke:#839198;stroke-miterlimit:10;}
	.st13{opacity:0.6;}
	.st14{fill:#D38D6E;}
	.st15{fill:#B26746;}
</style>
<g id="Background_Complete">
	<g id="XMLID_1_">
		<g id="XMLID_2_">
			<g id="XMLID_3_">
				<g id="XMLID_4_">
					<g id="XMLID_5_">
						<g id="XMLID_6_">
							<g id="XMLID_7_">
								<path class="st0" d="M320.8,477.4c-17-9.5-22.7-29.8-23.9-48.4c-0.2-3.1-0.9-6.3,0.3-9.2c1.2-2.9,4.5-5.1,7.4-4
									c2.4,0.9,3.7,3.4,5.2,5.5c2,2.8,4.8,5,7.9,6.2c2.1,0.8,4.6,1.2,6.4-0.1c2.5-1.7,2.5-5.5,2.1-8.5c-0.6-5.7-1.2-11.5-1.8-17.2
									c-0.3-3.1-0.6-6.2,0-9.2c0.7-3,2.5-5.9,5.4-7.1c2.8-1.1,6.6,0.2,7.6,3.2c0.4,1.2,0.3,2.6,0.5,3.8c0.2,1.3,0.9,2.6,2.2,2.9
									c1.3,0.2,2.4-0.8,3.2-1.7c2.9-3.4,4.6-7.6,6.2-11.8c1.6-4.2,3.2-8.5,5.7-12.1c2.5-3.7,6.3-6.8,10.6-7.4
									c4.4-0.7,9.3,1.6,10.9,5.8c1.5,4.2-0.5,8.9-3,12.7c-3.6,5.6-7.9,10.7-12.9,15.1c-0.9,0.8-1.9,1.6-2.1,2.8
									c-0.5,2.1,1.7,4,3.8,4.4c2.4,0.5,4.8,0.1,7.3,0.1c2.4,0,5.1,0.8,6.3,3c1.6,3-0.7,6.6-3.1,9c-4.8,4.8-10.3,8.8-16.4,11.8
									c-2.2,1.1-4.5,2-6.2,3.8c-1.7,1.8-2.5,4.6-1.2,6.7c1.3,2.1,4.2,2.5,6.5,1.8c2.3-0.7,4.3-2.2,6.5-3.3c4.1-2,9.6-2.3,12.6,1.1
									c2,2.2,2.5,5.6,1.9,8.5c-0.6,3-2.2,5.6-3.9,8.1c-6,8.6-14,15.9-23.5,20.3C339.9,478.2,330.9,480,320.8,477.4"/>
							</g>
						</g>
					</g>
				</g>
			</g>
		</g>
		<g id="XMLID_8_">
			<g id="XMLID_9_">
				<g id="XMLID_10_">
					<g id="XMLID_11_">
						<g id="XMLID_12_">
							<g id="XMLID_13_">
								<g id="XMLID_14_">
									<path class="st1" d="M324.4,465.3c1.8-9.6,4.6-20,8-30.8c0.8-2.7,1.7-5.3,2.5-8c0.8-2.6,1.7-5.2,2.6-7.7
										c1.9-5,4.1-9.6,6.3-13.9c2.2-4.3,4.5-8.4,6.7-12.1c2.2-3.8,4.2-7.2,6.3-10.3c4-6.2,7.9-10.7,10.7-13.8
										c1.4-1.5,2.5-2.7,3.3-3.4c0.4-0.4,0.7-0.7,0.9-0.9c0.2-0.2,0.3-0.3,0.3-0.3c0,0-0.1,0.1-0.3,0.3c-0.2,0.2-0.5,0.5-0.8,0.9
										c-0.7,0.8-1.8,2-3.2,3.5c-2.7,3.1-6.5,7.7-10.5,13.9c-2,3.1-4.1,6.5-6.2,10.3c-2.1,3.8-4.4,7.8-6.6,12.1
										c-2.2,4.3-4.4,9-6.3,13.9c-1,2.5-1.8,5-2.6,7.7c-0.8,2.6-1.7,5.3-2.5,8c-3.3,10.8-6.2,21.1-8,30.7"/>
								</g>
							</g>
						</g>
					</g>
				</g>
			</g>
		</g>
		<g id="XMLID_15_">
			<g id="XMLID_16_">
				<g id="XMLID_17_">
					<g id="XMLID_18_">
						<g id="XMLID_19_">
							<g id="XMLID_20_">
								<g id="XMLID_21_">
									<path class="st1" d="M337.7,418.8c0,0-0.2-0.4-0.4-1.3c-0.2-0.8-0.6-2.1-0.9-3.6c-0.7-3-1.6-7.2-2.6-11.9
										c-1-4.6-1.9-8.8-2.7-11.8c-0.4-1.5-0.7-2.7-0.9-3.5c-0.2-0.8-0.3-1.3-0.3-1.3c0,0,0.2,0.4,0.5,1.3c0.3,0.8,0.7,2,1.1,3.5
										c0.9,3,1.9,7.2,2.8,11.8c0.9,4.6,1.8,8.7,2.4,11.9c0.3,1.4,0.6,2.6,0.8,3.6C337.6,418.4,337.7,418.8,337.7,418.8z"/>
								</g>
							</g>
						</g>
					</g>
				</g>
			</g>
		</g>
		<g id="XMLID_22_">
			<g id="XMLID_23_">
				<g id="XMLID_24_">
					<g id="XMLID_25_">
						<g id="XMLID_26_">
							<g id="XMLID_27_">
								<g id="XMLID_28_">
									<path class="st1" d="M376.5,407.5c0,0-0.6,0.2-1.6,0.3c-1,0.2-2.5,0.5-4.3,0.9c-3.6,0.8-8.5,2-13.9,3.5
										c-5.4,1.6-10.2,3.2-13.6,4.5c-1.7,0.6-3.1,1.2-4.1,1.6c-1,0.4-1.5,0.6-1.5,0.5c0,0,0.5-0.3,1.4-0.7c0.9-0.4,2.3-1,4-1.7
										c3.4-1.4,8.2-3.1,13.6-4.7c5.4-1.6,10.3-2.7,13.9-3.4c1.8-0.3,3.3-0.5,4.3-0.7C375.9,407.5,376.5,407.5,376.5,407.5z"/>
								</g>
							</g>
						</g>
					</g>
				</g>
			</g>
		</g>
		<g id="XMLID_29_">
			<g id="XMLID_30_">
				<g id="XMLID_31_">
					<g id="XMLID_32_">
						<g id="XMLID_33_">
							<g id="XMLID_34_">
								<g id="XMLID_35_">
									<path class="st1" d="M324.8,464.5c0,0-0.1-0.1-0.3-0.5c-0.2-0.4-0.5-0.8-0.8-1.4c-0.7-1.2-1.7-2.9-2.9-5.1
										c-2.4-4.3-5.4-10.4-8.7-17.2c-3.3-6.8-6.3-12.9-8.6-17.3c-1.1-2.1-2-3.9-2.7-5.2c-0.3-0.6-0.5-1-0.7-1.4
										c-0.2-0.3-0.2-0.5-0.2-0.5c0,0,0.1,0.1,0.3,0.5c0.2,0.4,0.5,0.8,0.8,1.4c0.7,1.2,1.7,2.9,2.9,5.1
										c2.4,4.3,5.4,10.4,8.7,17.2c3.3,6.8,6.3,12.9,8.6,17.3c1.1,2.1,2,3.9,2.7,5.2c0.3,0.6,0.5,1,0.7,1.4
										C324.8,464.3,324.8,464.5,324.8,464.5z"/>
								</g>
							</g>
						</g>
					</g>
				</g>
			</g>
		</g>
		<g id="XMLID_36_">
			<g id="XMLID_37_">
				<g id="XMLID_38_">
					<g id="XMLID_39_">
						<g id="XMLID_40_">
							<g id="XMLID_41_">
								<g id="XMLID_42_">
									<path class="st1" d="M375.7,442.4c0,0-0.2,0.1-0.5,0.3c-0.4,0.2-0.9,0.4-1.5,0.7c-1.4,0.6-3.2,1.4-5.4,2.4
										c-4.6,2-10.9,4.9-17.9,8c-7,3.2-13.3,6-18,7.9c-2.3,1-4.2,1.7-5.5,2.2c-0.6,0.2-1.1,0.4-1.5,0.6c-0.3,0.1-0.5,0.2-0.5,0.2
										c0,0,0.2-0.1,0.5-0.3c0.4-0.2,0.9-0.4,1.5-0.7c1.4-0.6,3.2-1.4,5.4-2.4c4.6-2,10.9-4.9,17.9-8c7-3.2,13.3-6,18-7.9
										c2.3-1,4.2-1.7,5.5-2.2c0.6-0.2,1.1-0.4,1.5-0.6C375.5,442.4,375.7,442.3,375.7,442.4z"/>
								</g>
							</g>
						</g>
					</g>
				</g>
			</g>
		</g>
	</g>
	<g id="XMLID_43_">
		<g id="XMLID_44_">
			<g id="XMLID_45_">
				<g id="XMLID_46_">
					<g id="XMLID_47_">
						<path id="XMLID_48_" class="st1" d="M82.1,212L82.1,212l-18.5-3.4l0,0l-0.5-11.3c-3.7-1.7-7.1-4-10.3-6.6L42.4,195l0,0
							l-10.7-15.4l0,0l7.6-8.3c-1.4-3.8-2.3-7.8-2.6-11.9l-10.4-4.4l0,0l3.3-18.5l0,0l11.3-0.5c1.7-3.7,4-7.1,6.6-10.3l-4.2-10.5
							l0,0l15.4-10.7l0,0l8.3,7.6c3.8-1.4,7.8-2.3,11.9-2.6L83.5,99l0,0l18.5,3.3l0,0l0.5,11.3c3.7,1.7,7.2,4,10.3,6.6l10.5-4.2l0,0
							l10.7,15.4l0,0l-7.6,8.3c1.4,3.8,2.3,7.8,2.6,11.9l10.4,4.4l0,0l-3.3,18.5l0,0l-11.3,0.5c-1.7,3.7-4,7.1-6.6,10.3l4.2,10.5
							l0,0l-15.4,10.7l0,0l-8.3-7.6c-3.8,1.4-7.8,2.2-11.9,2.6L82.1,212z M63.7,208.6l18.4,3.3l4.4-10.4l0,0
							c4.1-0.3,8.1-1.2,11.9-2.6l0,0l0,0l8.3,7.6l15.4-10.7l-4.2-10.5l0,0c2.6-3.1,4.9-6.6,6.6-10.3l0,0l0,0l11.3-0.5l3.3-18.4
							l-10.4-4.4l0,0c-0.3-4.1-1.2-8.1-2.6-11.9l0,0l0,0l7.6-8.3l-10.7-15.4l-10.5,4.2l0,0c-3.1-2.6-6.6-4.9-10.3-6.6l0,0l0,0
							l-0.5-11.3l-18.4-3.3l-4.4,10.4l0,0c-4.1,0.3-8.1,1.2-11.9,2.6l0,0l0,0l-8.3-7.6l-15.4,10.7l4.2,10.5l0,0
							c-2.6,3.1-4.9,6.6-6.6,10.3l0,0l0,0l-11.3,0.5l-3.3,18.4l10.4,4.4l0,0c0.3,4.1,1.2,8.1,2.6,11.9l0,0l0,0l-7.6,8.3l10.7,15.4
							l10.5-4.2l0,0c3.1,2.6,6.6,4.9,10.3,6.6l0,0l0,0L63.7,208.6z M83.5,175.2c-1.2,0-2.4-0.1-3.6-0.3c-5.3-1-9.9-3.9-13-8.3
							c-3.1-4.4-4.2-9.8-3.3-15.1c1-5.3,3.9-9.9,8.3-13l0,0l0,0c4.4-3.1,9.8-4.2,15.1-3.3c5.3,1,9.9,3.9,13,8.3
							c3.1,4.4,4.2,9.8,3.3,15.1c-1,5.3-3.9,9.9-8.3,13C91.6,173.9,87.6,175.2,83.5,175.2z M83.4,134.9c-4,0-8,1.2-11.4,3.6
							c-4.4,3.1-7.4,7.6-8.3,12.9c-1,5.3,0.2,10.6,3.3,15c3.1,4.4,7.6,7.4,12.9,8.3c5.3,1,10.6-0.2,15-3.3s7.4-7.6,8.3-12.9
							c1-5.3-0.2-10.6-3.3-15c-3.1-4.4-7.6-7.4-12.9-8.3C85.9,135,84.7,134.9,83.4,134.9z"/>
					</g>
				</g>
			</g>
		</g>
		<g id="XMLID_53_">
			<g id="XMLID_54_">
				<g id="XMLID_55_">
					<g id="XMLID_56_">
						<g id="XMLID_57_">
							<path class="st0" d="M72,138.5c0,0,1.3-1.2,4.3-2.5c2.9-1.2,7.8-2.2,13.5-0.5c2.8,0.9,5.7,2.4,8.1,4.9
								c2.4,2.4,4.5,5.6,5.5,9.4c0.5,1.9,0.8,3.9,0.7,5.9c0,2-0.4,4.1-1.1,6.1c-1.3,4-4.1,7.7-7.7,10.3c-3.7,2.5-8.1,3.8-12.3,3.6
								c-2.1,0-4.2-0.4-6.1-1.1c-1.9-0.7-3.7-1.6-5.3-2.7c-3.2-2.2-5.4-5.3-6.9-8.4c-1.4-3.1-1.8-6.4-1.7-9.3
								c0.3-5.9,3-10.1,5.2-12.4C70.4,139.3,72,138.5,72,138.5c0.1,0.1-1.4,1.1-3.5,3.5c-2,2.4-4.5,6.5-4.7,12.2
								c-0.1,2.8,0.4,5.9,1.7,8.9c1.4,3,3.5,5.9,6.6,7.9c1.5,1.1,3.2,1.9,5,2.5c1.8,0.6,3.8,1,5.8,1c4,0.2,8.1-1.1,11.7-3.5
								c3.5-2.4,6.1-5.9,7.3-9.7c0.7-1.9,1-3.8,1.1-5.8c0.1-1.9-0.1-3.8-0.6-5.6c-0.9-3.6-2.9-6.6-5.1-9c-2.3-2.3-5.1-3.9-7.7-4.8
								c-5.4-1.8-10.1-0.9-13.1,0.1C73.5,137.5,72.1,138.6,72,138.5z"/>
						</g>
					</g>
				</g>
			</g>
		</g>
		<g id="XMLID_58_">
			<g id="XMLID_59_">
				<g id="XMLID_60_">
					<g id="XMLID_61_">
						<g id="XMLID_62_">
							<path class="st0" d="M67.1,112.1c0,0-0.2-0.1-0.5-0.4c-0.4-0.3-0.9-0.8-1.6-1.4c-1.5-1.3-3.6-3.2-6.3-5.7l0.2,0
								c-3.9,2.8-9.1,6.4-15.3,10.8l0.1-0.3c1.3,3.2,2.7,6.7,4.3,10.5l0.1,0.2l-0.1,0.2c-2.5,2.9-4.7,6.3-6.5,10.2l-0.1,0.2l-0.2,0
								c-3.5,0.2-7.3,0.3-11.3,0.5l0.4-0.3c-1,5.8-2.1,12-3.3,18.4l-0.3-0.5c3.2,1.4,6.8,2.9,10.4,4.4l0.3,0.1l0,0.3
								c0.3,3.7,1.1,7.8,2.6,11.8l0.1,0.3l-0.2,0.2c-2.4,2.6-5,5.4-7.6,8.4l0-0.6c3.4,4.8,7,10,10.7,15.4l-0.6-0.2
								c3.3-1.3,6.9-2.8,10.5-4.2l0.3-0.1l0.3,0.2c2.9,2.5,6.4,4.8,10.2,6.5l0.3,0.1l0,0.3c0.2,3.5,0.3,7.4,0.5,11.3l-0.5-0.5
								c5.8,1.1,12.1,2.2,18.4,3.3l-0.6,0.3c1.4-3.3,2.9-6.8,4.4-10.4l0.1-0.3l0.3,0c3.8-0.3,7.9-1.1,11.8-2.5l0,0l0.3-0.1l0.3,0.2
								c2.8,2.6,5.6,5.1,8.3,7.7l-0.7,0c5.2-3.6,10.3-7.2,15.4-10.7l-0.2,0.7c-1.4-3.5-2.8-7-4.2-10.5l-0.1-0.3l0.2-0.3
								c2.6-3.1,4.8-6.5,6.5-10.1l0.1-0.3l0.3,0c3.8-0.2,7.6-0.3,11.3-0.5l-0.5,0.5c1.1-6.3,2.3-12.4,3.4-18.4l0.3,0.6
								c-3.5-1.5-7-3-10.4-4.4l-0.3-0.1l0-0.3c-0.3-4.1-1.2-8.1-2.5-11.8l-0.1-0.3l0.2-0.2c2.6-2.9,5.2-5.6,7.7-8.3l0,0.6
								c-3.7-5.4-7.3-10.6-10.6-15.4l0.5,0.2c-3.7,1.5-7.2,2.9-10.5,4.2l-0.2,0.1l-0.2-0.2c-3.3-2.8-6.7-5-10.2-6.6l-0.2-0.1l0-0.2
								c-0.2-4.1-0.3-7.8-0.5-11.3l0.3,0.3c-7.1-1.3-13.2-2.5-18.4-3.4l0.3-0.2c-1.8,4.2-3.3,7.6-4.5,10.4l0,0.1l-0.1,0
								c-4.1,0.3-7.1,1-9,1.6c-0.9,0.3-1.7,0.5-2.2,0.6C67.4,112,67.1,112.1,67.1,112.1c0,0,0.2-0.1,0.7-0.3
								c0.5-0.2,1.2-0.4,2.2-0.7c1.9-0.6,4.9-1.4,9.1-1.7l-0.2,0.1c1.2-2.9,2.6-6.3,4.4-10.5l0.1-0.2l0.2,0c5.2,0.9,11.3,2,18.5,3.3
								l0.3,0l0,0.3c0.2,3.5,0.3,7.2,0.5,11.3l-0.2-0.3c3.5,1.6,7,3.8,10.4,6.6l-0.4-0.1c3.3-1.4,6.8-2.8,10.5-4.3l0.3-0.1l0.2,0.3
								c3.4,4.9,6.9,10,10.7,15.4l0.2,0.3l-0.3,0.3c-2.5,2.7-5,5.5-7.6,8.4l0.1-0.5c1.4,3.8,2.3,7.9,2.6,12.1l-0.3-0.4
								c3.4,1.4,6.9,2.9,10.4,4.4l0.4,0.2l-0.1,0.4c-1.1,6-2.2,12.1-3.3,18.4l-0.1,0.4l-0.4,0c-3.7,0.2-7.5,0.3-11.3,0.5l0.5-0.3
								c-1.7,3.7-4,7.2-6.7,10.4l0.1-0.6c1.4,3.5,2.8,7,4.2,10.5l0.2,0.4l-0.4,0.3c-5.1,3.5-10.2,7.1-15.4,10.7l-0.4,0.3l-0.3-0.3
								c-2.8-2.5-5.5-5.1-8.3-7.7l0.6,0.1l0,0c-4,1.4-8.2,2.3-12.1,2.6l0.5-0.3c-1.5,3.6-3,7.1-4.4,10.4l-0.2,0.4l-0.5-0.1
								c-6.3-1.2-12.6-2.3-18.4-3.4l-0.4-0.1l0-0.5c-0.2-3.9-0.3-7.8-0.5-11.3l0.3,0.5c-3.9-1.8-7.4-4.2-10.4-6.7l0.6,0.1
								c-3.6,1.5-7.2,2.9-10.5,4.2l-0.4,0.2l-0.2-0.4c-3.7-5.4-7.3-10.6-10.7-15.4l-0.2-0.3l0.3-0.3c2.7-2.9,5.3-5.8,7.7-8.3
								l-0.1,0.5c-1.5-4.1-2.3-8.2-2.6-12.1l0.3,0.4c-3.6-1.6-7.2-3.1-10.4-4.5l-0.3-0.1l0.1-0.4c1.2-6.5,2.3-12.6,3.4-18.4l0.1-0.3
								l0.3,0c4-0.2,7.8-0.3,11.3-0.5l-0.3,0.2c1.9-3.9,4.2-7.4,6.7-10.3l-0.1,0.3c-1.5-3.8-2.9-7.3-4.2-10.5L43,115l0.2-0.1
								c6.3-4.3,11.5-7.9,15.5-10.6l0.1-0.1l0.1,0.1c2.7,2.5,4.7,4.4,6.1,5.7c0.7,0.6,1.2,1.1,1.6,1.5C67,111.9,67.1,112,67.1,112.1
								z"/>
						</g>
					</g>
				</g>
			</g>
		</g>
	</g>
	<g id="XMLID_63_">
		<g id="XMLID_64_">
			<g id="XMLID_65_">
				<g id="XMLID_66_">
					<g id="XMLID_67_">
						<path class="st1" d="M116.3,44.8c1.7-1.4,3.5-2.5,5.5-3.4l0.3-6l9.7-1.6l2.3,5.5c2.1,0.2,4.2,0.7,6.3,1.4l4.5-4l8.1,5.7
							l-2.3,5.5c1.4,1.7,2.5,3.5,3.4,5.5l6,0.3l1.6,9.7l-5.5,2.3c-0.2,2.1-0.7,4.2-1.4,6.3l4,4.5l-5.7,8.1l-5.5-2.3
							c-1.7,1.4-3.5,2.5-5.5,3.4l-0.3,6l-9.7,1.6l-2.3-5.5c-2.1-0.2-4.2-0.7-6.3-1.4l-4.5,4l-8.1-5.7l2.3-5.5
							c-1.4-1.7-2.5-3.5-3.4-5.5l-6-0.3l-1.6-9.7l5.5-2.3c0.2-2.1,0.7-4.2,1.4-6.3l-4-4.5l5.7-8.1L116.3,44.8L116.3,44.8z M123.5,57
							c-3.4,4.8-2.3,11.4,2.5,14.8c4.8,3.4,11.4,2.3,14.8-2.5c3.4-4.8,2.3-11.4-2.5-14.8C133.5,51.1,126.9,52.2,123.5,57z"/>
					</g>
				</g>
			</g>
		</g>
		<g id="XMLID_68_">
			<g id="XMLID_69_">
				<g id="XMLID_70_">
					<g id="XMLID_71_">
						<g id="XMLID_72_">
							<path class="st1" d="M123.5,57c0,0,0.4-0.9,1.7-2c1.2-1.1,3.5-2.5,6.6-2.6c1.5-0.1,3.2,0.2,4.9,1c1.6,0.8,3.2,2,4.4,3.7
								c0.6,0.8,1.1,1.8,1.4,2.8c0.3,1,0.5,2.1,0.5,3.2c0.1,2.2-0.6,4.5-2,6.5c-1.4,1.9-3.3,3.3-5.5,4c-1.1,0.4-2.1,0.5-3.2,0.5
								c-1.1,0-2.1-0.1-3.1-0.4c-2-0.5-3.6-1.7-4.9-3c-1.3-1.3-2.1-2.9-2.5-4.3c-0.9-3-0.3-5.6,0.3-7.1
								C122.8,57.7,123.5,57,123.5,57c0.1,0-0.5,0.8-1.1,2.3c-0.6,1.5-1.1,4-0.1,6.9c0.5,1.4,1.2,2.9,2.5,4.1
								c1.2,1.2,2.8,2.3,4.7,2.8c0.9,0.3,1.9,0.4,2.9,0.4c1,0,2-0.2,3-0.5c2-0.6,3.8-2,5.2-3.8c1.3-1.8,2-4,1.9-6.1
								c0-1.1-0.2-2.1-0.5-3c-0.3-1-0.7-1.9-1.3-2.7c-1.1-1.6-2.6-2.8-4.1-3.5c-1.6-0.8-3.2-1-4.7-1c-3,0.1-5.2,1.3-6.5,2.4
								C124,56.2,123.5,57,123.5,57z"/>
						</g>
					</g>
				</g>
			</g>
		</g>
		<g id="XMLID_73_">
			<g id="XMLID_74_">
				<g id="XMLID_75_">
					<g id="XMLID_76_">
						<g id="XMLID_77_">
							<path class="st1" d="M116.3,44.8c0,0-0.1,0-0.4-0.1c-0.3-0.1-0.6-0.2-1.1-0.4c-1-0.4-2.3-0.9-4.1-1.7l0.1,0
								c-1.5,2.1-3.4,4.8-5.7,8.1l0-0.2c1.2,1.3,2.6,2.8,4,4.4l0.1,0.1l0,0.1c-0.7,1.9-1.2,4-1.4,6.2l0,0.1l-0.1,0
								c-1.7,0.7-3.6,1.5-5.5,2.3l0.1-0.2c0.5,3.1,1.1,6.3,1.7,9.7l-0.2-0.2c1.8,0.1,3.9,0.2,6,0.3l0.2,0l0.1,0.1
								c0.8,1.8,2,3.7,3.4,5.4l0.1,0.1l-0.1,0.1c-0.7,1.7-1.5,3.6-2.3,5.5l-0.1-0.3c2.5,1.8,5.3,3.7,8.1,5.7l-0.4,0
								c1.4-1.2,2.9-2.6,4.4-4l0.1-0.1l0.2,0.1c1.9,0.7,4,1.2,6.2,1.4l0.2,0l0.1,0.2c0.7,1.7,1.5,3.6,2.3,5.5l-0.3-0.2
								c3.1-0.5,6.4-1.1,9.7-1.6l-0.3,0.3c0.1-1.9,0.2-3.9,0.3-6l0-0.2l0.2-0.1c1.8-0.8,3.7-2,5.4-3.4l0,0l0.1-0.1l0.2,0.1
								c1.8,0.8,3.7,1.5,5.5,2.3l-0.4,0.1c1.9-2.7,3.8-5.4,5.7-8.1l0,0.4c-1.3-1.5-2.7-3-4-4.5l-0.1-0.1l0.1-0.2
								c0.8-2,1.2-4.1,1.4-6.2l0-0.2l0.2-0.1c1.9-0.8,3.7-1.5,5.5-2.3l-0.2,0.3c-0.6-3.3-1.1-6.6-1.6-9.7l0.3,0.2
								c-2-0.1-4-0.2-6-0.3l-0.2,0l-0.1-0.1c-0.9-2-2-3.8-3.4-5.4l-0.1-0.1l0.1-0.1c0.8-1.9,1.6-3.7,2.3-5.5l0.1,0.3
								c-2.8-2-5.5-3.9-8-5.7l0.3,0c-1.6,1.4-3,2.7-4.5,4l-0.1,0.1l-0.1,0c-2.1-0.8-4.2-1.3-6.2-1.4l-0.1,0l0-0.1
								c-0.8-2-1.6-3.8-2.3-5.5l0.2,0.1c-3.8,0.6-7,1.1-9.8,1.6l0.1-0.1c-0.1,2.4-0.3,4.3-0.4,6l0,0.1l-0.1,0
								c-2,0.9-3.3,1.8-4.2,2.4c-0.4,0.3-0.7,0.5-1,0.7C116.4,44.7,116.3,44.8,116.3,44.8c0,0,0.1-0.1,0.3-0.3
								c0.2-0.2,0.5-0.4,0.9-0.7c0.9-0.6,2.2-1.6,4.2-2.5l-0.1,0.1c0.1-1.6,0.2-3.6,0.3-6l0-0.1l0.1,0c2.8-0.5,6-1,9.7-1.7l0.1,0
								l0.1,0.1c0.7,1.7,1.5,3.5,2.3,5.5l-0.2-0.1c2,0.2,4.2,0.6,6.3,1.4l-0.2,0c1.4-1.3,2.9-2.6,4.4-4l0.1-0.1l0.2,0.1
								c2.5,1.8,5.2,3.7,8.1,5.7l0.2,0.1l-0.1,0.2c-0.7,1.8-1.5,3.6-2.3,5.5l0-0.3c1.4,1.6,2.5,3.5,3.5,5.5l-0.2-0.2
								c2,0.1,3.9,0.2,6,0.3l0.2,0l0,0.2c0.5,3.2,1.1,6.4,1.7,9.7l0,0.2l-0.2,0.1c-1.8,0.7-3.7,1.5-5.5,2.3l0.2-0.2
								c-0.2,2.1-0.7,4.3-1.5,6.4l-0.1-0.3c1.3,1.5,2.6,3,4,4.4l0.2,0.2l-0.1,0.2c-1.9,2.6-3.8,5.3-5.7,8.1l-0.1,0.2l-0.2-0.1
								c-1.8-0.8-3.7-1.5-5.5-2.3l0.3,0l0,0c-1.7,1.4-3.6,2.6-5.5,3.5l0.2-0.3c-0.1,2-0.2,4.1-0.3,6l0,0.2l-0.2,0
								c-3.4,0.6-6.7,1.1-9.7,1.6l-0.2,0l-0.1-0.2c-0.8-1.9-1.6-3.8-2.3-5.5l0.2,0.2c-2.3-0.2-4.4-0.7-6.4-1.5l0.3-0.1
								c-1.5,1.4-3.1,2.7-4.5,4l-0.2,0.2l-0.2-0.1c-2.8-2-5.5-3.9-8-5.7l-0.2-0.1l0.1-0.2c0.8-1.9,1.6-3.8,2.3-5.5l0,0.3
								c-1.5-1.8-2.6-3.7-3.4-5.5l0.2,0.1c-2.1-0.1-4.1-0.2-6-0.3l-0.2,0l0-0.2c-0.6-3.4-1.1-6.7-1.6-9.7l0-0.2l0.2-0.1
								c1.9-0.8,3.8-1.6,5.5-2.3l-0.1,0.2c0.2-2.3,0.7-4.4,1.5-6.3l0,0.2c-1.4-1.6-2.8-3.1-4-4.5l-0.1-0.1l0.1-0.1
								c2.4-3.3,4.3-6,5.8-8l0-0.1l0.1,0c1.8,0.8,3.1,1.3,4.1,1.8c0.4,0.2,0.8,0.3,1,0.5C116.2,44.7,116.3,44.8,116.3,44.8z"/>
						</g>
					</g>
				</g>
			</g>
		</g>
	</g>
	<g id="XMLID_78_">
		<g id="XMLID_79_">
			<g id="XMLID_80_">
				<g id="XMLID_81_">
					<g id="XMLID_82_">
						<path class="st1" d="M431,129.7c1.7-1.4,3.5-2.5,5.5-3.4l0.3-6l9.7-1.6l2.3,5.5c2.1,0.2,4.2,0.7,6.3,1.4l4.5-4l8.1,5.7
							l-2.3,5.5c1.4,1.7,2.5,3.5,3.4,5.5l6,0.3l1.6,9.7l-5.5,2.3c-0.2,2.1-0.7,4.2-1.4,6.3l4,4.5l-5.7,8.1l-5.5-2.3
							c-1.7,1.4-3.5,2.5-5.5,3.4l-0.3,6l-9.7,1.6l-2.3-5.5c-2.1-0.2-4.2-0.7-6.3-1.4l-4.5,4l-8.1-5.7l2.3-5.5
							c-1.4-1.7-2.5-3.5-3.4-5.5l-6-0.3l-1.6-9.7l5.5-2.3c0.2-2.1,0.7-4.2,1.4-6.3l-4-4.5l5.7-8.1L431,129.7L431,129.7z M438.2,142
							c-3.4,4.8-2.3,11.4,2.5,14.8c4.8,3.4,11.4,2.3,14.8-2.5c3.4-4.8,2.3-11.4-2.5-14.8C448.2,136.1,441.6,137.2,438.2,142z"/>
					</g>
				</g>
			</g>
		</g>
		<g id="XMLID_83_">
			<g id="XMLID_84_">
				<g id="XMLID_85_">
					<g id="XMLID_86_">
						<g id="XMLID_87_">
							<path class="st1" d="M438.2,142c0,0,0.4-0.9,1.7-2c1.2-1.1,3.5-2.5,6.6-2.6c1.5-0.1,3.2,0.2,4.9,1c1.6,0.8,3.2,2,4.4,3.7
								c0.6,0.8,1.1,1.8,1.4,2.8c0.3,1,0.5,2.1,0.5,3.2c0.1,2.2-0.6,4.5-2,6.5c-1.4,1.9-3.3,3.3-5.5,4c-1.1,0.4-2.1,0.5-3.2,0.5
								c-1.1,0-2.1-0.1-3.1-0.4c-2-0.5-3.6-1.7-4.9-3c-1.3-1.3-2.1-2.9-2.5-4.3c-0.9-3-0.3-5.6,0.3-7.1
								C437.5,142.6,438.2,142,438.2,142c0.1,0-0.5,0.8-1.1,2.3c-0.6,1.5-1.1,4-0.1,6.9c0.5,1.4,1.2,2.9,2.5,4.1
								c1.2,1.2,2.8,2.3,4.7,2.8c0.9,0.3,1.9,0.4,2.9,0.4c1,0,2-0.2,3-0.5c2-0.6,3.8-2,5.2-3.8c1.3-1.8,2-4,1.9-6.1
								c0-1.1-0.2-2.1-0.5-3c-0.3-1-0.7-1.9-1.3-2.7c-1.1-1.6-2.6-2.8-4.1-3.5c-1.6-0.8-3.2-1-4.7-1c-3,0.1-5.2,1.3-6.5,2.4
								C438.7,141.2,438.2,142,438.2,142z"/>
						</g>
					</g>
				</g>
			</g>
		</g>
		<g id="XMLID_88_">
			<g id="XMLID_89_">
				<g id="XMLID_90_">
					<g id="XMLID_91_">
						<g id="XMLID_92_">
							<path class="st1" d="M431,129.7c0,0-0.1,0-0.4-0.1c-0.3-0.1-0.6-0.2-1.1-0.4c-1-0.4-2.3-0.9-4.1-1.7l0.1,0
								c-1.5,2.1-3.4,4.8-5.7,8.1l0-0.2c1.2,1.3,2.6,2.8,4,4.4l0.1,0.1l0,0.1c-0.7,1.9-1.2,4-1.4,6.2l0,0.1l-0.1,0
								c-1.7,0.7-3.6,1.5-5.5,2.3l0.1-0.2c0.5,3.1,1.1,6.3,1.7,9.7l-0.2-0.2c1.8,0.1,3.9,0.2,6,0.3l0.2,0l0.1,0.1
								c0.8,1.8,2,3.7,3.4,5.4l0.1,0.1l-0.1,0.1c-0.7,1.7-1.5,3.6-2.3,5.5l-0.1-0.3c2.5,1.8,5.3,3.7,8.1,5.7l-0.4,0
								c1.4-1.2,2.9-2.6,4.4-4l0.1-0.1l0.2,0.1c1.9,0.7,4,1.2,6.2,1.4l0.2,0l0.1,0.2c0.7,1.7,1.5,3.6,2.3,5.5l-0.3-0.2
								c3.1-0.5,6.4-1.1,9.7-1.6l-0.3,0.3c0.1-1.9,0.2-3.9,0.3-6l0-0.2l0.2-0.1c1.8-0.8,3.7-2,5.4-3.4l0,0l0.1-0.1l0.2,0.1
								c1.8,0.8,3.7,1.5,5.5,2.3l-0.4,0.1c1.9-2.7,3.8-5.4,5.7-8.1l0,0.4c-1.3-1.5-2.7-3-4-4.5l-0.1-0.1l0.1-0.2
								c0.8-2,1.2-4.1,1.4-6.2l0-0.2l0.2-0.1c1.9-0.8,3.7-1.5,5.5-2.3l-0.2,0.3c-0.6-3.3-1.1-6.6-1.6-9.7l0.3,0.2
								c-2-0.1-4-0.2-6-0.3l-0.2,0l-0.1-0.1c-0.9-2-2-3.8-3.4-5.4L465,133l0.1-0.1c0.8-1.9,1.6-3.7,2.3-5.5l0.1,0.3
								c-2.8-2-5.5-3.9-8-5.7l0.3,0c-1.6,1.4-3,2.7-4.5,4l-0.1,0.1l-0.1,0c-2.1-0.8-4.2-1.3-6.2-1.4l-0.1,0l0-0.1
								c-0.8-2-1.6-3.8-2.3-5.5l0.2,0.1c-3.8,0.6-7,1.1-9.8,1.6l0.1-0.1c-0.1,2.4-0.3,4.3-0.4,6l0,0.1l-0.1,0
								c-2,0.9-3.3,1.8-4.2,2.4c-0.4,0.3-0.7,0.5-1,0.7C431.1,129.7,431,129.7,431,129.7c0,0,0.1-0.1,0.3-0.3
								c0.2-0.2,0.5-0.4,0.9-0.7c0.9-0.6,2.2-1.6,4.2-2.5l-0.1,0.1c0.1-1.6,0.2-3.6,0.3-6l0-0.1l0.1,0c2.8-0.5,6-1,9.7-1.7l0.1,0
								l0.1,0.1c0.7,1.7,1.5,3.5,2.3,5.5l-0.2-0.1c2,0.2,4.2,0.6,6.3,1.4l-0.2,0c1.4-1.3,2.9-2.6,4.4-4l0.1-0.1l0.2,0.1
								c2.5,1.8,5.2,3.7,8.1,5.7l0.2,0.1l-0.1,0.2c-0.7,1.8-1.5,3.6-2.3,5.5l0-0.3c1.4,1.6,2.5,3.5,3.5,5.5l-0.2-0.2
								c2,0.1,3.9,0.2,6,0.3l0.2,0l0,0.2c0.5,3.2,1.1,6.4,1.7,9.7l0,0.2l-0.2,0.1c-1.8,0.7-3.7,1.5-5.5,2.3l0.2-0.2
								c-0.2,2.1-0.7,4.3-1.5,6.4l-0.1-0.3c1.3,1.5,2.6,3,4,4.4l0.2,0.2l-0.1,0.2c-1.9,2.6-3.8,5.3-5.7,8.1l-0.1,0.2l-0.2-0.1
								c-1.8-0.8-3.7-1.5-5.5-2.3l0.3,0l0,0c-1.7,1.4-3.6,2.6-5.5,3.5l0.2-0.3c-0.1,2-0.2,4.1-0.3,6l0,0.2l-0.2,0
								c-3.4,0.6-6.7,1.1-9.7,1.6l-0.2,0l-0.1-0.2c-0.8-1.9-1.6-3.8-2.3-5.5l0.2,0.2c-2.3-0.2-4.4-0.7-6.4-1.5l0.3-0.1
								c-1.5,1.4-3.1,2.7-4.5,4l-0.2,0.2l-0.2-0.1c-2.8-2-5.5-3.9-8-5.7l-0.2-0.1l0.1-0.2c0.8-1.9,1.6-3.8,2.3-5.5l0,0.3
								c-1.5-1.8-2.6-3.7-3.4-5.5l0.2,0.1c-2.1-0.1-4.1-0.2-6-0.3l-0.2,0l0-0.2c-0.6-3.4-1.1-6.7-1.6-9.7l0-0.2l0.2-0.1
								c1.9-0.8,3.8-1.6,5.5-2.3l-0.1,0.2c0.2-2.3,0.7-4.4,1.5-6.3l0,0.2c-1.4-1.6-2.8-3.1-4-4.5l-0.1-0.1l0.1-0.1
								c2.4-3.3,4.3-6,5.8-8l0-0.1l0.1,0c1.8,0.8,3.1,1.3,4.1,1.8c0.4,0.2,0.8,0.3,1,0.5C430.9,129.7,431,129.7,431,129.7z"/>
						</g>
					</g>
				</g>
			</g>
		</g>
	</g>
	<g id="XMLID_93_">
		<g id="XMLID_94_">
			<g id="XMLID_95_">
				<g id="XMLID_96_">
					<g id="XMLID_97_">
						<path class="st2" d="M57.3,53.6c1-0.8,2.1-1.5,3.3-2l0.2-3.6l5.8-1l1.4,3.3c1.3,0.1,2.5,0.4,3.8,0.9l2.7-2.4l4.8,3.4l-1.4,3.3
							c0.8,1,1.5,2.1,2,3.3l3.6,0.2l1,5.8l-3.3,1.4c-0.1,1.3-0.4,2.5-0.9,3.8l2.4,2.7l-3.4,4.8L75.9,76c-1,0.8-2.1,1.5-3.3,2
							l-0.2,3.6l-5.8,1l-1.4-3.3c-1.3-0.1-2.5-0.4-3.8-0.9l-2.7,2.4L54,77.4l1.4-3.3c-0.8-1-1.5-2.1-2-3.3l-3.6-0.2l-1-5.8l3.3-1.4
							c0.1-1.3,0.4-2.5,0.9-3.8L50.6,57l3.4-4.8L57.3,53.6L57.3,53.6z M61.6,60.9c-2,2.9-1.4,6.8,1.5,8.8c2.9,2,6.8,1.4,8.8-1.5
							c2-2.9,1.4-6.8-1.5-8.8C67.6,57.4,63.7,58.1,61.6,60.9z"/>
					</g>
				</g>
			</g>
		</g>
		<g id="XMLID_98_">
			<g id="XMLID_99_">
				<g id="XMLID_100_">
					<g id="XMLID_101_">
						<g id="XMLID_102_">
							<path class="st2" d="M61.6,60.9c0,0,0.3-0.5,1-1.2c0.7-0.7,2.1-1.5,3.9-1.6c0.9,0,1.9,0.1,2.9,0.6c1,0.5,1.9,1.2,2.6,2.2
								c0.4,0.5,0.6,1.1,0.8,1.7c0.2,0.6,0.3,1.3,0.3,1.9c0,1.3-0.4,2.7-1.2,3.9c-0.8,1.1-2,2-3.3,2.4c-0.6,0.2-1.3,0.3-1.9,0.3
								c-0.6,0-1.3-0.1-1.9-0.2c-1.2-0.3-2.2-1-2.9-1.8c-0.8-0.8-1.2-1.7-1.5-2.6c-0.5-1.8-0.2-3.3,0.2-4.2
								C61.2,61.3,61.6,60.9,61.6,60.9c0,0-0.3,0.5-0.7,1.4c-0.3,0.9-0.6,2.4-0.1,4.1c0.3,0.8,0.7,1.7,1.5,2.4
								c0.7,0.7,1.7,1.4,2.8,1.7c0.6,0.2,1.2,0.2,1.8,0.2c0.6,0,1.2-0.1,1.8-0.3c1.2-0.4,2.3-1.2,3.1-2.3c0.8-1.1,1.2-2.4,1.1-3.7
								c0-0.6-0.1-1.2-0.3-1.8c-0.2-0.6-0.4-1.1-0.8-1.6c-0.6-1-1.6-1.7-2.5-2.1c-0.9-0.4-1.9-0.6-2.8-0.6c-1.8,0-3.1,0.8-3.9,1.4
								C62,60.5,61.7,60.9,61.6,60.9z"/>
						</g>
					</g>
				</g>
			</g>
		</g>
		<g id="XMLID_103_">
			<g id="XMLID_104_">
				<g id="XMLID_105_">
					<g id="XMLID_106_">
						<g id="XMLID_107_">
							<path class="st2" d="M57.3,53.6c0,0-0.1,0-0.2-0.1c-0.2-0.1-0.4-0.1-0.6-0.2c-0.6-0.2-1.4-0.6-2.5-1l0.1,0
								c-0.9,1.2-2,2.9-3.4,4.8l0-0.1c0.7,0.8,1.5,1.7,2.4,2.7l0,0l0,0.1c-0.4,1.1-0.7,2.4-0.8,3.7l0,0.1l-0.1,0
								c-1,0.4-2.1,0.9-3.3,1.4l0.1-0.1c0.3,1.8,0.6,3.8,1,5.8l-0.1-0.1c1.1,0.1,2.3,0.1,3.6,0.2l0.1,0l0,0.1c0.5,1.1,1.2,2.2,2,3.2
								l0.1,0.1l0,0.1c-0.4,1-0.9,2.2-1.4,3.3l-0.1-0.2c1.5,1.1,3.1,2.2,4.8,3.4l-0.2,0c0.8-0.7,1.7-1.6,2.7-2.4l0.1-0.1l0.1,0
								c1.1,0.4,2.4,0.7,3.7,0.8l0.1,0l0,0.1c0.4,1,0.9,2.2,1.4,3.3l-0.2-0.1c1.8-0.3,3.8-0.6,5.8-1l-0.2,0.2
								c0.1-1.1,0.1-2.3,0.2-3.6l0-0.1l0.1,0c1.1-0.5,2.2-1.2,3.2-2l0,0l0.1-0.1l0.1,0c1.1,0.5,2.2,0.9,3.3,1.4l-0.2,0.1
								c1.2-1.6,2.3-3.2,3.4-4.8l0,0.2c-0.8-0.9-1.6-1.8-2.4-2.7L80.1,70l0-0.1c0.5-1.2,0.7-2.5,0.9-3.7l0-0.1l0.1,0
								c1.1-0.5,2.2-0.9,3.3-1.4l-0.1,0.2c-0.3-2-0.7-3.9-1-5.8l0.2,0.1c-1.2-0.1-2.4-0.1-3.6-0.2l-0.1,0l0-0.1
								c-0.5-1.2-1.2-2.3-2-3.2l-0.1-0.1l0-0.1c0.5-1.1,0.9-2.2,1.4-3.3l0.1,0.2c-1.7-1.2-3.3-2.4-4.8-3.4l0.2,0
								c-0.9,0.8-1.8,1.6-2.7,2.4l-0.1,0.1l-0.1,0c-1.3-0.5-2.5-0.7-3.7-0.9l-0.1,0l0-0.1c-0.5-1.2-0.9-2.3-1.3-3.3l0.1,0.1
								c-2.3,0.4-4.2,0.7-5.8,1l0.1-0.1c-0.1,1.4-0.2,2.6-0.2,3.6l0,0l0,0c-1.2,0.5-2,1.1-2.5,1.4c-0.2,0.2-0.4,0.3-0.6,0.4
								C57.4,53.5,57.3,53.6,57.3,53.6c0,0,0.1-0.1,0.2-0.2c0.1-0.1,0.3-0.3,0.6-0.4c0.5-0.4,1.3-0.9,2.5-1.5l0,0
								c0-1,0.1-2.1,0.2-3.6l0-0.1l0.1,0c1.6-0.3,3.6-0.6,5.8-1l0.1,0l0,0.1c0.4,1,0.9,2.1,1.4,3.3L68,50.2c1.2,0.1,2.5,0.4,3.8,0.9
								l-0.1,0c0.8-0.8,1.7-1.5,2.7-2.4l0.1-0.1l0.1,0.1c1.5,1.1,3.1,2.2,4.8,3.4l0.1,0.1l0,0.1c-0.4,1.1-0.9,2.2-1.4,3.3l0-0.2
								c0.8,1,1.5,2.1,2.1,3.3l-0.1-0.1c1.2,0.1,2.4,0.1,3.6,0.2l0.1,0l0,0.1c0.3,1.9,0.7,3.8,1,5.8l0,0.1L84.5,65
								c-1.1,0.4-2.2,0.9-3.3,1.4l0.1-0.1c-0.1,1.3-0.4,2.6-0.9,3.8l0-0.2c0.8,0.9,1.6,1.8,2.4,2.7l0.1,0.1l-0.1,0.1
								c-1.1,1.6-2.3,3.2-3.4,4.8l-0.1,0.1l-0.1-0.1c-1.1-0.5-2.2-0.9-3.3-1.4l0.2,0l0,0c-1,0.9-2.2,1.6-3.3,2.1l0.1-0.2
								c-0.1,1.2-0.1,2.4-0.2,3.6l0,0.1l-0.1,0c-2,0.3-4,0.7-5.8,1l-0.1,0l-0.1-0.1c-0.5-1.1-0.9-2.3-1.4-3.3l0.1,0.1
								c-1.3-0.1-2.7-0.4-3.8-0.9l0.2,0c-0.9,0.8-1.8,1.6-2.7,2.4l-0.1,0.1L58.8,81c-1.7-1.2-3.3-2.4-4.8-3.4l-0.1-0.1l0-0.1
								c0.5-1.1,1-2.3,1.4-3.3l0,0.2c-0.9-1.1-1.6-2.2-2.1-3.3l0.1,0.1c-1.2-0.1-2.5-0.1-3.6-0.2l-0.1,0l0-0.1c-0.3-2-0.7-4-1-5.8
								l0-0.1l0.1,0c1.2-0.5,2.3-0.9,3.3-1.3L52,63.4c0.1-1.4,0.4-2.6,0.9-3.8l0,0.1c-0.9-1-1.7-1.9-2.4-2.7l0-0.1l0-0.1
								c1.4-2,2.6-3.6,3.5-4.8l0,0l0,0c1.1,0.5,1.9,0.8,2.4,1.1c0.3,0.1,0.5,0.2,0.6,0.3C57.3,53.5,57.3,53.6,57.3,53.6z"/>
						</g>
					</g>
				</g>
			</g>
		</g>
	</g>
	<g id="XMLID_108_">
		<g id="XMLID_109_">
			<g id="XMLID_110_">
				<g id="XMLID_111_">
					<g id="XMLID_112_">
						<path class="st0" d="M441.4,193.1c1-0.8,2.1-1.5,3.3-2l0.2-3.6l5.8-1l1.4,3.3c1.3,0.1,2.5,0.4,3.8,0.9l2.7-2.4l4.8,3.4
							l-1.4,3.3c0.8,1,1.5,2.1,2,3.3l3.6,0.2l1,5.8l-3.3,1.4c-0.1,1.3-0.4,2.5-0.9,3.8l2.4,2.7l-3.4,4.8l-3.3-1.4
							c-1,0.8-2.1,1.5-3.3,2l-0.2,3.6l-5.8,1l-1.4-3.3c-1.3-0.1-2.5-0.4-3.8-0.9l-2.7,2.4l-4.8-3.4l1.4-3.3c-0.8-1-1.5-2.1-2-3.3
							l-3.6-0.2l-1-5.8l3.3-1.4c0.1-1.3,0.4-2.5,0.9-3.8l-2.4-2.7l3.4-4.8L441.4,193.1L441.4,193.1z M445.7,200.4
							c-2,2.9-1.4,6.8,1.5,8.8c2.9,2,6.8,1.4,8.8-1.5c2-2.9,1.4-6.8-1.5-8.8C451.7,196.9,447.7,197.6,445.7,200.4z"/>
					</g>
				</g>
			</g>
		</g>
		<g id="XMLID_113_">
			<g id="XMLID_114_">
				<g id="XMLID_115_">
					<g id="XMLID_116_">
						<g id="XMLID_117_">
							<path class="st2" d="M445.7,200.4c0,0,0.3-0.5,1-1.2c0.7-0.7,2.1-1.5,3.9-1.6c0.9,0,1.9,0.1,2.9,0.6c1,0.5,1.9,1.2,2.6,2.2
								c0.4,0.5,0.6,1.1,0.8,1.7c0.2,0.6,0.3,1.3,0.3,1.9c0,1.3-0.4,2.7-1.2,3.9c-0.8,1.1-2,2-3.3,2.4c-0.6,0.2-1.3,0.3-1.9,0.3
								c-0.6,0-1.3-0.1-1.9-0.2c-1.2-0.3-2.2-1-2.9-1.8c-0.8-0.8-1.2-1.7-1.5-2.6c-0.5-1.8-0.2-3.3,0.2-4.2
								C445.3,200.8,445.7,200.4,445.7,200.4c0,0-0.3,0.5-0.7,1.4c-0.3,0.9-0.6,2.4-0.1,4.1c0.3,0.8,0.7,1.7,1.5,2.4
								c0.7,0.7,1.7,1.4,2.8,1.7c0.6,0.2,1.2,0.2,1.8,0.2c0.6,0,1.2-0.1,1.8-0.3c1.2-0.4,2.3-1.2,3.1-2.3c0.8-1.1,1.2-2.4,1.1-3.7
								c0-0.6-0.1-1.2-0.3-1.8c-0.2-0.6-0.4-1.1-0.8-1.6c-0.6-1-1.6-1.7-2.5-2.1c-0.9-0.4-1.9-0.6-2.8-0.6c-1.8,0-3.1,0.8-3.9,1.4
								C446,200,445.7,200.4,445.7,200.4z"/>
						</g>
					</g>
				</g>
			</g>
		</g>
		<g id="XMLID_118_">
			<g id="XMLID_119_">
				<g id="XMLID_120_">
					<g id="XMLID_121_">
						<g id="XMLID_122_">
							<path class="st2" d="M441.4,193.1c0,0-0.1,0-0.2-0.1c-0.2-0.1-0.4-0.1-0.6-0.2c-0.6-0.2-1.4-0.6-2.5-1l0.1,0
								c-0.9,1.2-2,2.9-3.4,4.8l0-0.1c0.7,0.8,1.5,1.7,2.4,2.7l0,0l0,0.1c-0.4,1.1-0.7,2.4-0.8,3.7l0,0.1l-0.1,0
								c-1,0.4-2.1,0.9-3.3,1.4l0.1-0.1c0.3,1.8,0.6,3.8,1,5.8l-0.1-0.1c1.1,0.1,2.3,0.1,3.6,0.2l0.1,0l0,0.1c0.5,1.1,1.2,2.2,2,3.2
								l0.1,0.1l0,0.1c-0.4,1-0.9,2.2-1.4,3.3l-0.1-0.2c1.5,1.1,3.1,2.2,4.8,3.4l-0.2,0c0.8-0.7,1.7-1.6,2.7-2.4l0.1-0.1l0.1,0
								c1.1,0.4,2.4,0.7,3.7,0.8l0.1,0l0,0.1c0.4,1,0.9,2.2,1.4,3.3l-0.2-0.1c1.8-0.3,3.8-0.6,5.8-1l-0.2,0.2
								c0.1-1.1,0.1-2.3,0.2-3.6l0-0.1l0.1,0c1.1-0.5,2.2-1.2,3.2-2l0,0l0.1-0.1l0.1,0c1.1,0.5,2.2,0.9,3.3,1.4l-0.2,0.1
								c1.2-1.6,2.3-3.2,3.4-4.8l0,0.2c-0.8-0.9-1.6-1.8-2.4-2.7l-0.1-0.1l0-0.1c0.5-1.2,0.7-2.5,0.9-3.7l0-0.1l0.1,0
								c1.1-0.5,2.2-0.9,3.3-1.4l-0.1,0.2c-0.3-2-0.7-3.9-1-5.8l0.2,0.1c-1.2-0.1-2.4-0.1-3.6-0.2l-0.1,0l0-0.1
								c-0.5-1.2-1.2-2.3-2-3.2l-0.1-0.1l0-0.1c0.5-1.1,0.9-2.2,1.4-3.3l0.1,0.2c-1.7-1.2-3.3-2.4-4.8-3.4l0.2,0
								c-0.9,0.8-1.8,1.6-2.7,2.4l-0.1,0.1l-0.1,0c-1.3-0.5-2.5-0.7-3.7-0.9l-0.1,0l0-0.1c-0.5-1.2-0.9-2.3-1.3-3.3l0.1,0.1
								c-2.3,0.4-4.2,0.7-5.8,1l0.1-0.1c-0.1,1.4-0.2,2.6-0.2,3.6l0,0l0,0c-1.2,0.5-2,1.1-2.5,1.4c-0.2,0.2-0.4,0.3-0.6,0.4
								C441.5,193,441.4,193.1,441.4,193.1c0,0,0.1-0.1,0.2-0.2c0.1-0.1,0.3-0.3,0.6-0.4c0.5-0.4,1.3-0.9,2.5-1.5l0,0
								c0-1,0.1-2.1,0.2-3.6l0-0.1l0.1,0c1.6-0.3,3.6-0.6,5.8-1l0.1,0l0,0.1c0.4,1,0.9,2.1,1.4,3.3l-0.1-0.1
								c1.2,0.1,2.5,0.4,3.8,0.9l-0.1,0c0.8-0.8,1.7-1.5,2.7-2.4l0.1-0.1l0.1,0.1c1.5,1.1,3.1,2.2,4.8,3.4l0.1,0.1l0,0.1
								c-0.4,1.1-0.9,2.2-1.4,3.3l0-0.2c0.8,1,1.5,2.1,2.1,3.3l-0.1-0.1c1.2,0.1,2.4,0.1,3.6,0.2l0.1,0l0,0.1c0.3,1.9,0.7,3.8,1,5.8
								l0,0.1l-0.1,0.1c-1.1,0.4-2.2,0.9-3.3,1.4l0.1-0.1c-0.1,1.3-0.4,2.6-0.9,3.8l0-0.2c0.8,0.9,1.6,1.8,2.4,2.7l0.1,0.1l-0.1,0.1
								c-1.1,1.6-2.3,3.2-3.4,4.8l-0.1,0.1l-0.1-0.1c-1.1-0.5-2.2-0.9-3.3-1.4l0.2,0l0,0c-1,0.9-2.2,1.6-3.3,2.1l0.1-0.2
								c-0.1,1.2-0.1,2.4-0.2,3.6l0,0.1l-0.1,0c-2,0.3-4,0.7-5.8,1l-0.1,0l-0.1-0.1c-0.5-1.1-0.9-2.3-1.4-3.3l0.1,0.1
								c-1.3-0.1-2.7-0.4-3.8-0.9l0.2,0c-0.9,0.8-1.8,1.6-2.7,2.4l-0.1,0.1l-0.1-0.1c-1.7-1.2-3.3-2.4-4.8-3.4l-0.1-0.1l0.1-0.1
								c0.5-1.1,1-2.3,1.4-3.3l0,0.2c-0.9-1.1-1.6-2.2-2.1-3.3l0.1,0.1c-1.2-0.1-2.5-0.1-3.6-0.2l-0.1,0l0-0.1c-0.3-2-0.7-4-1-5.8
								l0-0.1l0.1,0c1.2-0.5,2.3-0.9,3.3-1.3l-0.1,0.1c0.1-1.4,0.4-2.6,0.9-3.8l0,0.1c-0.9-1-1.7-1.9-2.4-2.7l0-0.1l0-0.1
								c1.4-2,2.6-3.6,3.5-4.8l0,0l0,0c1.1,0.5,1.9,0.8,2.4,1.1c0.3,0.1,0.5,0.2,0.6,0.3C441.3,193,441.4,193.1,441.4,193.1z"/>
						</g>
					</g>
				</g>
			</g>
		</g>
	</g>
</g>
<g id="Background_Simple" class="st3">
	<g id="XMLID_123_" class="st4">
		<circle class="st0" cx="71.8" cy="138.3" r="21.6"/>
	</g>
	<g id="XMLID_124_" class="st4">
		<circle class="st0" cx="58.9" cy="208.8" r="8.5"/>
	</g>
	<g id="XMLID_125_" class="st4">
		<circle class="st0" cx="334.4" cy="429.1" r="8.5"/>
	</g>
	<g id="XMLID_126_" class="st4">
		<path id="XMLID_127_" class="st0" d="M112.2,117.1c-7.2-8.3-7.5-19.8-3.1-28.6c4.4-8.8,13-15.3,22.7-17c8.6-1.5,18.2,0.4,25.6-4.3
			c8.9-5.6,10.4-17.7,15.7-26.8c6.7-11.4,20.8-18,33.9-15.8c19.3,3.3,32.2,24.5,30.1,43.9c-2.2,19.4-16.6,36-34,44.9
			c-17.4,8.9-40.6,14.6-60.1,15C131.5,128.7,120.7,124.7,112.2,117.1"/>
	</g>
	<g id="XMLID_128_" class="st4">
		<path id="XMLID_129_" class="st0" d="M370,406.4c4.2,7.3,13.9,13.4,19.7,14.7l-0.1-0.1c10.9,3.6,23.2,3.1,34.2-0.5
			c12.8-4.2,24.1-12.2,33.8-21.6c13.8-13.3,25.2-30.1,28.3-49c3.1-18.9-3.3-40.1-18.8-51.4c-11.3-8.2-26.6-10.4-39.7-5.7
			c-13.1,4.7-23.6,16.1-27.2,29.5c-3.1,11.8-1.3,25.2-7.7,35.7c-5.8,9.5-17.2,14.6-22.7,24.3C365.8,389.7,365.9,399.1,370,406.4z"/>
	</g>
	<g id="XMLID_130_" class="st4">
		<circle class="st0" cx="461" cy="217.3" r="23"/>
	</g>
</g>
<g id="Plant">
	<g id="XMLID_131_">
		<g id="XMLID_132_">
			<g id="XMLID_133_">
				<g id="XMLID_134_">
					<g id="XMLID_135_">
						<path class="st5" d="M100.7,422.6c2.5,0.9,4.4,3.1,5.4,5.5c1,2.5,1.3,5.2,1.1,7.8c-0.3,5.1-2.9,10.5-5.8,14.7
							c-4.5-3.5-5.9-10-6.3-13.4C94.4,432,96.2,422,100.7,422.6"/>
					</g>
				</g>
			</g>
		</g>
		<g id="XMLID_136_">
			<g id="XMLID_137_">
				<g id="XMLID_138_">
					<g id="XMLID_139_">
						<path class="st5" d="M106.9,458.8c-0.8-2.9,0.2-6.1,2.3-8.2c2.1-2.1,5.2-3.1,8.1-3c1.4,0,2.9,0.3,3.7,1.4
							c0.8,1,0.8,2.5,0.3,3.7c-0.5,1.2-1.5,2.1-2.6,2.8C115.2,458,111.2,459.8,106.9,458.8"/>
					</g>
				</g>
			</g>
		</g>
		<g id="XMLID_140_">
			<g id="XMLID_141_">
				<g id="XMLID_142_">
					<g id="XMLID_143_">
						<g id="XMLID_144_">
							<path class="st6" d="M102.2,474.8c0,0,0-0.4,0.1-1.1c0.1-0.7,0.2-1.7,0.4-2.9c0.3-2.4,0.8-5.8,2.4-9.2c1.6-3.4,4.1-6,6.1-7.3
								c1-0.7,1.9-1.1,2.6-1.3c0.3-0.1,0.6-0.2,0.8-0.2c0.2,0,0.3-0.1,0.3-0.1c0,0.1-1.5,0.4-3.5,1.8c-2,1.4-4.3,3.9-5.9,7.2
								c-1.6,3.3-2.1,6.7-2.5,9.1c-0.2,1.2-0.4,2.2-0.5,2.8C102.4,474.4,102.3,474.8,102.2,474.8z"/>
						</g>
					</g>
				</g>
			</g>
		</g>
		<g id="XMLID_145_">
			<g id="XMLID_146_">
				<g id="XMLID_147_">
					<g id="XMLID_148_">
						<g id="XMLID_149_">
							<path class="st6" d="M100,430.3c0,0,0,0.2,0.1,0.5c0,0.3,0.1,0.8,0.2,1.3c0.1,1.1,0.3,2.8,0.5,4.8c0.4,4.1,0.8,9.7,1.1,16
								c0.3,6.3,0.5,11.9,0.5,16c0,2.1,0,3.7,0,4.9c0,0.5,0,1,0,1.3c0,0.3,0,0.5,0,0.5c0,0,0-0.2,0-0.5c0-0.3,0-0.8-0.1-1.3
								c0-1.2-0.1-2.8-0.1-4.9c-0.1-4.1-0.3-9.8-0.6-16c-0.3-6.2-0.7-11.9-1-16c-0.1-2-0.3-3.7-0.3-4.8c0-0.5-0.1-1-0.1-1.3
								C100,430.4,100,430.3,100,430.3z"/>
						</g>
					</g>
				</g>
			</g>
		</g>
		<g id="XMLID_150_">
			<g id="XMLID_151_">
				<g id="XMLID_152_">
					<g id="XMLID_153_">
						<path class="st5" d="M99.6,462.3c-1.3-6.1-5.8-11.5-11.6-13.9c-1.5-0.6-3.4-1-4.5,0.2c-1.1,1.1-0.8,3-0.1,4.5
							c2.7,6.1,9.5,10.1,16.1,9.6"/>
					</g>
				</g>
			</g>
		</g>
		<g id="XMLID_154_">
			<g id="XMLID_155_">
				<g id="XMLID_156_">
					<g id="XMLID_157_">
						<g id="XMLID_158_">
							<path class="st6" d="M89,453.2c0,0,0.3,0.1,0.9,0.3c0.3,0.1,0.7,0.3,1.1,0.5c0.4,0.2,0.9,0.4,1.4,0.8c0.5,0.3,1,0.6,1.6,1
								c0.6,0.4,1.1,0.9,1.7,1.4c1.1,1,2.3,2.3,3.3,3.7c1,1.5,1.7,3,2.2,4.4c0.2,0.7,0.5,1.4,0.6,2.1c0.2,0.7,0.3,1.3,0.4,1.9
								c0.1,0.6,0.1,1.1,0.2,1.5c0,0.5,0,0.8,0,1.2c0,0.6,0,1-0.1,1c-0.1,0,0-1.4-0.4-3.7c-0.1-0.6-0.2-1.2-0.4-1.8
								c-0.2-0.7-0.4-1.3-0.6-2c-0.5-1.4-1.3-2.9-2.2-4.3c-1-1.4-2.1-2.7-3.2-3.7c-0.6-0.5-1.1-1-1.6-1.4c-0.5-0.4-1-0.8-1.5-1.1
								C90.3,453.8,89,453.3,89,453.2z"/>
						</g>
					</g>
				</g>
			</g>
		</g>
	</g>
</g>
<g id="Head">
	<g id="XMLID_159_">
		<g id="XMLID_160_">
			<g id="XMLID_161_">
				<path id="XMLID_162_" class="st7" d="M94.5,219.4c0,0-16.3-143.3,130.7-146.5c147.1-3.2,131.5,144.9,125.3,165.1
					c-6.2,20.1-35.8,78.4-38.9,105c-3.1,26.6,1,106.5,3,132.6H163.1l0.6-78.9c0,0-55.2,8.9-65.4-16.1S89,307.2,89,307.2
					s-30.3,0-32.7-4.8C54,297.5,94.5,219.4,94.5,219.4z"/>
			</g>
		</g>
		<g id="XMLID_163_">
			<g id="XMLID_164_">
				<path id="XMLID_165_" class="st5" d="M94.5,219.4c0,0-16.3-143.3,130.7-146.5c147.1-3.2,131.5,144.9,125.3,165.1
					c-6.2,20.1-35.8,78.4-38.9,105c-3.1,26.6,1,106.5,3,132.6H163.1l0.6-78.9c0,0-55.2,8.9-65.4-16.1S89,307.2,89,307.2
					s-30.3,0-32.7-4.8C54,297.5,94.5,219.4,94.5,219.4z"/>
			</g>
		</g>
		<g id="XMLID_166_" class="st8">
			<g id="XMLID_167_">
				<path id="XMLID_168_" class="st9" d="M94.5,219.4c0,0-16.3-143.3,130.7-146.5c147.1-3.2,131.5,144.9,125.3,165.1
					c-6.2,20.1-35.8,78.4-38.9,105c-3.1,26.6,1,106.5,3,132.6H163.1l0.6-78.9c0,0-55.2,8.9-65.4-16.1S89,307.2,89,307.2
					s-30.3,0-32.7-4.8C54,297.5,94.5,219.4,94.5,219.4z"/>
			</g>
		</g>
		<g id="XMLID_169_">
			<g id="XMLID_170_">
				<g id="XMLID_171_">
					<path id="XMLID_172_" class="st7" d="M171.6,131.4c-8.4-2.1-19.5-6.5-28.6,1.6c-4.6,4.1-7.2,13.3-7.5,19.6
						c-9,0.5-17.6,5.4-22.7,12.9c-2.6,3.8-4.4,8.4-4.3,13c0.2,4.7,2.5,9.4,6.5,11.6c-4.4,6.3-4.9,15.3-1.2,22.1
						c3.7,6.8,11.5,11,19.1,10.4c-1.3,8.1,1.9,16.7,8,21.9c6.1,5.2,15,6.9,22.5,4.2c7.3,10.8,24,13.1,33.8,4.8c1.2-1,2.5-2.3,4-2.5
						c1.4-0.2,2.7,0.3,4,0.8c6.6,2.5,13.6,4.7,20.5,3.6c6.9-1.1,13.7-6.6,14.1-13.8c7.6,4.1,16.1,6.3,24.7,6.4
						c9.9,0,21.3-4.5,23.4-14.3c5.8,4.6,14.2,5.4,20.7,1.9c6.5-3.5,10.7-11.1,10.2-18.6c8.4,1.6,15.5-6.9,17.7-15.3
						c2.2-8.2,1.6-17.4-2.8-24.5c-4.4-7.2-13-11.8-21.1-10.3c4.3-6.2,4.9-15,1.5-21.7c-3.4-6.8-10.8-11.3-18.2-11.2
						c-1.8-6-6.7-10.9-12.6-12.7s-12.6-0.2-17.3,3.8c-5.1-8.6-14.2-14.5-23.9-15.5s-19.8,2.8-26.5,10c-6.7-5.9-18.8-9.1-27.1-6.3
						C180.2,115.9,173.6,122.6,171.6,131.4"/>
				</g>
			</g>
			<g class="st10">
				<g id="XMLID_174_">
					<g id="XMLID_175_">
						<path id="XMLID_176_" class="st9" d="M171.6,131.4c-8.4-2.1-19.5-6.5-28.6,1.6c-4.6,4.1-7.2,13.3-7.5,19.6
							c-9,0.5-17.6,5.4-22.7,12.9c-2.6,3.8-4.4,8.4-4.3,13c0.2,4.7,2.5,9.4,6.5,11.6c-4.4,6.3-4.9,15.3-1.2,22.1
							c3.7,6.8,11.5,11,19.1,10.4c-1.3,8.1,1.9,16.7,8,21.9c6.1,5.2,15,6.9,22.5,4.2c7.3,10.8,24,13.1,33.8,4.8c1.2-1,2.5-2.3,4-2.5
							c1.4-0.2,2.7,0.3,4,0.8c6.6,2.5,13.6,4.7,20.5,3.6c6.9-1.1,13.7-6.6,14.1-13.8c7.6,4.1,16.1,6.3,24.7,6.4
							c9.9,0,21.3-4.5,23.4-14.3c5.8,4.6,14.2,5.4,20.7,1.9c6.5-3.5,10.7-11.1,10.2-18.6c8.4,1.6,15.5-6.9,17.7-15.3
							c2.2-8.2,1.6-17.4-2.8-24.5c-4.4-7.2-13-11.8-21.1-10.3c4.3-6.2,4.9-15,1.5-21.7c-3.4-6.8-10.8-11.3-18.2-11.2
							c-1.8-6-6.7-10.9-12.6-12.7s-12.6-0.2-17.3,3.8c-5.1-8.6-14.2-14.5-23.9-15.5s-19.8,2.8-26.5,10c-6.7-5.9-18.8-9.1-27.1-6.3
							C180.2,115.9,173.6,122.6,171.6,131.4"/>
					</g>
				</g>
			</g>
			<g id="XMLID_173_">
				<g id="XMLID_177_">
					<g id="XMLID_178_">
						<g id="XMLID_179_">
							<path id="XMLID_180_" class="st7" d="M164.3,149.7c0,0.1-0.9-0.2-2.6,0.2c-1.6,0.3-3.9,1.4-5.8,3.8c-1.9,2.4-3.1,6-3.5,10.1
								c-0.2,2.1-0.4,4.3-0.1,6.6c0.3,2.3,1.1,4.6,2.8,6.4l0.4,0.4l-0.5,0.1c-4.2,0.7-8.5,3.1-11.6,6.8c-1.5,1.7-2.6,3.7-3.3,5.8
								c-0.7,2.1-1.1,4.2-1.1,6.3c-0.1,4.2,1.1,8.1,3.1,11.1l0.2,0.3l-0.3,0.1c-1.7,0.4-3.1,1.3-4.2,2.4c-1.1,1.1-2,2.4-2.6,3.6
								c-1.3,2.5-1.7,5-1.9,7c-0.2,2-0.3,3.6-0.3,4.7c0,0.5,0,0.9,0,1.3c0,0.3,0,0.4,0,0.4c0,0,0-0.1,0-0.4c0-0.3,0-0.7,0-1.3
								c0-1.1,0-2.7,0.2-4.8c0.2-2,0.6-4.6,1.9-7.2c0.6-1.3,1.5-2.6,2.7-3.7c1.2-1.1,2.7-2.1,4.4-2.6l-0.1,0.4
								c-2-3.1-3.3-7.1-3.2-11.4c0-2.1,0.4-4.3,1.1-6.5c0.8-2.1,1.9-4.2,3.4-6c3.1-3.8,7.6-6.3,11.9-7l-0.1,0.4
								c-1.8-1.9-2.6-4.4-2.9-6.7c-0.3-2.3-0.1-4.6,0.1-6.7c0.5-4.2,1.7-7.9,3.7-10.3c2-2.4,4.4-3.5,6.1-3.8
								C163.4,149.4,164.3,149.7,164.3,149.7z"/>
						</g>
					</g>
				</g>
				<g id="XMLID_181_">
					<g id="XMLID_182_">
						<g id="XMLID_183_">
							<path id="XMLID_184_" class="st7" d="M185.3,211.9c0,0-0.5,0.3-1.5,0.7c-1,0.4-2.4,1-4.2,1.5c-1.8,0.5-4.1,1-6.6,0.9
								c-1.3-0.1-2.6-0.3-3.9-0.8c-1.3-0.5-2.5-1.3-3.7-2.2c-2.3-1.8-4.3-3.9-5.2-6.3c-0.9-2.4-0.9-4.8-0.5-6.7
								c0.4-1.9,1.1-3.3,1.7-4.2c0.3-0.4,0.6-0.8,0.8-1c0.2-0.2,0.3-0.3,0.3-0.3c0,0-0.4,0.5-0.9,1.4c-0.5,0.9-1.2,2.3-1.5,4.1
								c-0.3,1.8-0.3,4.1,0.6,6.4c0.9,2.3,2.8,4.3,5,6.1c2.2,1.8,4.8,2.8,7.3,2.9c2.5,0.1,4.7-0.3,6.5-0.8c1.8-0.5,3.3-1,4.3-1.3
								C184.7,212.1,185.3,211.9,185.3,211.9z"/>
						</g>
					</g>
				</g>
				<g id="XMLID_185_">
					<g id="XMLID_186_">
						<g id="XMLID_187_">
							<path id="XMLID_188_" class="st7" d="M276.7,193.5c0,0,0,0.1,0,0.3c0,0.2-0.1,0.5-0.1,0.8c-0.1,0.7-0.3,1.8-0.6,3.2
								c-0.3,1.4-0.6,3.1-1.3,5.1c-0.6,2-1.5,4.2-3.1,6.3c-1.5,2.2-3.6,4.3-6.3,5.9c-2.6,1.7-5.7,3.2-9.3,4
								c-1.8,0.4-3.6,0.6-5.5,0.5c-1.9-0.1-3.9-0.4-5.8-0.9c-3.9-1.1-7.7-2.9-11.3-5.3l0.4-0.2c-0.7,4.2-1.4,8.7-3.6,12.8
								c-0.6,1-1.2,2-2,2.9c-0.8,0.9-1.7,1.7-2.6,2.4c-2,1.4-4.3,2.2-6.7,2.7c-4.2,0.8-8.6,0.5-12.5-0.7c-3.9-1.2-7.4-3.3-10.1-6
								l0.4-0.1c-0.3,2.3-1.3,4.4-2.8,6.1c-1.4,1.7-3.2,3-5.1,3.9c-3.9,1.8-8.1,1.8-11.8,0.9c-3.7-0.9-7-2.5-9.7-4.3
								c-2.7-1.9-4.9-4.2-6.1-6.8c-0.6-1.3-1-2.5-1.2-3.8c-0.2-1.2-0.1-2.4,0.1-3.5c0.4-2.2,1.4-3.9,2.4-5c1-1.1,2.1-1.8,2.8-2
								c0.7-0.3,1.2-0.3,1.2-0.3c0,0-0.4,0.1-1.1,0.4c-0.7,0.3-1.7,0.9-2.7,2.1c-1,1.1-1.9,2.8-2.2,4.9c-0.4,2.1-0.2,4.7,1.1,7.1
								c1.2,2.5,3.3,4.7,6,6.6c2.7,1.8,5.9,3.4,9.6,4.2c3.6,0.8,7.8,0.8,11.5-0.9c1.8-0.9,3.6-2.2,4.9-3.8c1.4-1.6,2.3-3.7,2.7-5.8
								l0.1-0.5l0.4,0.4c2.7,2.6,6.1,4.7,9.9,5.9c3.8,1.2,8.1,1.5,12.2,0.7c2.3-0.5,4.6-1.3,6.5-2.6c1-0.7,1.8-1.5,2.5-2.3
								c0.7-0.9,1.4-1.8,1.9-2.8c2.1-4,2.9-8.5,3.6-12.6l0.1-0.4l0.3,0.2c3.6,2.4,7.3,4.3,11.1,5.3c1.9,0.5,3.8,0.9,5.7,0.9
								c1.9,0.1,3.7-0.1,5.4-0.5c3.5-0.8,6.6-2.2,9.2-3.9c2.6-1.7,4.7-3.7,6.2-5.8c1.5-2.1,2.4-4.3,3.1-6.2c0.7-1.9,1-3.7,1.3-5
								c0.3-1.4,0.5-2.5,0.7-3.2c0.1-0.3,0.1-0.6,0.2-0.8C276.7,193.6,276.7,193.5,276.7,193.5z"/>
						</g>
					</g>
				</g>
				<g id="XMLID_189_">
					<g id="XMLID_190_">
						<g id="XMLID_191_">
							<path id="XMLID_192_" class="st7" d="M281.8,161.9c0,0,0.2,0,0.7,0.1c0.2,0,0.5,0.1,0.8,0.1c0.3,0.1,0.7,0.2,1.1,0.3
								c1.6,0.4,4,1.4,6.3,3.4c2.4,1.9,4.7,4.8,6.5,8.5c0.9,1.8,1.6,3.8,2.1,6c0.3,1.1,0.5,2.2,0.4,3.4c0,1.2-0.1,2.3-0.3,3.5
								c-0.3,2.3-1,4.5-2.1,6.5c-1.1,1.9-2.7,3.5-4.3,4.7c-3.3,2.4-6.6,4-9.6,4.7c-3,0.7-5.5,0.8-7.2,0.7c-0.9,0-1.5-0.1-2-0.1
								c-0.4,0-0.7-0.1-0.7-0.1c0,0,0.2,0,0.7,0c0.4,0,1.1,0,2,0c1.7,0,4.2-0.1,7.1-0.9c2.9-0.8,6.2-2.3,9.4-4.7
								c1.6-1.2,3-2.7,4.1-4.6c1.1-1.9,1.7-4,2.1-6.3c1-4.6-0.6-8.9-2.2-12.5c-1.7-3.6-4-6.5-6.3-8.4c-2.3-2-4.5-3-6.2-3.5
								c-0.4-0.1-0.8-0.2-1.1-0.3c-0.3-0.1-0.6-0.1-0.8-0.2C282,162,281.8,161.9,281.8,161.9z"/>
						</g>
					</g>
				</g>
				<g id="XMLID_193_">
					<g id="XMLID_194_">
						<g id="XMLID_195_">
							<path id="XMLID_196_" class="st7" d="M316.6,177.6c0,0,0.3,0.4,0.6,1.2c0.3,0.8,0.7,2,0.8,3.6c0.1,1.6-0.1,3.5-0.8,5.4
								c-0.7,1.9-2,4-3.9,5.5c-0.9,0.8-2,1.3-3,1.8c-1,0.5-2.1,0.8-3.1,1c-2.1,0.4-4,0.1-5.5-0.4c-1.5-0.6-2.5-1.4-3.1-2
								c-0.3-0.3-0.5-0.6-0.7-0.8c-0.1-0.2-0.2-0.3-0.2-0.3c0,0,0.4,0.3,1,0.9c0.6,0.6,1.7,1.3,3.1,1.8c1.4,0.5,3.3,0.7,5.2,0.3
								c1-0.2,2-0.5,3-1c1-0.5,2-1,2.9-1.8c1.8-1.4,3-3.4,3.8-5.2c0.7-1.9,0.9-3.7,0.9-5.2C317.5,179.4,316.5,177.7,316.6,177.6z"/>
						</g>
					</g>
				</g>
				<g id="XMLID_197_">
					<g id="XMLID_198_">
						<g id="XMLID_199_">
							<path id="XMLID_200_" class="st7" d="M297.7,134.4c0,0-0.6-0.2-1.9-0.3c-0.6,0-1.4,0-2.4,0.2c-0.9,0.2-2,0.5-3,1.1
								c-2.2,1.1-4.5,3.2-6.1,6.4c-1.7,3.1-2.6,7.1-3.5,11.6l-0.1,0.4l-0.2-0.4c-2-3.2-5-6.1-8.8-8.2c-3.8-2.1-8.5-3.4-13.4-2.9
								c-4.9,0.4-10,2.5-14,6.1c-2,1.8-3.8,4-5,6.5c-1.2,2.5-1.7,5.5-0.9,8.3l0.5,1.5l-0.9-1.3c-3.4-4.9-9.3-8.3-15.7-8.8
								c-0.8-0.1-1.6-0.1-2.4-0.1c-0.8,0.1-1.6,0.1-2.4,0.2c-1.6,0.2-3.2,0.7-4.7,1.3c-1.5,0.6-2.9,1.5-4.3,2.5
								c-1.3,1.1-2.5,2.2-3.6,3.5c-1.9,2.4-3.3,5.2-4.2,8.1c-0.8,2.9-1.1,5.9-0.7,8.8l0.1,0.4l-0.4-0.1c-3.4-1.1-6.9-1.7-10.3-1.2
								c-3.4,0.5-6.6,2-8.8,4.5c-2.3,2.4-3.3,5.7-3.1,8.9c0.1,3.2,1.4,6.2,3.5,8.4c2,2.3,4.7,3.8,7.5,4.5c2.8,0.7,5.7,0.7,8.4,0.5
								c2.7-0.3,5.3-0.9,7.6-2c2.3-1.1,4.2-2.8,5.3-4.8l0.1-0.2l0.2,0.2c1.8,2,4.2,3.3,6.6,3.9c2.4,0.6,4.8,0.6,6.8-0.1
								c2.1-0.6,3.8-1.8,5-3.1c1.2-1.4,2-2.9,2.5-4.3c1-2.9,0.8-5.3,0.4-6.9c-0.4-1.6-0.8-2.3-0.8-2.3c0,0,0.1,0.2,0.3,0.6
								c0.2,0.4,0.4,0.9,0.6,1.7c0.4,1.5,0.7,4-0.3,7c-0.5,1.5-1.3,3-2.5,4.4c-1.3,1.4-3,2.6-5.1,3.3c-2.1,0.7-4.6,0.7-7,0.1
								c-2.4-0.6-4.9-1.9-6.8-4l0.3,0c-1.2,2.1-3.1,3.9-5.4,5c-2.3,1.2-5,1.8-7.7,2.1c-2.7,0.2-5.7,0.3-8.5-0.5
								c-2.9-0.7-5.6-2.3-7.7-4.6c-2.1-2.3-3.5-5.4-3.6-8.7c-0.2-3.3,0.9-6.7,3.2-9.3c2.3-2.5,5.6-4.2,9.1-4.7
								c3.5-0.5,7.1,0.1,10.5,1.2l-0.4,0.3c-0.4-3-0.2-6.1,0.7-9.1c0.9-3,2.3-5.8,4.3-8.3c1.1-1.4,2.3-2.5,3.6-3.6
								c1.4-1,2.8-1.9,4.4-2.6c1.6-0.6,3.2-1.2,4.8-1.4c0.8-0.2,1.7-0.2,2.5-0.2c0.8,0,1.7,0,2.5,0.1c6.6,0.5,12.6,4,16.1,9
								l-0.5,0.2c-0.9-2.9-0.3-6,0.9-8.6c1.2-2.6,3-4.9,5.1-6.7c4.1-3.7,9.3-5.8,14.3-6.2c5-0.5,9.8,0.8,13.7,3
								c3.9,2.2,6.9,5.2,8.9,8.4l-0.3,0.1c0.9-4.4,1.8-8.5,3.6-11.6c1.6-3.2,4-5.3,6.3-6.5c1.1-0.6,2.2-0.9,3.1-1.1
								c0.9-0.2,1.8-0.2,2.4-0.1c0.6,0.1,1.1,0.2,1.4,0.3C297.6,134.3,297.7,134.4,297.7,134.4z"/>
						</g>
					</g>
				</g>
				<g id="XMLID_201_">
					<g id="XMLID_202_">
						<g id="XMLID_203_">
							<path id="XMLID_204_" class="st7" d="M275,177.1c0,0,0,0.6-0.2,1.7c-0.2,1.1-0.4,2.6-0.9,4.4c-0.6,1.8-1.5,4-3.4,5.8
								c-2,1.7-4.7,2.7-7.7,3c-2.9,0.3-5.8-0.1-8.2-1.1c-2.4-1-4.1-2.7-5.2-4.3c-1.1-1.6-1.6-3.1-1.8-4.2c-0.1-0.5-0.1-0.9-0.1-1.2
								c0-0.3,0-0.4,0-0.4c0.1,0,0.1,0.6,0.3,1.6c0.3,1,0.8,2.5,1.9,4c1.1,1.5,2.8,3.1,5.1,4.1c2.3,1,5.1,1.4,7.9,1.1
								c2.8-0.4,5.5-1.3,7.4-2.9c1.9-1.6,2.8-3.8,3.4-5.5c0.6-1.8,0.9-3.3,1.1-4.4C274.9,177.7,275,177.1,275,177.1z"/>
						</g>
					</g>
				</g>
				<g id="XMLID_205_">
					<g id="XMLID_206_">
						<g id="XMLID_207_">
							<path id="XMLID_208_" class="st7" d="M267.9,124c0,0-0.4,0.2-1.2,0.5c-0.8,0.3-1.9,0.8-3.3,1.5c-1.4,0.7-3.1,1.5-4.7,2.9
								c-0.8,0.7-1.4,1.6-1.8,2.7c-0.4,1.1-0.4,2.3,0.2,3.4l-0.4,0.3c-1.7-2.3-4.6-4-7.8-4.8c-3.6-1-7.2-1.5-10.3-1.3
								c-3.2,0.2-5.9,1.4-7.9,2.8c-2,1.4-3.3,2.9-4.2,4c-0.8,1.1-1.2,1.8-1.2,1.7c0,0,0.1-0.2,0.2-0.5c0.2-0.3,0.4-0.8,0.8-1.4
								c0.8-1.1,2.1-2.7,4.1-4.2c2-1.4,4.8-2.7,8.1-3c1.6-0.1,3.4,0,5.1,0.2c1.8,0.2,3.6,0.6,5.4,1.1c3.3,0.9,6.3,2.6,8.1,5.1
								l-0.4,0.3c-0.7-1.2-0.6-2.7-0.2-3.8c0.4-1.2,1.1-2.1,2-2.9c1.7-1.4,3.4-2.2,4.8-2.8c1.4-0.6,2.6-1.1,3.4-1.4
								C267.5,124.1,267.9,124,267.9,124z"/>
						</g>
					</g>
				</g>
				<g id="XMLID_209_">
					<g id="XMLID_210_">
						<g id="XMLID_211_">
							<path id="XMLID_212_" class="st7" d="M177.6,163.9c0,0-0.6-0.6-1.3-2.1c-0.7-1.4-1.4-3.8-1.1-6.7c0.2-1.5,0.6-3,1.4-4.6
								c0.8-1.5,2.1-3,3.8-4.1c1.7-1.1,3.7-1.8,5.9-1.9c2.2-0.1,4.5,0.4,6.5,1.6l-0.4,0.4c-1.2-1.7-1.9-3.7-2.1-5.9
								c-0.6-5.4,1.1-10.6,3.8-14.3c2.7-3.8,6.6-6.1,10-6.9c3.4-0.9,6.3-0.6,8.2-0.2c1,0.2,1.7,0.5,2.2,0.7c0.5,0.2,0.7,0.3,0.7,0.3
								c0,0.1-1-0.4-2.9-0.8c-1.9-0.4-4.8-0.6-8.1,0.4c-3.3,0.9-7,3.1-9.7,6.8c-2.7,3.7-4.3,8.8-3.7,14c0.3,2.1,0.9,4,2,5.6l0.7,1
								l-1.1-0.6c-1.9-1.1-4.1-1.6-6.2-1.5c-2.1,0.1-4.1,0.7-5.7,1.7c-1.6,1-2.9,2.4-3.7,3.9c-0.8,1.5-1.3,3-1.4,4.4
								c-0.4,2.9,0.3,5.2,0.9,6.6C177.1,163.2,177.7,163.9,177.6,163.9z"/>
						</g>
					</g>
				</g>
				<g id="XMLID_213_">
					<g id="XMLID_214_">
						<g id="XMLID_215_">
							<path id="XMLID_216_" class="st7" d="M127.5,176.9c0,0,0.1,0,0.3,0c0.2,0,0.5,0.1,0.8,0.3c0.7,0.3,1.7,1,2.4,2.2
								c0.7,1.2,1.1,2.9,0.7,4.8c-0.5,1.8-1.7,3.6-3.5,4.8c-1.8,1.2-3.8,1.7-5.6,1.9c-1.8,0.2-3.4,0.2-4.8,0
								c-1.4-0.2-2.4-0.7-3.1-1.1c-0.6-0.4-0.9-0.8-0.9-0.8c0-0.1,1.3,1.2,4,1.5c1.3,0.1,2.9,0.1,4.7-0.1c1.7-0.2,3.7-0.7,5.3-1.9
								c1.7-1.1,2.8-2.8,3.3-4.4c0.5-1.7,0.1-3.3-0.5-4.4c-0.6-1.2-1.5-1.9-2.1-2.2C127.9,177.1,127.5,177,127.5,176.9z"/>
						</g>
					</g>
				</g>
				<g id="XMLID_217_">
					<g id="XMLID_218_">
						<g id="XMLID_219_">
							<path id="XMLID_220_" class="st7" d="M166.2,252.3c0,0-0.3-0.2-0.8-0.6c-0.5-0.4-1.1-1-1.8-2c-1.3-1.8-2.7-4.7-3.1-8.1
								c-0.2-1.7-0.1-3.4,0.1-4.8c0.2-1.5,0.8-2.7,1.2-3.8c0.9-2.1,2-3.1,2-3c0,0-0.2,0.3-0.5,0.8c-0.3,0.5-0.7,1.3-1.1,2.3
								c-0.4,1-0.9,2.3-1.1,3.7c-0.2,1.4-0.3,3-0.1,4.7c0.4,3.3,1.7,6.2,2.9,8C165.1,251.4,166.3,252.2,166.2,252.3z"/>
						</g>
					</g>
				</g>
				<g id="XMLID_221_">
					<g id="XMLID_222_">
						<g id="XMLID_223_">
							<path id="XMLID_224_" class="st7" d="M201.9,239.5c0.1,0,0.4,0.7,0.7,2c0.2,1.3,0.3,3.2-0.3,5.2c-0.5,2-1.5,3.6-2.4,4.6
								c-0.9,1-1.6,1.4-1.6,1.4c-0.1-0.1,0.5-0.6,1.3-1.6c0.8-1,1.7-2.6,2.2-4.5c0.5-1.9,0.6-3.7,0.4-5
								C202.1,240.4,201.8,239.6,201.9,239.5z"/>
						</g>
					</g>
				</g>
				<g id="XMLID_225_">
					<g id="XMLID_226_">
						<g id="XMLID_227_">
							<path id="XMLID_228_" class="st7" d="M241.1,227.4c0,0,0.2,0.3,0.4,1c0.2,0.6,0.5,1.6,0.7,2.8c0.5,2.4,0.6,5.8-0.4,9.4
								c-1,3.6-2.9,6.5-4.5,8.3c-0.8,0.9-1.5,1.6-2.1,2c-0.5,0.4-0.8,0.6-0.9,0.6c-0.1-0.1,1.1-1,2.6-2.8c1.5-1.8,3.3-4.7,4.3-8.2
								c1-3.5,0.9-6.9,0.6-9.2C241.5,228.8,241,227.4,241.1,227.4z"/>
						</g>
					</g>
				</g>
				<g id="XMLID_229_">
					<g id="XMLID_230_">
						<g id="XMLID_231_">
							<path id="XMLID_232_" class="st7" d="M285.5,213c0,0,0.2,0.2,0.5,0.7c0.3,0.5,0.6,1.2,1,2.1c0.8,1.8,1.6,4.4,2,7.4
								c0.4,3,0.2,5.7-0.1,7.6c-0.2,1-0.3,1.7-0.5,2.3c-0.1,0.5-0.2,0.8-0.3,0.8c-0.1,0,0.2-1.2,0.4-3.1c0.2-1.9,0.3-4.6-0.1-7.5
								c-0.4-2.9-1.1-5.5-1.8-7.3C286,214.1,285.5,213.1,285.5,213z"/>
						</g>
					</g>
				</g>
			</g>
			<g id="XMLID_233_">
				<g id="XMLID_234_">
					<g id="XMLID_235_">
						<path id="XMLID_236_" class="st11" d="M217.9,99c-1.7-1.7-3.9-2.8-6.2-3.9c-2.2-1.1-4.5-2.1-7-2.4c-6.6-1-12.9,2.7-17.3,6.9
							c-4.4,4.3-7.7,9.3-12.8,13c4.4-0.1,8.8-0.1,13.3-0.2c4-0.1,8.1-0.2,11.7-1.5c4.6-1.7,8.2-6,13.2-6.5c2.5-0.2,5.8,0.4,8.2,1
							C220.8,103.1,219.5,100.6,217.9,99z M204.5,104.2c-0.3,0.2-0.8,0.3-1.2,0.3c-0.3,0-0.7-0.1-1,0c-0.8,0.2-1.2,1.1-1.9,1.5
							c-0.6,0.4-1.3,0.4-1.9,0.1c-0.6-0.4-0.9-1.1-0.6-1.8c0.1-0.3,0.3-0.5,0.5-0.7c0.6-0.6,1.3-1,2-1.3c0.8-0.8,2.1-0.8,3.2-0.5
							c0.7,0.2,1.4,0.7,1.5,1.4C205.1,103.6,204.8,104,204.5,104.2z"/>
					</g>
				</g>
			</g>
			<g id="XMLID_239_">
				<g id="XMLID_240_">
					<g id="XMLID_241_">
						<path id="XMLID_242_" class="st6" d="M190.6,104.4c0,0,0.3-0.2,0.8-0.5c0.5-0.3,1.3-0.9,2.2-1.6c0.9-0.7,2-1.7,3.3-2.8
							c1.4-1,3.1-2,5.2-2.5c1.1-0.3,2.2-0.4,3.4-0.4c1.2,0,2.4,0.2,3.6,0.5c2.5,0.6,5,1.8,7.3,3.5c2.3,1.7,4.4,3.9,6.1,6.5
							c1.7,2.6,3.1,5.5,4.2,8.6c2.2,6.2,3.2,12.3,4.4,17.9c1.1,5.5,2.2,10.5,3,14.7c0.8,4.1,1.5,7.5,2,9.9c0.2,1.1,0.4,2,0.5,2.7
							c0,0.3,0.1,0.5,0.1,0.7c0,0.2,0,0.2,0,0.2c0,0,0-0.1-0.1-0.2c0-0.2-0.1-0.4-0.2-0.7c-0.2-0.7-0.4-1.6-0.6-2.7
							c-0.5-2.4-1.3-5.7-2.2-9.9c-0.9-4.2-2-9.2-3.2-14.7c-1.2-5.5-2.3-11.6-4.4-17.8c-2.1-6.1-5.4-11.6-10-14.8
							c-2.3-1.6-4.7-2.8-7.1-3.4c-2.4-0.6-4.8-0.7-6.8-0.2c-2.1,0.5-3.8,1.4-5.1,2.3c-1.3,1-2.4,2-3.4,2.7c-0.9,0.7-1.7,1.3-2.3,1.6
							c-0.3,0.2-0.5,0.3-0.6,0.3C190.7,104.4,190.6,104.5,190.6,104.4z"/>
					</g>
				</g>
			</g>
			<g id="XMLID_243_">
				<g id="XMLID_244_">
					<path id="XMLID_245_" class="st11" d="M250.1,118.4c-0.8,2.4-0.8,5.2,0.5,7.3c1.3,2.1,3.6,3.1,5.8,4.3c3.3,1.7,6.4,3.7,9.4,6.1
						c0.6-1.3,0.2-2.9-0.4-4.3c-0.5-1.2-0.9-2.4-1.4-3.6c-1.3-3-2.8-6.1-5.4-8.1C256,117.9,252.7,116.5,250.1,118.4"/>
				</g>
			</g>
			<g id="XMLID_246_">
				<g id="XMLID_247_">
					<g id="XMLID_248_">
						<path id="XMLID_249_" class="st6" d="M257.6,124.5c0,0-0.4-0.5-1-1.3c-0.7-0.8-1.7-1.9-3.2-3c-1.5-1.1-3.5-2.1-5.9-2.5
							c-2.4-0.3-5.2,0-7.5,1.6c-2.3,1.6-3.8,3.9-4.9,6.1c-1.1,2.2-1.9,4.3-2.5,6c-0.6,1.8-0.8,3.2-0.9,4.3c-0.1,1-0.1,1.6-0.1,1.6
							c0,0,0-0.1-0.1-0.4c0-0.3,0-0.7,0-1.2c0-1.1,0.2-2.6,0.8-4.4c0.5-1.8,1.3-3.9,2.4-6.1c1.1-2.2,2.6-4.7,5.1-6.3
							c2.4-1.7,5.4-2,7.9-1.6c2.5,0.4,4.6,1.5,6,2.7c1.5,1.2,2.5,2.3,3.1,3.2c0.3,0.4,0.5,0.8,0.7,1
							C257.6,124.3,257.6,124.5,257.6,124.5z"/>
					</g>
				</g>
			</g>
			<g id="XMLID_250_">
				<g id="XMLID_251_">
					<path id="XMLID_252_" class="st11" d="M173.3,169.7c-2-2.1-6-1.5-7.4,1.1c-0.5,1-0.7,2.1-0.8,3.3c-0.1,0.8-0.2,1.7,0,2.5
						c0.1,0.4,0.3,0.8,0.4,1.2c0.1,0.5-0.1,1-0.2,1.5c-0.2,0.8-0.5,1.6-0.4,2.5c0,0.8,0.4,1.7,1.1,2.1c0.3,0.2,0.7,0.2,0.9,0.5
						c0.2,0.3,0.2,0.6,0.2,1c0,1.4,0.1,2.7,0.1,4.1c1.9-1.3,2.9-3.8,2.5-6.1c-0.1-0.7-0.4-1.4-0.4-2.1c0-1.6,1.2-2.9,1.1-4.5
						c-0.1-1.4-1.3-2.6-1.6-4c-0.2-1.1,0.2-2.3,1-3.1c0.9-0.7,2.1-0.9,3.1-0.5"/>
				</g>
			</g>
			<g id="XMLID_253_">
				<g id="XMLID_254_">
					<path id="XMLID_255_" class="st11" d="M228.6,125.4c-1.1-1.5-3-2.4-4.8-2.2s-3.5,1.3-4.4,3c-0.5,1-0.7,2.1-1.4,2.9
						c-1.3,1.4-3.7,1.2-5,2.6c-0.4,0.5-0.7,1.1-0.9,1.7c-0.7,2.3-0.3,4.9,0.9,6.9c0.9,1.5,2.3,2.7,2.7,4.4c0.5,2.2-0.7,4.9,0.7,6.6
						c3.3-3.3,4.5-8.6,2.9-13c-0.2-0.6-0.5-1.1-0.4-1.7c0.2-2,3.2-2.1,4.4-3.7c0.9-1.2,0.7-2.8,0.7-4.3c0.1-1.5,0.9-3.3,2.3-3.2
						c1,0,2.1,0.9,2.7,0.2"/>
				</g>
			</g>
			<g id="XMLID_256_">
				<g id="XMLID_257_">
					<g id="XMLID_258_">
						<path id="XMLID_259_" class="st12" d="M225.8,124.2"/>
					</g>
				</g>
			</g>
			<g id="XMLID_260_">
				<g id="XMLID_261_">
					<path id="XMLID_262_" class="st11" d="M252.6,171.7c-0.4,0.7-0.9,1.7-0.4,2.4c0.2,0.3,0.6,0.5,0.9,0.8c0.6,0.7,0.2,1.7-0.1,2.6
						c-0.3,0.9-0.4,2,0.4,2.4c0.5,0.2,1,0.1,1.5,0.1c0.9,0.1,1.6,0.9,1.8,1.8c0.3,0.9,0.2,1.8,0.1,2.8c1.5-0.8,1.9-2.7,2-4.4
						c0-0.8,0-1.8-0.6-2.3c-0.2-0.2-0.5-0.4-0.8-0.7c-0.5-0.7-0.3-1.7-0.1-2.5c0.2-0.9,0.3-2-0.5-2.4c-0.5-0.3-1.2-0.2-1.5-0.7
						c-0.5-0.7,0.5-1.6-0.2-2"/>
				</g>
			</g>
			<g id="XMLID_263_">
				<g id="XMLID_264_">
					<g id="XMLID_265_">
						<path id="XMLID_266_" class="st11" d="M285.7,179.2c-1.9-5.7-6.8-10.2-12.6-11.5c-2.4-0.5-5-0.5-7,0.9l-0.5,0.2
							c-0.3,3.1-0.6,6.5,1.1,9.1c2.7,4.1,9,4.1,12.1,7.9c2.3,2.8,2.2,7,3.8,10.2C286.4,191.5,287.6,184.9,285.7,179.2z M272,176.2
							c-0.2,0.9-1.1,1.5-2,1.4c-0.9,0-1.7-0.7-2-1.5c-0.3-0.8-0.2-1.8,0.2-2.6l0.1,0.2c0.9-0.7,2.3-0.4,3.1,0.4
							C271.9,174.7,272.2,175.4,272,176.2z"/>
					</g>
				</g>
			</g>
			<g id="XMLID_269_">
				<g id="XMLID_270_">
					<g id="XMLID_271_">
						<g id="XMLID_272_">
							<path id="XMLID_273_" class="st6" d="M279.7,180.5c0,0-0.1-0.2-0.3-0.5c-0.2-0.4-0.5-0.8-0.9-1.4c-0.8-1.2-2-3-3.8-4.9
								c-1.8-1.9-4.5-3.5-7.7-4.7c-1.6-0.6-3.4-1-5.2-1.1c-1.8-0.1-3.8,0.4-5.5,1.3c-3.5,1.9-5.8,5.1-7.7,7.9
								c-1.9,2.9-3.3,5.7-4.3,8.1c-1,2.4-1.6,4.4-2,5.8c-0.4,1.4-0.6,2.2-0.6,2.2c0,0,0-0.2,0.1-0.6c0.1-0.4,0.2-0.9,0.4-1.7
								c0.3-1.4,0.9-3.5,1.9-5.9c1-2.4,2.3-5.3,4.2-8.2c1.9-2.9,4.2-6.1,7.9-8.1c1.8-1,3.8-1.5,5.7-1.4c1.9,0,3.7,0.5,5.4,1.1
								c3.2,1.3,6,2.9,7.8,4.9c1.8,1.9,2.9,3.8,3.7,5c0.4,0.6,0.7,1.1,0.8,1.5C279.6,180.4,279.7,180.5,279.7,180.5z"/>
						</g>
					</g>
				</g>
			</g>
			<g id="XMLID_274_">
				<g id="XMLID_275_">
					<g id="XMLID_276_">
						<path id="XMLID_277_" class="st11" d="M202.9,202.7c0.1,0.1,0.2,0.1,0.2,0.2c0.1,0,0.2-0.1,0.3-0.1L202.9,202.7z"/>
					</g>
				</g>
				<g id="XMLID_278_">
					<g id="XMLID_279_">
						<g id="XMLID_280_">
							<path id="XMLID_281_" class="st11" d="M208.4,226.7c-0.1-1.7-0.5-3.3-0.5-5c-0.1-3.3,0.9-6.6,0.5-9.9
								c-0.4-3.6-2.4-6.9-5.3-8.9c-4.5,1.3-8.4,4.8-10.3,9.2c-2,4.5-1.8,9.9,0.3,14.3c1,2,2.3,3.8,2.5,6c0.2,2.2-0.9,4.2-1.3,6.4
								c-0.7,4.4,1.6,8.7,3.8,12.5c-0.4-2.1,0.5-4.2,1.8-5.9c1.3-1.7,2.9-3.1,4.2-4.7C207.3,236.9,208.8,231.7,208.4,226.7z
								 M204.4,220.7c-0.2,0.4-0.5,0.7-0.9,0.9c-0.4,0.2-0.9,0.2-1.2-0.1c-0.2-0.2-0.4-0.5-0.5-0.7c-0.2-0.4-0.4-0.9-0.5-1.3
								c-0.6-1.9-0.2-4.1,1.1-5.6l0-0.1c0.7-0.1,1.4,0.3,1.9,0.9c0.7,0.8,1.1,1.9,1.1,3C205.4,218.7,205,219.8,204.4,220.7z"/>
						</g>
					</g>
				</g>
			</g>
			<g id="XMLID_284_">
				<g id="XMLID_285_">
					<g id="XMLID_286_">
						<path id="XMLID_287_" class="st6" d="M198.2,219.4c0,0,0-0.2,0-0.6c0-0.4,0.1-1,0.2-1.8c0.2-1.5,0.6-3.7,1.2-6.4
							c0.7-2.7,1.7-5.9,3.6-9.1c1.9-3.1,4.6-6.4,8.5-8.3c3.9-1.9,8.3-2.1,11.7-0.6c3.5,1.5,5.7,4.3,7.1,6.6c1.4,2.4,2.2,4.5,2.8,5.9
							c0.3,0.7,0.5,1.3,0.6,1.7c0.1,0.4,0.2,0.6,0.2,0.6c0,0-0.1-0.2-0.3-0.6c-0.2-0.4-0.4-1-0.7-1.6c-0.6-1.4-1.5-3.5-2.9-5.8
							c-1.4-2.3-3.6-5-6.9-6.3c-3.3-1.4-7.6-1.2-11.3,0.7c-3.8,1.8-6.5,5-8.3,8c-1.9,3.1-2.9,6.2-3.7,8.9c-0.7,2.7-1.1,4.9-1.4,6.4
							c-0.1,0.7-0.2,1.3-0.3,1.8C198.3,219.2,198.3,219.4,198.2,219.4z"/>
					</g>
				</g>
			</g>
			<g id="XMLID_288_">
				<g id="XMLID_289_">
					<g id="XMLID_290_">
						<path id="XMLID_291_" class="st11" d="M149.5,156.1c-6.3,1.3-11.8,5.9-14.4,11.9c-2.6,6-2.3,13.2,0.9,18.9
							c1.7-2.4,2.6-5.4,4-8c1.4-2.7,3.5-5.2,6.3-5.8c2.4-0.5,4.8-0.5,7.2-1.1c2.7-0.6,4.8-2.1,6.4-4.3c1.7-2.3,3.9-3.6,5.7-5.8
							C162.2,156.7,155.4,154.8,149.5,156.1z M142.4,170.1c-0.1,0.2-0.3,0.4-0.5,0.6c-0.4,0.3-1.1,0.2-1.5-0.2
							c-0.4-0.4-0.5-1-0.3-1.5c0.1-0.4,0.5-0.8,0.9-0.7l-0.2,0.3c0.3-0.5,1.1-0.5,1.4,0S142.6,169.6,142.4,170.1z M154.6,167.6
							c-0.7,0.9-1.8,1.5-2.9,1.7c-1.1,0.2-2.3,0.1-3.4-0.1c-0.5-0.1-1.1-0.2-1.5-0.6c-0.5-0.4-0.7-1.2-0.4-1.9
							c0.1-0.1,0.1-0.2,0.2-0.3c0.1-0.1,0.3-0.1,0.4-0.1c0.9,0,1.9,0.1,2.7-0.3c0.7-0.4,1.1-1.1,1.5-1.7c0.3-0.4,0.8-0.9,1.3-1
							c-0.1,0-0.1,0-0.2,0l0.4,0c0.1,0,0.2,0,0.3,0c0.2,0,0.3-0.1,0.5-0.1c0.6,0,1.1,0.4,1.4,1C155.5,165.3,155.3,166.7,154.6,167.6
							z"/>
					</g>
				</g>
			</g>
			<g id="XMLID_295_">
				<g id="XMLID_296_">
					<g id="XMLID_297_">
						<path id="XMLID_298_" class="st6" d="M145,164.3c0,0,0.1-0.1,0.4-0.3c0.2-0.2,0.6-0.5,1.1-0.9c1-0.7,2.5-1.6,4.6-2.3
							c2.1-0.7,4.7-1.2,7.6-1c2.9,0.2,6.1,1,8.9,2.8c2.9,1.8,5,4.3,6.6,6.6c1.6,2.4,2.7,4.8,3.5,6.8c0.8,2,1.3,3.7,1.7,4.9
							c0.2,0.6,0.3,1,0.4,1.3c0.1,0.3,0.1,0.5,0.1,0.5c0,0-0.3-0.6-0.7-1.8c-0.4-1.1-1-2.8-1.8-4.8c-0.8-2-2-4.3-3.6-6.7
							c-1.6-2.3-3.7-4.7-6.5-6.5c-2.8-1.7-5.9-2.6-8.7-2.8c-2.8-0.2-5.4,0.3-7.4,0.9C147,162.4,145,164.4,145,164.3z"/>
					</g>
				</g>
			</g>
			<g id="XMLID_299_">
				<g id="XMLID_300_">
					<path id="XMLID_301_" class="st11" d="M300.9,142.1c2.9,1.8,6.4,2.4,9.7,1.7c2.8-0.6,5.5-2.2,8.2-1.7c2.2,0.4,4,2,6.2,2
						c3,0.1,5.5-2.6,8.5-2.9c2-0.2,4,0.7,5.9,1.6c0.5-2.2-1.1-4.2-2.5-5.9c-3-3.3-6.2-6.8-10.5-7.9c-4.7-1.1-9.6,1-14.5,1
						c-1.1,0-2.3-0.1-3.4,0.1c-1.9,0.4-3.4,1.8-4.8,3.1c-1.2,1.1-2.5,2.4-3,4c-0.4,1.5-0.1,3.1-0.5,4.6"/>
				</g>
			</g>
			<g id="XMLID_302_">
				<g id="XMLID_303_">
					<g id="XMLID_304_">
						<path id="XMLID_305_" class="st6" d="M329.4,136.4c0,0.1-0.8-0.2-2.2-0.6c-1.4-0.4-3.4-0.8-6-0.8c-2.6-0.1-5.6,0.2-8.9,1.1
							c-3.3,0.9-6.7,2.4-10,4.6c-6.6,4.4-11,10.1-13.9,14.3c-1.4,2.1-2.4,4-2.9,5.4c-0.5,1.4-0.6,2.1-0.7,2.1c0,0,0-0.2,0.1-0.6
							c0.1-0.4,0.2-0.9,0.4-1.6c0.4-1.4,1.3-3.3,2.7-5.5c2.8-4.3,7.3-10.2,13.9-14.6c3.3-2.2,6.8-3.7,10.2-4.6
							c3.3-0.9,6.5-1.1,9.1-1c2.6,0.1,4.7,0.6,6.1,1c0.7,0.2,1.2,0.4,1.6,0.6C329.2,136.3,329.4,136.4,329.4,136.4z"/>
					</g>
				</g>
			</g>
		</g>
	</g>
</g>
<g id="Character">
	<g>
		<g id="XMLID_307_">
			<g id="XMLID_308_">
				<g id="XMLID_309_">
					<g id="XMLID_310_">
						<g id="XMLID_311_">
							<g id="XMLID_312_">
								<g id="XMLID_313_">
									<g id="XMLID_314_">
										<g id="XMLID_315_">
											<g id="XMLID_316_">
												<path class="st5" d="M408.7,375l4.9,18.3c0,0-17,11.1-16.4,14.6l35.9-8.2l-6.4-28.9L408.7,375z"/>
											</g>
										</g>
									</g>
								</g>
							</g>
						</g>
					</g>
					<g id="XMLID_317_">
						<g id="XMLID_318_">
							<g id="XMLID_319_">
								<g id="XMLID_320_">
									<g id="XMLID_321_">
										<g id="XMLID_322_">
											<g id="XMLID_323_">
												<g id="XMLID_324_">
													<path class="st1" d="M424.3,389.2c0.7,0,1.4,0.7,1.4,1.4c0,0.7-0.7,1.4-1.4,1.4c-0.7,0-1.6-0.8-1.5-1.5
														c0.1-0.7,0.9-1.5,1.6-1.3"/>
												</g>
											</g>
										</g>
									</g>
								</g>
							</g>
						</g>
					</g>
					<g id="XMLID_325_" class="st13">
						<g id="XMLID_326_">
							<g id="XMLID_327_">
								<g id="XMLID_328_">
									<g id="XMLID_329_">
										<g id="XMLID_330_">
											<g id="XMLID_331_">
												<path class="st9" d="M433,399.7l-0.8-2.9l-34.1,8.9c0,0-1.4,1.1-1,2.1L433,399.7z"/>
											</g>
										</g>
									</g>
								</g>
							</g>
						</g>
					</g>
					<g id="XMLID_332_">
						<g id="XMLID_333_">
							<g id="XMLID_334_">
								<g id="XMLID_335_">
									<g id="XMLID_336_">
										<g id="XMLID_337_">
											<g id="XMLID_338_">
												<g id="XMLID_339_">
													<path class="st6" d="M413,393.3c0,0.2,0.9,0.1,1.9,0.4c1,0.3,1.6,1,1.8,0.9c0.2-0.1-0.3-1.1-1.6-1.5
														C413.9,392.7,412.9,393.1,413,393.3z"/>
												</g>
											</g>
										</g>
									</g>
								</g>
							</g>
						</g>
					</g>
					<g id="XMLID_340_">
						<g id="XMLID_341_">
							<g id="XMLID_342_">
								<g id="XMLID_343_">
									<g id="XMLID_344_">
										<g id="XMLID_345_">
											<g id="XMLID_346_">
												<g id="XMLID_347_">
													<path class="st6" d="M409.6,395.7c0,0.2,0.8,0.3,1.6,0.9c0.8,0.6,1.1,1.3,1.3,1.3c0.2,0,0.1-1.1-0.9-1.8
														C410.6,395.4,409.5,395.5,409.6,395.7z"/>
												</g>
											</g>
										</g>
									</g>
								</g>
							</g>
						</g>
					</g>
					<g id="XMLID_348_">
						<g id="XMLID_349_">
							<g id="XMLID_350_">
								<g id="XMLID_351_">
									<g id="XMLID_352_">
										<g id="XMLID_353_">
											<g id="XMLID_354_">
												<g id="XMLID_355_">
													<path class="st6" d="M408.4,400.7c0.2,0,0.2-0.9-0.5-1.8c-0.7-0.9-1.6-1.1-1.6-0.9c-0.1,0.2,0.6,0.6,1.1,1.3
														C408,400,408.3,400.7,408.4,400.7z"/>
												</g>
											</g>
										</g>
									</g>
								</g>
							</g>
						</g>
					</g>
					<g id="XMLID_356_">
						<g id="XMLID_357_">
							<g id="XMLID_358_">
								<g id="XMLID_359_">
									<g id="XMLID_360_">
										<g id="XMLID_361_">
											<g id="XMLID_362_">
												<g id="XMLID_363_">
													<path class="st6" d="M412.3,389c0.1,0.1,0.9-0.3,1.9-0.4c1-0.2,1.8,0,1.9-0.2c0.1-0.1-0.8-0.6-2-0.4
														C412.9,388.1,412.2,388.9,412.3,389z"/>
												</g>
											</g>
										</g>
									</g>
								</g>
							</g>
						</g>
					</g>
				</g>
			</g>
		</g>
		<g id="XMLID_364_">
			<g id="XMLID_365_">
				<g id="XMLID_366_">
					<g id="XMLID_367_">
						<g id="XMLID_368_">
							<polygon id="XMLID_369_" class="st2" points="368.2,157.5 350.3,220.3 364.3,223 373.6,191.4 							"/>
						</g>
					</g>
					<g id="XMLID_370_">
						<g id="XMLID_371_">
							<g id="XMLID_372_">
								<path id="XMLID_373_" class="st1" d="M368.2,157.5c0.3,1.9,2.3,13.8,5.7,33.8l0,0.1l0,0.1c-2.7,9.2-5.8,20-9.2,31.6
									l-0.1,0.2l-0.2,0c-1.9-0.4-4-0.8-6-1.2c-2.7-0.5-5.4-1.1-8-1.6l-0.3-0.1l0.1-0.3c5-17.7,9.6-33.5,12.9-44.7
									C366.1,164.6,367.8,158.8,368.2,157.5c-0.4,1.3-2,7.2-5.1,18.3c-3.1,11.3-7.5,26.9-12.5,44.5l-0.2-0.3c2.6,0.5,5.3,1,8,1.6
									c2.1,0.4,4.1,0.8,6,1.2l-0.3,0.2c3.4-11.6,6.6-22.4,9.3-31.6l0,0.1C370.3,171.3,368.5,159.4,368.2,157.5z"/>
							</g>
						</g>
					</g>
				</g>
			</g>
			<g id="XMLID_374_">
				<g id="XMLID_375_">
					<path id="XMLID_376_" class="st1" d="M449.2,265.2c0,0-1.3,5.3-8.8,6.3c-22.8,3.1-36.3,20.3-36.3,20.3l5.9-19.2l21.9-15.3
						l14,4.4L449.2,265.2z"/>
				</g>
			</g>
			<g id="XMLID_377_">
				<g id="XMLID_378_">
					<path id="XMLID_379_" class="st6" d="M418.8,310.5c-3.8-15.2-6.5-23.4-6.5-23.4s0.4-64.7,0-70.1c-1-13-8.4-27.9-9.3-29.8
						l-36.1,8.5l2.3,18l9.1,79.1l31.3,90.6l21.5-3.3C431,380.1,422.6,325.7,418.8,310.5z"/>
				</g>
			</g>
			<g id="XMLID_380_">
				<g id="XMLID_381_">
					<g id="XMLID_382_">
						<path id="XMLID_383_" class="st5" d="M384.9,116l1.3,0.3l13.4,3c0,0,2.8,34.2,3.3,38.5c0.5,4.3-5.5,12.8-5.5,12.8
							s5.5,3.3,6.9,7.6c1.5,4.3,0,11.6,0,11.6l-8.1,7.3c-3.3,3-7.3,5.1-11.7,6.2l-17,4.4c0,0-2-37.3-7.2-52.3c-3.5-10,6-31.4,6-31.4
							l11.7-8"/>
					</g>
				</g>
				<g id="XMLID_384_">
					<g id="XMLID_385_">
						<g id="XMLID_386_">
							
								<ellipse id="XMLID_387_" transform="matrix(0.9988 -4.948536e-002 4.948536e-002 0.9988 -7.0431 18.4147)" class="st9" cx="368.4" cy="151.4" rx="8.4" ry="0.3"/>
						</g>
					</g>
				</g>
				<g id="XMLID_388_">
					<g id="XMLID_389_">
						<g id="XMLID_390_">
							
								<ellipse id="XMLID_391_" transform="matrix(0.9956 -9.325312e-002 9.325312e-002 0.9956 -14.2926 35.4162)" class="st9" cx="371.8" cy="170.6" rx="7.4" ry="0.3"/>
						</g>
					</g>
				</g>
				<g id="XMLID_392_">
					<g id="XMLID_393_">
						<g id="XMLID_394_">
							<path id="XMLID_395_" class="st9" d="M382.4,191.1c0,0.1-0.8,0.5-2.1,1c-1.3,0.5-3.3,1.1-5.5,1.4c-2.2,0.3-4.2,0.3-5.6,0.1
								c-1.4-0.1-2.3-0.3-2.3-0.4c0-0.2,3.6,0.3,7.9-0.3C379.1,192.4,382.4,191,382.4,191.1z"/>
						</g>
					</g>
				</g>
			</g>
			<g id="XMLID_396_">
				<g id="XMLID_397_">
					<g id="XMLID_398_">
						<g id="XMLID_399_">
							<g id="XMLID_400_">
								<path id="XMLID_401_" class="st6" d="M363.1,104.9c-2.3-1.1-3.7-3.4-4.6-5.8c-0.8-2.4-1.2-4.9-2.2-7.2
									c-0.7-1.7,0.1-4.5-1.5-5.6c-2-1.3-1.9-4.7-1.2-6.5c0.8-1.9,3.1-3.3,3.2-3.9c0.4-1.6-1-3.2-0.5-4.8c1.2-3.6,4.1-3.1,4.1-3.1
									c1.3-1.6,3.1-3.7,6-4.5c3.2-0.8,7.8-1.4,10.6,0.2c2.8,1.7,4.9,2.8,5.8,5.9"/>
							</g>
						</g>
					</g>
				</g>
				<g id="XMLID_402_">
					<g id="XMLID_403_">
						<g id="XMLID_404_">
							<g id="XMLID_405_">
								<g id="XMLID_406_">
									<g id="XMLID_407_">
										<g id="XMLID_408_">
											<g id="XMLID_409_">
												<g id="XMLID_410_">
													<g id="XMLID_411_">
														<g id="XMLID_412_">
															<g id="XMLID_413_">
																<g id="XMLID_414_">
																	<g id="XMLID_415_">
																		<g id="XMLID_416_">
																			<g id="XMLID_417_">
																				<g id="XMLID_418_">
																					<g id="XMLID_419_">
																						<g id="XMLID_420_">
																							<g id="XMLID_421_">
																								<g id="XMLID_422_">
																									<g id="XMLID_423_">
																										<path class="st14" d="M387.4,74.3c1.7,0.2,2.9,1.6,2.9,3.3l0,0l-1.9,43.4c-0.1,5.1-7.6,8-13.1,7.9l0,0
																											c-5.5-0.1-5.7-2.8-5.8-7.7c-0.1-8.1-0.1-11.2-0.1-11.2c0,0-7-1.2-8.4-10.3c-0.7-4.5-0.5-12-0.1-18.1
																											c0.4-5.5,4-12.2,9.5-11.6L387.4,74.3z"/>
																									</g>
																								</g>
																							</g>
																						</g>
																					</g>
																				</g>
																			</g>
																		</g>
																	</g>
																</g>
															</g>
														</g>
														<g id="XMLID_424_">
															<g id="XMLID_425_">
																<g id="XMLID_426_">
																	<g id="XMLID_427_">
																		<g id="XMLID_428_">
																			<g id="XMLID_429_">
																				<g id="XMLID_430_">
																					<g id="XMLID_431_">
																						<g id="XMLID_432_">
																							<g id="XMLID_433_">
																								<g id="XMLID_434_">
																									<g id="XMLID_435_">
																										<g id="XMLID_436_">
																											<path class="st6" d="M362.7,87.8c0,0.6,0.5,1.1,1.1,1.2c0.6,0,1.2-0.4,1.2-1.1c0-0.6-0.5-1.1-1.1-1.2
																												C363.3,86.7,362.7,87.2,362.7,87.8z"/>
																										</g>
																									</g>
																								</g>
																							</g>
																						</g>
																					</g>
																				</g>
																			</g>
																		</g>
																	</g>
																</g>
															</g>
															<g id="XMLID_437_">
																<g id="XMLID_438_">
																	<g id="XMLID_439_">
																		<g id="XMLID_440_">
																			<g id="XMLID_441_">
																				<g id="XMLID_442_">
																					<g id="XMLID_443_">
																						<g id="XMLID_444_">
																							<g id="XMLID_445_">
																								<g id="XMLID_446_">
																									<g id="XMLID_447_">
																										<g id="XMLID_448_">
																											<g id="XMLID_449_">
																												<path class="st6" d="M362.5,85.4c0.1,0.2,1-0.5,2.3-0.5c1.3,0,2.2,0.6,2.3,0.5c0.1-0.1-0.1-0.3-0.5-0.6
																													c-0.4-0.3-1.1-0.6-1.9-0.6c-0.8,0-1.4,0.3-1.8,0.6C362.6,85.1,362.5,85.4,362.5,85.4z"/>
																											</g>
																										</g>
																									</g>
																								</g>
																							</g>
																						</g>
																					</g>
																				</g>
																			</g>
																		</g>
																	</g>
																</g>
															</g>
														</g>
														<g id="XMLID_450_">
															<g id="XMLID_451_">
																<g id="XMLID_452_">
																	<g id="XMLID_453_">
																		<g id="XMLID_454_">
																			<g id="XMLID_455_">
																				<g id="XMLID_456_">
																					<g id="XMLID_457_">
																						<g id="XMLID_458_">
																							<g id="XMLID_459_">
																								<g id="XMLID_460_">
																									<g id="XMLID_461_">
																										<g id="XMLID_462_">
																											<path class="st6" d="M374.9,87.8c0,0.6,0.5,1.1,1.1,1.2c0.6,0,1.2-0.4,1.2-1.1c0-0.6-0.5-1.1-1.1-1.2
																												C375.5,86.7,374.9,87.2,374.9,87.8z"/>
																										</g>
																									</g>
																								</g>
																							</g>
																						</g>
																					</g>
																				</g>
																			</g>
																		</g>
																	</g>
																</g>
															</g>
															<g id="XMLID_463_">
																<g id="XMLID_464_">
																	<g id="XMLID_465_">
																		<g id="XMLID_466_">
																			<g id="XMLID_467_">
																				<g id="XMLID_468_">
																					<g id="XMLID_469_">
																						<g id="XMLID_470_">
																							<g id="XMLID_471_">
																								<g id="XMLID_472_">
																									<g id="XMLID_473_">
																										<g id="XMLID_474_">
																											<g id="XMLID_475_">
																												<path class="st6" d="M374.9,85.7c0.1,0.2,1-0.5,2.3-0.5c1.3,0,2.2,0.6,2.3,0.5c0.1-0.1-0.1-0.3-0.5-0.6
																													c-0.4-0.3-1.1-0.6-1.9-0.6c-0.8,0-1.4,0.3-1.8,0.6C375,85.3,374.9,85.6,374.9,85.7z"/>
																											</g>
																										</g>
																									</g>
																								</g>
																							</g>
																						</g>
																					</g>
																				</g>
																			</g>
																		</g>
																	</g>
																</g>
															</g>
														</g>
														<g id="XMLID_476_">
															<g id="XMLID_477_">
																<g id="XMLID_478_">
																	<g id="XMLID_479_">
																		<g id="XMLID_480_">
																			<g id="XMLID_481_">
																				<g id="XMLID_482_">
																					<g id="XMLID_483_">
																						<g id="XMLID_484_">
																							<g id="XMLID_485_">
																								<g id="XMLID_486_">
																									<g id="XMLID_487_">
																										<g id="XMLID_488_">
																											<path class="st6" d="M370.3,95c0-0.1-0.8-0.2-2-0.4c-0.3,0-0.6-0.1-0.7-0.3c-0.1-0.2,0.1-0.6,0.2-1
																												c0.3-0.8,0.6-1.6,1-2.4c1.3-3.5,2.3-6.4,2.2-6.4c-0.1-0.1-1.3,2.7-2.7,6.2c-0.3,0.9-0.6,1.7-0.9,2.5
																												c-0.1,0.4-0.3,0.8-0.2,1.3c0.1,0.2,0.3,0.4,0.5,0.5c0.2,0.1,0.4,0.1,0.5,0.1
																												C369.5,95.1,370.3,95.1,370.3,95z"/>
																										</g>
																									</g>
																								</g>
																							</g>
																						</g>
																					</g>
																				</g>
																			</g>
																		</g>
																	</g>
																</g>
															</g>
														</g>
														<g id="XMLID_489_">
															<g id="XMLID_490_">
																<g id="XMLID_491_">
																	<g id="XMLID_492_">
																		<g id="XMLID_493_">
																			<g id="XMLID_494_">
																				<g id="XMLID_495_">
																					<g id="XMLID_496_">
																						<g id="XMLID_497_">
																							<g id="XMLID_498_">
																								<g id="XMLID_499_">
																									<g id="XMLID_500_">
																										<path class="st15" d="M369.4,110c0,0,6.1,0.4,12.2-3.2c0,0-3.1,6.4-12.2,5.6V110z"/>
																									</g>
																								</g>
																							</g>
																						</g>
																					</g>
																				</g>
																			</g>
																		</g>
																	</g>
																</g>
															</g>
														</g>
														<g id="XMLID_501_">
															<g id="XMLID_502_">
																<g id="XMLID_503_">
																	<g id="XMLID_504_">
																		<g id="XMLID_505_">
																			<g id="XMLID_506_">
																				<g id="XMLID_507_">
																					<g id="XMLID_508_">
																						<g id="XMLID_509_">
																							<g id="XMLID_510_">
																								<g id="XMLID_511_">
																									<g id="XMLID_512_">
																										<path class="st15" d="M370.9,98.1c0.5-0.6,1.3-0.9,2-0.8c0.5,0.1,1.1,0.3,1.4,0.8
																											c0.3,0.4,0.4,1.1,0.1,1.5c-0.3,0.5-1.1,0.6-1.7,0.4c-0.6-0.2-1.1-0.6-1.6-1c-0.1-0.1-0.3-0.2-0.4-0.4
																											C370.7,98.4,370.7,98.2,370.9,98.1"/>
																									</g>
																								</g>
																							</g>
																						</g>
																					</g>
																				</g>
																			</g>
																		</g>
																	</g>
																</g>
															</g>
														</g>
														<g id="XMLID_513_">
															<g id="XMLID_514_">
																<g id="XMLID_515_">
																	<g id="XMLID_516_">
																		<g id="XMLID_517_">
																			<g id="XMLID_518_">
																				<g id="XMLID_519_">
																					<g id="XMLID_520_">
																						<g id="XMLID_521_">
																							<g id="XMLID_522_">
																								<g id="XMLID_523_">
																									<g id="XMLID_524_">
																										<g id="XMLID_525_">
																											<path class="st6" d="M374,95.9c-0.2,0-0.2,1.4-1.4,2.3c-1.2,1-2.6,0.8-2.6,1c0,0.1,0.3,0.3,0.9,0.3
																												c0.6,0,1.5-0.2,2.2-0.8c0.7-0.6,1-1.4,1.1-1.9C374.3,96.2,374.1,95.9,374,95.9z"/>
																										</g>
																									</g>
																								</g>
																							</g>
																						</g>
																					</g>
																				</g>
																			</g>
																		</g>
																	</g>
																</g>
															</g>
														</g>
													</g>
												</g>
											</g>
											<g id="XMLID_526_">
												<g id="XMLID_527_">
													<g id="XMLID_528_">
														<g id="XMLID_529_">
															<g id="XMLID_530_">
																<g id="XMLID_531_">
																	<g id="XMLID_532_">
																		<g id="XMLID_533_">
																			<g id="XMLID_534_">
																				<g id="XMLID_535_">
																					<g id="XMLID_536_">
																						<g id="XMLID_537_">
																							<path class="st6" d="M374.4,81.5c0.1,0.3,1.4,0.2,2.9,0.4c1.5,0.2,2.7,0.6,2.9,0.3c0.1-0.1-0.1-0.5-0.6-0.8
																								c-0.5-0.3-1.2-0.6-2.1-0.8c-0.9-0.1-1.7,0-2.2,0.3C374.7,81.1,374.4,81.3,374.4,81.5z"/>
																						</g>
																					</g>
																				</g>
																			</g>
																		</g>
																	</g>
																</g>
															</g>
														</g>
													</g>
												</g>
											</g>
											<g id="XMLID_538_">
												<g id="XMLID_539_">
													<g id="XMLID_540_">
														<g id="XMLID_541_">
															<g id="XMLID_542_">
																<g id="XMLID_543_">
																	<g id="XMLID_544_">
																		<g id="XMLID_545_">
																			<g id="XMLID_546_">
																				<g id="XMLID_547_">
																					<g id="XMLID_548_">
																						<g id="XMLID_549_">
																							<path class="st6" d="M362.3,82c0.2,0.3,1.1,0,2.1,0c1,0,1.9,0.2,2.1-0.1c0.1-0.1,0-0.4-0.4-0.7
																								c-0.4-0.3-1-0.5-1.7-0.5c-0.7,0-1.3,0.3-1.7,0.6C362.3,81.6,362.2,81.9,362.3,82z"/>
																						</g>
																					</g>
																				</g>
																			</g>
																		</g>
																	</g>
																</g>
															</g>
														</g>
													</g>
												</g>
											</g>
										</g>
									</g>
								</g>
							</g>
							<g id="XMLID_550_">
								<g id="XMLID_551_">
									<g id="XMLID_552_">
										<g id="XMLID_553_">
											<g id="XMLID_554_">
												<g id="XMLID_555_">
													<path class="st6" d="M382.4,69.3c0,1.8-0.8,3.6-2.2,4.8s-3.3,1.7-5.1,1.4c-1.4-0.3-2.9-1-4.1-0.2
														c-1.3,0.8-1.3,2.7-2.5,3.7c-1.6,1.4-4.2,0.1-6.2,0.7c-1.6,0.5-2.6,2-3.6,3.2c-1,1.3-2.6,2.5-4.2,2
														c0.1-1.4,0.2-2.9,0.6-4.2c0.4-1.4,1.2-2.7,2.4-3.4c0.7-0.4,1.4-0.7,2-1.2c1.3-1.1,1.6-2.9,2.4-4.4
														c1-1.9,3.1-3.2,5.2-3.5c1.8-0.2,3.6,0.4,5.4-0.1c1.3-0.3,2.4-1.2,3.7-1.4c2.6-0.5,4.9,1.3,6.8,3.2"/>
												</g>
											</g>
										</g>
									</g>
								</g>
							</g>
						</g>
					</g>
					<g id="XMLID_556_">
						<g id="XMLID_557_">
							<g id="XMLID_558_">
								<g id="XMLID_559_">
									<g id="XMLID_560_">
										<g id="XMLID_561_">
											<path class="st6" d="M387.2,89.1c0.3-0.1,1.4,1.5-0.4,1.9c-3.1,0.7-3.5-5.3-2.8-7c-1.1-1-2.2-2-3.1-3.2
												c-0.8-1.3-1.6-4.7-1.4-6.2c-1.1,0.1-5.8-1.5-5.3-1.6c1.1-0.3,3.5-1.1,4.1-2.1c1.3-2.2,3.7-3.6,6.1-3.5s4.7,2,5.2,4.6
												c2.9,0,5.7,1.8,7.1,4.6c1.4,2.7,1.3,6.3-0.3,9c-0.4,0.7-0.9,1.4-0.9,2.2c0,1,0.7,1.8,1.3,2.7c1.4,2.3,1.3,5.4,0.2,7.9
												c-1.1,2.5-1.9,3.4-3.5,3.9c-3.1,1,0.5,7.4-4.7,7.4"/>
										</g>
									</g>
								</g>
							</g>
						</g>
					</g>
					<g id="XMLID_562_">
						<g id="XMLID_563_">
							<g id="XMLID_564_">
								<g id="XMLID_565_">
									<g id="XMLID_566_">
										<g id="XMLID_567_">
											<g id="XMLID_568_">
												<g id="XMLID_569_">
													<g id="XMLID_570_">
														<g id="XMLID_571_">
															<g id="XMLID_572_">
																<g id="XMLID_573_">
																	<g id="XMLID_574_">
																		<g id="XMLID_575_">
																			<g id="XMLID_576_">
																				<g id="XMLID_577_">
																					<path class="st14" d="M387.1,91.6c0.1-1.9,2.2-3.2,3.9-2.3c0.9,0.5,1.6,1.6,1.5,3.7c-0.2,5.5-5.7,4.1-5.7,4
																						C386.8,96.9,387,93.8,387.1,91.6z"/>
																				</g>
																			</g>
																		</g>
																	</g>
																</g>
															</g>
														</g>
													</g>
												</g>
											</g>
										</g>
									</g>
								</g>
							</g>
						</g>
						<g id="XMLID_578_">
							<g id="XMLID_579_">
								<g id="XMLID_580_">
									<g id="XMLID_581_">
										<g id="XMLID_582_">
											<g id="XMLID_583_">
												<g id="XMLID_584_">
													<g id="XMLID_585_">
														<g id="XMLID_586_">
															<g id="XMLID_587_">
																<g id="XMLID_588_">
																	<g id="XMLID_589_">
																		<g id="XMLID_590_">
																			<g id="XMLID_591_">
																				<g id="XMLID_592_">
																					<g id="XMLID_593_">
																						<path class="st15" d="M388.6,94.9c0,0,0.1,0.1,0.3,0.2c0.2,0.1,0.4,0.1,0.7,0c0.6-0.2,1.1-1.1,1.2-2.1
																							c0-0.5-0.1-1-0.2-1.4c-0.2-0.4-0.4-0.7-0.7-0.8c-0.3-0.1-0.5,0.1-0.6,0.2c-0.1,0.2,0,0.3-0.1,0.3
																							c0,0-0.1-0.1-0.1-0.3c0-0.1,0.1-0.2,0.2-0.3c0.1-0.1,0.3-0.1,0.5-0.1c0.4,0,0.8,0.5,1,0.9
																							c0.2,0.4,0.3,1,0.3,1.5c-0.1,1.1-0.7,2.1-1.5,2.3c-0.4,0.1-0.7,0-0.9-0.2C388.6,95.1,388.6,95,388.6,94.9z"/>
																					</g>
																				</g>
																			</g>
																		</g>
																	</g>
																</g>
															</g>
														</g>
													</g>
												</g>
											</g>
										</g>
									</g>
								</g>
							</g>
						</g>
					</g>
				</g>
				<g id="XMLID_594_">
					<g id="XMLID_595_">
						<g id="XMLID_596_">
							<g id="XMLID_597_">
								<g id="XMLID_598_">
									<path id="XMLID_599_" class="st11" d="M395.3,87.3c0,0,0.2-0.3,0.4-0.9c0.2-0.6,0.5-1.5,0.5-2.6c0-1.1-0.4-2.4-1.4-3.5
										c-0.5-0.5-1.1-1-1.8-1.3c-0.7-0.3-1.5-0.5-2.4-0.5c-1.7-0.1-3.4,0.2-4.9,0c-1.5-0.2-2.8-0.8-3.7-1.5
										c-0.9-0.7-1.5-1.5-1.8-2c-0.3-0.6-0.4-0.9-0.4-0.9c0.1-0.1,0.6,1.3,2.4,2.7c0.9,0.6,2.1,1.2,3.6,1.4c1.5,0.2,3.1-0.1,4.9,0
										c0.9,0,1.8,0.2,2.5,0.6c0.8,0.4,1.4,0.9,1.9,1.4c1,1.2,1.4,2.6,1.4,3.8c0,1.2-0.3,2.1-0.6,2.6
										C395.6,87.1,395.3,87.3,395.3,87.3z"/>
								</g>
							</g>
						</g>
					</g>
				</g>
				<g id="XMLID_600_">
					<g id="XMLID_601_">
						<g id="XMLID_602_">
							<g id="XMLID_603_">
								<g id="XMLID_604_">
									<path id="XMLID_605_" class="st11" d="M395.3,75.1c0,0.1-0.8-0.6-2.3-0.7c-0.7,0-1.6,0.1-2.5,0.4c-0.9,0.3-1.9,0.8-3,1.1
										c-1.1,0.4-2.3,0.5-3.3,0.3c-1-0.2-1.9-0.6-2.5-1c-0.6-0.4-1.1-0.9-1.4-1.2c-0.3-0.3-0.4-0.5-0.4-0.6
										c0.1-0.1,0.6,0.7,1.9,1.5c0.6,0.4,1.5,0.7,2.4,0.8c1,0.1,2,0,3.1-0.3c1.1-0.3,2.1-0.8,3-1.1c1-0.3,1.9-0.4,2.7-0.4
										c0.8,0.1,1.4,0.3,1.7,0.5C395.1,74.9,395.3,75.1,395.3,75.1z"/>
								</g>
							</g>
						</g>
					</g>
				</g>
				<g id="XMLID_606_">
					<g id="XMLID_607_">
						<g id="XMLID_608_">
							<g id="XMLID_609_">
								<g id="XMLID_610_">
									<path id="XMLID_611_" class="st11" d="M358.3,70.8c0,0,0.1,0.4,0.6,0.9c0.5,0.5,1.4,1,2.7,0.9c1.2,0,2.6-0.8,3.8-1.9
										c1.2-1.1,2.4-2.6,4.3-3.5c0.9-0.4,1.9-0.6,2.9-0.4c0.9,0.1,1.8,0.5,2.5,1c1.5,0.9,2.4,2.2,3,3.3c0.6,1.1,1,2.1,1.2,2.8
										c0.2,0.7,0.4,1,0.3,1.1c0,0-0.2-0.3-0.5-1c-0.3-0.6-0.7-1.6-1.4-2.7c-0.6-1.1-1.6-2.3-3-3.2c-0.7-0.4-1.5-0.8-2.4-0.9
										c-0.9-0.1-1.8,0-2.6,0.4c-1.7,0.8-2.9,2.3-4.2,3.4c-1.3,1.1-2.7,1.9-4,2c-1.3,0-2.3-0.5-2.8-1.1c-0.3-0.3-0.4-0.5-0.4-0.7
										C358.3,70.9,358.3,70.8,358.3,70.8z"/>
								</g>
							</g>
						</g>
					</g>
				</g>
				<g id="XMLID_612_">
					<g id="XMLID_613_">
						<g id="XMLID_614_">
							<g id="XMLID_615_">
								<g id="XMLID_616_">
									<path id="XMLID_617_" class="st11" d="M377.3,65.3c0,0,0.5,0.3,1.1,1c0.6,0.7,1.2,1.9,1.5,3.3c0.3,1.4,0.2,2.7-0.1,3.6
										c-0.2,0.9-0.6,1.4-0.6,1.4c-0.1,0,0.1-0.6,0.3-1.4c0.2-0.9,0.2-2.1-0.1-3.5c-0.3-1.3-0.9-2.4-1.4-3.2
										C377.7,65.7,377.3,65.3,377.3,65.3z"/>
								</g>
							</g>
						</g>
					</g>
				</g>
			</g>
			<g id="XMLID_618_">
				<g id="XMLID_619_">
					<g id="XMLID_620_">
						<path class="st5" d="M287.5,58.9c0,0-7.5,3.3-6.9,9.1c0.6,5.9,2.5,11.2,2.5,11.2s-11.8-9-23.4-5.4l-0.1,2.7
							c0,0,8.3-1,15.4,2.9c7.1,3.9,16.4,18,16.4,18l23.4-10.5l-5.5-9c0,0,0.8-8.5,0.9-10.9C310.3,63.3,305.8,49.2,287.5,58.9z
							 M307.1,64.8c0.2,2.1-1.5,5.2-1.5,5.2l-2.5-5.7l-18.6,6.4c0,0-3.3-5.5,3.4-9.2c4-2.1,8.3-2.3,11.2-2.5c2.7-0.1,5.3,1,6.9,3.2
							C306.6,63,307,63.8,307.1,64.8z"/>
					</g>
				</g>
				<g id="XMLID_621_">
					<g id="XMLID_622_">
						<path id="XMLID_623_" class="st14" d="M310,55.1l-10.1-0.5l-8.3,3.6c0,0,0.4,1.3,1.2,1.2c1.4-0.2,4.7-1.3,4.7-1.3l-2.6,2.3
							l-0.1,1.7c0,0,2.6,3.2,3.1,2.8c0.5-0.3,0.9-1.5,0.9-1.5l1.8,2.6h2.8l1.3-1.8l1.4,1.1c0,0,3.5,3.2,5.6,2.5
							c1.2-0.4,3.3,4.9,3.3,4.9l7.7-4.9l-5.1-6.4L310,55.1z"/>
					</g>
				</g>
				<g id="XMLID_624_">
					<g id="XMLID_625_">
						<g id="XMLID_626_">
							<path id="XMLID_627_" class="st15" d="M306.4,58.3c0,0.1-0.7,0.2-1.8,0.2c-0.6,0-1.2,0.1-1.9,0.1c-0.4,0-0.7,0.1-1,0.2
								c-0.3,0.2-0.6,0.3-1,0.6c-0.7,0.5-1.3,0.9-1.9,1.4c-0.6,0.4-1,0.8-0.9,1.3c0.3,1,0.7,1.5,0.7,1.6c0,0-0.6-0.4-1-1.5
								c-0.1-0.3-0.1-0.7,0.2-1c0.2-0.3,0.5-0.5,0.8-0.8c0.6-0.5,1.2-1,1.9-1.4c0.3-0.2,0.7-0.4,1.1-0.6c0.4-0.1,0.8-0.2,1.2-0.2
								c0.7,0,1.3,0,1.9,0C305.8,58.1,306.4,58.2,306.4,58.3z"/>
						</g>
					</g>
				</g>
				<g id="XMLID_628_">
					<g id="XMLID_629_">
						<g id="XMLID_630_">
							<path id="XMLID_631_" class="st15" d="M303.3,66.2c-0.1,0,0.2-0.5,0.6-1.3c0.1-0.2,0.2-0.4,0.3-0.6c0-0.1,0.1-0.2,0.1-0.3
								c0,0,0,0,0,0c0,0,0,0,0-0.1c0,0-0.1-0.1-0.1-0.1c-0.3-0.3-0.9-0.3-1.5,0c-0.1,0.1-0.3,0.1-0.4,0.2l-0.3,0.2l-0.1-0.4
								c-0.1-0.3-0.1-0.7-0.2-1c-0.1-0.3-0.2-0.5-0.4-0.6l-0.7-0.1l0.6-0.3c0.6-0.3,1.2-0.5,1.5-0.7c0.2-0.1,0.3-0.1,0.5-0.1
								c0.1,0,0.2,0,0.2,0.1c0,0-0.2,0.1-0.5,0.3c-0.3,0.2-0.8,0.5-1.5,0.8l-0.1-0.4c0.5,0.1,0.7,0.5,0.8,0.9
								c0.1,0.4,0.2,0.7,0.3,1.1l-0.4-0.2c0.1-0.1,0.3-0.2,0.4-0.2c0.3-0.1,0.7-0.3,1.1-0.3c0.4,0,0.7,0.2,1,0.5
								c0.1,0.1,0.1,0.2,0.2,0.2c0,0,0,0.1,0.1,0.1c0,0.1,0,0.2,0,0.2c0,0.2-0.1,0.3-0.2,0.4c-0.1,0.2-0.3,0.4-0.4,0.6
								C303.7,65.8,303.3,66.2,303.3,66.2z"/>
						</g>
					</g>
				</g>
				<g id="XMLID_632_">
					<g id="XMLID_633_">
						<g id="XMLID_634_">
							<path id="XMLID_635_" class="st15" d="M306,56.1c0,0.1-2.4,0.3-5.6,0.3l0.2-0.1c-0.2,0.2-0.4,0.3-0.6,0.5
								c-1.4,1.1-2.6,2-3.6,2.7c-0.9,0.6-1.5,1-1.6,1c-0.1-0.1,2.1-1.9,4.8-4.1c0.2-0.2,0.4-0.3,0.5-0.4l0.1-0.1l0.1,0
								C303.6,55.8,306,56,306,56.1z"/>
						</g>
					</g>
				</g>
			</g>
			<g id="XMLID_636_">
				<g id="XMLID_637_">
					<g id="XMLID_638_">
						<path id="XMLID_639_" class="st2" d="M256.3,76.5c-7.6,0-15,4.7-18.4,11.6c-0.8,1.6-1.3,3.3-1,5.1c0.4,1.7,1.9,3.3,3.7,3.1
							c1.2-0.1,2.2-1,3-1.9c2.3-2.8,3.2-6.5,4.6-9.9c1.4-3.4,3.6-6.9,7.1-7.9"/>
					</g>
				</g>
				<g id="XMLID_640_">
					<g id="XMLID_641_">
						<path id="XMLID_642_" class="st2" d="M256.6,92.5c-0.3-1.1-0.8-2.2-1.2-3.2c-0.7-1.9-1.3-3.8-1.5-5.8l-0.5,0.4
							c-2,2.8-2.9,6.4-2.5,9.8c0.1,0.8,0.3,1.7,0.8,2.4c0.4,0.7,1.2,1.3,2,1.4c1.1,0.2,2.3-0.6,2.8-1.7
							C256.9,94.9,256.9,93.7,256.6,92.5z"/>
					</g>
				</g>
				<g id="XMLID_643_">
					<g id="XMLID_644_">
						<path id="XMLID_645_" class="st2" d="M246.3,100.8c-1.2,0.8-2.4,1.6-3.3,2.8c-0.9,1.1-1.4,2.7-0.9,4.1
							c0.5,1.4,2.1,2.4,3.4,1.8c1.5-0.6,1.8-2.7,1.6-4.3c-0.3-1.6-0.9-3.3-0.5-4.8"/>
					</g>
				</g>
			</g>
			<g id="XMLID_646_">
				<g id="XMLID_647_">
					<g id="XMLID_648_">
						<g id="XMLID_649_">
							<path id="XMLID_650_" class="st2" d="M408.2,187.2c0,0,0-0.1-0.1-0.1C408.2,187.2,408.2,187.2,408.2,187.2l-7.3-18.3l2.3-8.8
								l-3.5-40.9l0,0l-9.4-5.6l-0.4-3.6l-2.6,0.4l-4.3,3.9l0,0l-35.4-15.8l-23.1-31.9l-11,6.6l21.2,40.3l40.1,22.9l-0.1,0.3
								c0.4,0.2,17.7,144.1,25.1,144.5c7.4,0.4,20.1-18.4,35.1-18.9c9.7-0.3,13.1,1.5,14.3,2.7C444.1,255.4,409,188.6,408.2,187.2z"
								/>
						</g>
					</g>
					<g id="XMLID_651_">
						<g id="XMLID_652_">
							<g id="XMLID_653_">
								<path id="XMLID_654_" class="st1" d="M408.2,187.2c0,0,0.3,0.5,0.7,1.4c0.5,0.9,1.2,2.3,2.1,4c1.9,3.5,4.6,8.8,8.2,15.5
									c7.1,13.5,17.4,32.9,30.1,57l0.6,1.2l-0.9-0.9c-1.1-1.1-2.6-1.6-4.2-2c-1.6-0.4-3.2-0.5-4.8-0.6c-3.3-0.1-6.7-0.3-9.9,0.7
									c-3.3,0.9-6.4,2.6-9.4,4.5c-3,2-5.8,4.2-8.7,6.5c-1.4,1.2-2.9,2.3-4.4,3.4c-1.5,1.1-3.1,2.2-4.9,3c-0.9,0.4-1.9,0.7-2.9,0.6
									c-0.3,0-0.6-0.1-0.8-0.3c-0.2-0.2-0.4-0.4-0.5-0.6c-0.3-0.4-0.5-0.9-0.7-1.3c-0.8-1.8-1.4-3.7-1.9-5.6
									c-2.1-7.6-3.6-15.5-5.1-23.6c-2.9-16.3-5.5-33.4-8.1-51.1c-2.5-17.7-5-36.1-7.5-54.9c-0.2-1.2-0.3-2.4-0.5-3.7l-0.2-1.8
									l-0.1-0.9l-0.1-0.5l0-0.2l0-0.1l0,0c0,0,0,0,0,0c0,0,0.1,0.1,0.1,0.1l-0.1-0.3l0.1-0.3l0.1,0.3
									c-13.7-7.8-27.1-15.5-40.1-22.9l-0.1,0l0-0.1c-7.3-13.9-14.4-27.4-21.2-40.3l-0.1-0.2l0.2-0.1c3.7-2.2,7.4-4.4,11-6.6
									l0.2-0.1l0.1,0.2c8.1,11.2,15.8,21.8,23.1,31.9l-0.1-0.1c12.7,5.7,24.5,10.9,35.4,15.8l-0.3,0.2l0,0l0-0.1l0.1-0.1
									c1.5-1.4,2.9-2.7,4.3-3.9l0,0l0.1,0c0.9-0.2,1.8-0.3,2.6-0.4l0.2,0l0,0.2c0.2,1.3,0.3,2.5,0.4,3.6l-0.1-0.1
									c3.4,2,6.4,3.9,9.4,5.6l0,0l0.1,0.1c1.4,16.5,2.6,30.2,3.5,40.9l0,0l0,0c-1,3.6-1.7,6.3-2.3,8.8l0-0.1
									c2.3,5.9,4.1,10.4,5.3,13.5C407.5,185.5,408.2,187.1,408.2,187.2L408.2,187.2L408.2,187.2c-0.1-0.1-0.1-0.1-0.1-0.1l0,0
									C408.2,187.2,408.2,187.2,408.2,187.2c0,0,0,0-0.1-0.1l0,0C408.1,187.1,408.1,187.1,408.2,187.2L408.2,187.2
									c-0.1-0.1-0.7-1.7-2-4.8c-1.2-3.1-3-7.5-5.4-13.4l0,0l0,0c0.6-2.5,1.4-5.2,2.3-8.8l0,0c-0.9-10.7-2.1-24.4-3.6-40.9l0.1,0.1
									l0,0l0,0c-2.9-1.8-6-3.6-9.4-5.6l-0.1,0l0-0.1c-0.1-1.2-0.3-2.3-0.5-3.6l0.2,0.2c-0.8,0.1-1.6,0.3-2.6,0.4l0.1,0
									c-1.4,1.2-2.7,2.5-4.2,3.9l0.1-0.2l0,0l0.1,0.4l-0.4-0.2c-10.9-4.8-22.7-10.1-35.4-15.7l-0.1,0l0-0.1
									c-7.3-10.1-15-20.7-23.2-31.9l0.3,0.1c-3.6,2.2-7.3,4.4-11,6.6l0.1-0.3c6.8,12.9,13.9,26.4,21.3,40.3l-0.1-0.1
									c13,7.4,26.4,15.1,40.1,22.9l0.2,0.1l-0.1,0.2l-0.1,0.3l-0.1-0.3c0.1,0,0.1,0.1,0.1,0.2l0,0.1l0,0.1l0,0.1l0,0.2l0.1,0.5
									l0.1,0.9l0.2,1.8c0.2,1.2,0.3,2.4,0.5,3.7c2.5,18.8,4.9,37.2,7.4,54.9c2.5,17.7,5.1,34.8,8,51.1c1.5,8.1,3,16,5,23.6
									c0.5,1.9,1.1,3.7,1.9,5.5c0.2,0.4,0.4,0.9,0.7,1.2c0.3,0.4,0.6,0.7,0.9,0.7c0.9,0,1.8-0.2,2.7-0.6c1.7-0.7,3.3-1.8,4.8-2.9
									c1.5-1.1,2.9-2.3,4.4-3.4c2.9-2.3,5.7-4.6,8.7-6.5c3-2,6.1-3.6,9.5-4.6c1.7-0.5,3.4-0.7,5.1-0.8c1.7,0,3.4,0,5,0.1
									c1.7,0.1,3.3,0.3,4.9,0.7c1.6,0.4,3.2,0.9,4.4,2.1l-0.3,0.2c-12.6-24.1-22.9-43.6-29.9-57.1c-3.5-6.7-6.3-12-8.1-15.5
									c-0.9-1.8-1.6-3.1-2.1-4C408.4,187.7,408.2,187.2,408.2,187.2z"/>
							</g>
						</g>
					</g>
				</g>
				<g id="XMLID_655_">
					<g id="XMLID_656_">
						<g id="XMLID_657_">
							<path id="XMLID_658_" class="st6" d="M388.6,142.1c0,0.1-0.9,0.2-2.3-0.3c-1.4-0.5-3.2-1.2-5.2-2.2c-2-0.9-3.7-1.8-5-2.5
								c-1.3-0.6-2.1-1-2-1.1c0-0.1,0.9,0.2,2.2,0.8c1.3,0.5,3.1,1.4,5.1,2.3c2,0.9,3.8,1.8,5.1,2.3
								C387.7,142,388.6,142,388.6,142.1z"/>
						</g>
					</g>
				</g>
				<g id="XMLID_659_">
					<g id="XMLID_660_">
						<g id="XMLID_661_">
							<path id="XMLID_662_" class="st6" d="M397.7,128.8c-0.1,0,0-1.3-0.6-3.2c-0.6-1.9-1.9-4.4-4.4-6.1c-2.5-1.8-5.1-2.8-6.9-3.8
								c-1.8-0.9-2.9-1.6-2.8-1.7c0-0.1,1.1,0.5,3,1.3c1.8,0.8,4.4,1.9,7,3.7c2.6,1.8,4,4.5,4.5,6.5c0.2,1,0.3,1.8,0.3,2.4
								C397.8,128.5,397.8,128.8,397.7,128.8z"/>
						</g>
					</g>
				</g>
				<g id="XMLID_663_">
					<g id="XMLID_664_">
						<g id="XMLID_665_">
							<path id="XMLID_666_" class="st6" d="M398.8,177.5c-0.1,0,0-2.1,0.5-4.5c0.5-2.5,1.2-4.4,1.3-4.3c0.1,0-0.3,2-0.8,4.4
								C399.3,175.6,398.9,177.6,398.8,177.5z"/>
						</g>
					</g>
				</g>
				<g id="XMLID_667_">
					<g id="XMLID_668_">
						<g id="XMLID_669_">
							<path id="XMLID_670_" class="st6" d="M405.2,197.2c0,0-0.4,0.8-1.4,1.7c-1,0.9-2.7,1.9-4.7,2.5c-2,0.5-4,0.5-5.3,0.2
								c-1.3-0.3-2.1-0.7-2.1-0.7c0-0.1,0.8,0.2,2.1,0.4c1.3,0.2,3.2,0.2,5.1-0.3c2-0.5,3.6-1.4,4.6-2.2
								C404.6,197.8,405.1,197.2,405.2,197.2z"/>
						</g>
					</g>
				</g>
				<g id="XMLID_671_">
					<g id="XMLID_672_">
						<g id="XMLID_673_">
							<path id="XMLID_674_" class="st6" d="M435,251.4c0,0-0.5,0.1-1.4,0.2c-0.5,0.1-1,0.1-1.7,0.1c-0.6,0-1.4,0.1-2.2,0.1
								c-1.6,0-3.6-0.1-5.7-0.4c-2.1-0.3-4.5-0.8-6.8-1.5c-2.4-0.8-4.6-1.7-6.5-2.7c-1.9-1-3.6-2-4.9-2.9c-0.7-0.4-1.2-0.9-1.8-1.3
								c-0.5-0.4-0.9-0.8-1.3-1.1c-0.7-0.6-1-1-1-1c0.1-0.1,1.6,1.3,4.3,3c1.3,0.9,3,1.9,4.9,2.8c1.9,0.9,4.1,1.8,6.4,2.6
								c2.3,0.7,4.6,1.2,6.7,1.6c2.1,0.3,4,0.5,5.6,0.5C433,251.5,435,251.3,435,251.4z"/>
						</g>
					</g>
				</g>
				<g id="XMLID_675_">
					<g id="XMLID_676_">
						<g id="XMLID_677_">
							<path id="XMLID_678_" class="st6" d="M449.5,265.4c0,0-0.1-0.1-0.4-0.3c-0.2-0.2-0.6-0.5-1-0.8c-0.9-0.6-2.4-1.3-4.4-1.7
								c-1.9-0.5-4.3-0.6-7-0.5c-2.6,0.2-5.5,0.6-8.4,1.6c-5.8,2-10.2,5.6-13.3,8.2c-1.5,1.3-2.7,2.3-3.6,3.1
								c-0.9,0.7-1.3,1.1-1.4,1.1c0,0,0.4-0.5,1.2-1.3c0.8-0.8,2-1.9,3.5-3.3c1.5-1.3,3.4-2.9,5.6-4.4c2.2-1.5,4.8-3,7.8-4
								c2.9-1,5.9-1.5,8.6-1.6c2.7-0.1,5.1,0.1,7.1,0.6c2,0.5,3.5,1.3,4.4,2c0.5,0.3,0.8,0.6,1,0.9
								C449.4,265.2,449.5,265.4,449.5,265.4z"/>
						</g>
					</g>
				</g>
			</g>
			<g id="XMLID_679_">
				<g id="XMLID_680_">
					<g id="XMLID_681_">
						<path id="XMLID_682_" class="st6" d="M411.5,215.9c0,0,0,0.1-0.1,0.3c-0.1,0.2-0.3,0.5-0.5,0.8c-0.5,0.7-1.4,1.5-2.7,2.2
							c-1.3,0.7-3,1.3-5,1.1c-2-0.1-4-1.1-5.7-2.6c-1.7-1.5-2.9-3.4-3.6-5.2c-0.8-1.8-1.2-3.5-1.5-4.9c-0.3-1.4-0.4-2.6-0.5-3.4
							c-0.1-0.8-0.1-1.3-0.1-1.3c0,0,0.1,0.4,0.3,1.2c0.2,0.8,0.4,1.9,0.7,3.3c0.3,1.4,0.8,3.1,1.6,4.8c0.8,1.7,1.9,3.5,3.5,5
							c1.6,1.4,3.5,2.3,5.4,2.5c1.9,0.2,3.5-0.3,4.8-0.9C410.6,217.5,411.4,215.8,411.5,215.9z"/>
					</g>
				</g>
			</g>
		</g>
		<g id="XMLID_683_">
			<g id="XMLID_684_">
				<polygon id="XMLID_685_" class="st11" points="341.2,232.4 322.2,475.8 334.5,475.5 355.9,232.2 				"/>
			</g>
			<g id="XMLID_686_">
				<g id="XMLID_687_">
					<polygon id="XMLID_688_" class="st11" points="359.8,232.2 345.3,232.4 417.2,475.5 431.4,475.5 					"/>
				</g>
			</g>
			<g id="XMLID_689_">
				<polygon id="XMLID_690_" class="st11" points="342.3,344.4 382.1,344.4 385.5,353.8 339.6,353.8 				"/>
			</g>
		</g>
		<g id="XMLID_691_">
			<path id="XMLID_692_" class="st14" d="M352.1,226.4l-11.7,1.3l-7.2,4.5c0,0-0.1,1.5,1.9,1.2l4-1.7l-3.2,3.5c0,0,0.8,1.4,2.5,0.4
				c1.8-1,2.8-2.5,2.8-2.5l7.1-0.5c0,0-5.3,5.1-4.4,6.5c1,1.3,1.6,1.1,2.4,0.6c0.8-0.5,1.2-2.2,3-2.7c1.8-0.6,4.7-2.2,7.8-3.7
				c2.7-1.3,5.4-10.4,5.4-10.4l-9-1.8L352.1,226.4z"/>
			<g id="XMLID_693_">
				<path id="XMLID_694_" class="st15" d="M347.4,229.4c0,0.1-3,0.7-6.7,1.3l-0.1,0l0.2-0.1c-2.6,2.7-4.8,4.7-4.9,4.6
					c-0.1-0.1,1.9-2.3,4.5-5l0.1-0.1l0.1,0l0.1,0C344.4,229.6,347.4,229.3,347.4,229.4z"/>
			</g>
		</g>
	</g>
</g>
<g id="Floor">
	<g id="XMLID_306_">
		<g id="XMLID_695_">
			<g id="XMLID_696_">
				<path id="XMLID_697_" class="st6" d="M452.6,475.5c0,0.2-94.5,0.3-211.1,0.3c-116.6,0-211.1-0.1-211.1-0.3
					c0-0.2,94.5-0.3,211.1-0.3C358.1,475.2,452.6,475.3,452.6,475.5z"/>
			</g>
		</g>
	</g>
</g>
</svg>
