<?xml version="1.0" encoding="iso-8859-1"?>
<!-- Generator: Adobe Illustrator 19.0.0, SVG Export Plug-In . SVG Version: 6.00 Build 0)  -->
<svg version="1.1" id="Capa_1" xmlns="http://www.w3.org/2000/svg" xmlns:xlink="http://www.w3.org/1999/xlink" x="0px" y="0px"
	 viewBox="0 0 512 512" style="enable-background:new 0 0 512 512;" xml:space="preserve">
<g>
	<path style="fill:#FCC69D;" d="M55.958,302.922l-3.768-3.768c-56.251-56.251-56.251-147.452,0-203.703l0,0
		c56.251-56.251,147.452-56.251,203.703,0l0.184,0.184l0.189,0.189l60.605,85.11l112.725,112.724
		c10.812,10.812,10.812,28.342,0,39.154l0,0c-10.812,10.812-28.342,10.812-39.154,0l-41.627-41.627l41.627,41.627
		c10.812,10.812,10.812,28.342,0,39.155l0,0c-10.812,10.812-28.342,10.812-39.154,0l-41.627-41.627l41.627,41.627
		c10.812,10.812,10.812,28.342,0,39.154l0,0c-10.812,10.812-28.342,10.812-39.154,0l-41.627-41.627l-0.354,0.354l41.627,41.627
		c10.812,10.812,10.812,28.342,0,39.154l0,0c-10.812,10.812-28.342,10.812-39.155,0l-23.634-23.634L55.958,302.922z"/>
	<path style="fill:#FCC69D;" d="M353.386,155.424l-8.167,8.167c-11.068,11.068-26.08,17.287-41.733,17.287h-39.396l-30.16,30.16
		c-12.876,12.876-33.753,12.876-46.629,0l0,0c-12.876-12.876-12.876-33.753,0-46.629l68.854-68.854
		c56.251-56.251,147.452-56.251,203.703,0l0,0c56.251,56.251,56.251,147.452,0,203.703l-19.394,19.394l-4.748-15.729
		l-117.88-117.879"/>
	<path style="fill:#FCC69D;" d="M203.705,389.339l-17.235,17.235c-10.812,10.812-10.812,28.342,0,39.154l0,0
		c10.812,10.812,28.342,10.812,39.154,0l17.235-17.235c10.812-10.812,10.812-28.342,0-39.154l0,0
		C232.048,378.527,214.518,378.527,203.705,389.339z"/>
	<path style="fill:#FCC69D;" d="M164.551,350.186l-17.235,17.235c-10.812,10.812-10.812,28.342,0,39.155l0,0
		c10.812,10.812,28.342,10.812,39.154,0l17.235-17.235c10.812-10.812,10.812-28.342,0-39.154l0,0
		C192.893,339.374,175.363,339.374,164.551,350.186z"/>
	<path style="fill:#FCC69D;" d="M125.397,311.031l-17.235,17.235c-10.812,10.812-10.812,28.342,0,39.154l0,0
		c10.812,10.812,28.342,10.812,39.154,0l17.235-17.235c10.812-10.812,10.812-28.342,0-39.154l0,0
		C153.739,300.219,136.209,300.219,125.397,311.031z"/>
	<path style="fill:#FCC69D;" d="M86.243,271.877l-17.235,17.235c-10.812,10.812-10.812,28.342,0,39.154l0,0
		c10.812,10.812,28.342,10.812,39.154,0l17.235-17.235c10.812-10.812,10.812-28.342,0-39.155l0,0
		C114.585,261.064,97.055,261.064,86.243,271.877z"/>
</g>
<path d="M460.689,85.169c-2.64,0-5.21,1.061-7.081,2.931c-1.859,1.859-2.92,4.43-2.92,7.07c0,2.63,1.061,5.21,2.92,7.071
	c1.87,1.86,4.44,2.93,7.081,2.93c2.63,0,5.201-1.069,7.071-2.93c1.86-1.86,2.92-4.44,2.92-7.071c0-2.64-1.06-5.21-2.92-7.07
	C465.89,86.23,463.319,85.169,460.689,85.169z"/>
<path d="M231.001,320.695c-2.64,0-5.21,1.061-7.081,2.931c-1.859,1.859-2.92,4.43-2.92,7.07c0,2.63,1.061,5.21,2.92,7.071
	c1.87,1.86,4.44,2.93,7.081,2.93c2.63,0,5.2-1.069,7.071-2.93c1.86-1.86,2.92-4.44,2.92-7.071c0-2.64-1.06-5.21-2.92-7.07
	C236.202,321.756,233.631,320.695,231.001,320.695z"/>
<path d="M491.983,121.313c-2.73-4.802-8.838-6.48-13.637-3.75c-4.801,2.73-6.48,8.836-3.749,13.637
	c29.706,52.238,20.738,118.438-21.81,160.985l-7.583,7.583c-1.832-4.807-4.67-9.316-8.537-13.182L333.911,183.831
	c6.72-3.306,12.929-7.717,18.38-13.168l19.708-19.709c3.905-3.905,3.905-10.238,0-14.143c-3.906-3.905-10.237-3.905-14.144,0
	l-19.708,19.709c-9.259,9.258-21.568,14.357-34.661,14.357h-39.397c-2.652,0-5.195,1.054-7.072,2.929l-30.16,30.16
	c-8.956,8.957-23.529,8.957-32.485,0c-8.957-8.956-8.957-23.529,0-32.485l68.855-68.855C305.307,60.546,371,51.292,422.975,80.122
	c4.83,2.677,10.918,0.936,13.597-3.895c2.679-4.83,0.935-10.918-3.895-13.597c-28.668-15.899-62.444-22.262-95.112-17.911
	c-30.572,4.071-58.555,16.872-81.493,37.184C227.893,56.922,192.02,43.261,154.04,43.261c-41.146,0-79.828,16.023-108.923,45.117
	S0,156.157,0,197.302s16.023,79.828,45.117,108.923l3.769,3.769c0.656,0.655,1.384,1.191,2.153,1.626
	c0.669,8.652,4.294,17.116,10.897,23.718c7.349,7.348,16.997,11.02,26.648,11.02c0.501,0,1.003-0.016,1.504-0.036
	c-0.02,0.506-0.037,1.012-0.037,1.521c0,10.066,3.92,19.53,11.038,26.648c7.349,7.348,16.997,11.021,26.648,11.02
	c0.501,0,1.003-0.016,1.504-0.036c-0.02,0.506-0.037,1.012-0.037,1.521c0,10.066,3.92,19.53,11.039,26.648
	c7.348,7.347,16.998,11.02,26.648,11.02c0.507,0,1.014-0.016,1.521-0.036c-0.406,10.151,3.251,20.437,10.984,28.171
	c7.119,7.118,16.583,11.038,26.648,11.038c10.067,0,19.531-3.92,26.648-11.038l13.977-13.978l18.879,18.877
	c7.118,7.119,16.582,11.039,26.648,11.039c10.066,0,19.53-3.92,26.648-11.038c7.826-7.826,11.482-18.267,10.972-28.537
	c0.628,0.031,1.258,0.049,1.887,0.049c9.651,0,19.303-3.673,26.65-11.021c7.729-7.729,11.386-18.007,10.984-28.153
	c0.506,0.02,1.012,0.037,1.521,0.037c10.066,0,19.53-3.92,26.648-11.038c7.729-7.729,11.386-18.007,10.984-28.153
	c0.506,0.02,1.012,0.037,1.521,0.037c10.066,0,19.53-3.92,26.648-11.038c3.615-3.615,6.337-7.791,8.173-12.248
	c0.973-0.474,1.888-1.105,2.697-1.913l19.394-19.394C515.824,257.436,526.126,181.354,491.983,121.313z M88.585,326.374
	c-4.724,0-9.165-1.839-12.506-5.18c-3.34-3.34-5.179-7.781-5.179-12.505c0-4.723,1.839-9.165,5.18-12.505l17.234-17.234
	c3.34-3.341,7.782-5.18,12.506-5.18c4.723,0,9.165,1.839,12.505,5.18c6.896,6.896,6.896,18.115,0,25.01l-17.234,17.235
	C97.75,324.534,93.31,326.374,88.585,326.374z M115.235,360.349c-3.341-3.34-5.18-7.782-5.18-12.505
	c0-4.724,1.839-9.165,5.18-12.505l17.235-17.235c0,0,0,0,0-0.001c3.34-3.34,7.781-5.179,12.505-5.179
	c4.723,0,9.165,1.839,12.505,5.18c6.896,6.896,6.896,18.115,0,25.01l-17.234,17.235
	C133.349,367.243,122.127,367.243,115.235,360.349z M154.388,399.502c-3.341-3.34-5.18-7.782-5.18-12.505
	c0-4.724,1.839-9.165,5.18-12.505l17.235-17.235c0,0,0,0,0-0.001c3.34-3.34,7.781-5.179,12.505-5.179
	c4.723,0,9.165,1.839,12.505,5.179c6.896,6.897,6.896,18.116,0,25.011l-17.235,17.235
	C172.503,406.398,161.284,406.398,154.388,399.502z M218.553,438.658c-3.34,3.34-7.781,5.179-12.505,5.179
	c-4.723,0-9.165-1.839-12.505-5.179c-6.896-6.897-6.896-18.116,0-25.011l17.235-17.235c0,0,0,0,0-0.001
	c3.34-3.34,7.781-5.179,12.505-5.179c4.723,0,9.165,1.839,12.505,5.18c3.341,3.34,5.18,7.782,5.18,12.505
	c0,4.724-1.839,9.165-5.18,12.505L218.553,438.658z M422.523,325.739c-3.34,3.341-7.782,5.18-12.505,5.18
	c-4.724,0-9.165-1.839-12.505-5.18l-41.627-41.627c-0.002-0.002-0.003-0.003-0.005-0.005l-39.15-39.15
	c-3.906-3.905-10.237-3.905-14.144,0c-3.905,3.905-3.905,10.238,0,14.143l80.782,80.78c6.896,6.897,6.896,18.116,0,25.011
	c-3.34,3.341-7.782,5.18-12.505,5.18c-4.724,0-9.165-1.839-12.505-5.18l-80.782-80.781c-3.906-3.904-10.237-3.904-14.144,0
	c-3.905,3.905-3.905,10.238,0,14.144l39.146,39.145c0.003,0.003,0.006,0.007,0.009,0.01l41.628,41.626
	c6.896,6.897,6.896,18.117,0.001,25.012c-6.897,6.896-18.118,6.896-25.011,0l-41.628-41.628c-0.77-0.769-1.635-1.381-2.556-1.847
	l-11.873-11.873c-3.906-3.904-10.237-3.904-14.144,0c-3.905,3.905-3.905,10.238,0,14.144l55.702,55.7
	c6.896,6.897,6.896,18.116,0,25.011c-3.34,3.341-7.782,5.18-12.505,5.18c-4.724,0-9.165-1.839-12.505-5.18l-21.196-21.195
	c1.615-4.237,2.469-8.774,2.469-13.444c0-10.066-3.92-19.53-11.038-26.648c-7.119-7.118-16.583-11.038-26.648-11.038
	c-0.509,0-1.015,0.017-1.521,0.037c0.401-10.146-3.255-20.424-10.984-28.153c-7.119-7.118-16.583-11.038-26.648-11.038
	c-0.509,0-1.015,0.017-1.521,0.037c0.402-10.146-3.255-20.424-10.984-28.153c-7.119-7.118-16.583-11.038-26.648-11.038
	c-0.509,0-1.015,0.017-1.521,0.037c0.402-10.146-3.255-20.424-10.984-28.153c-14.694-14.694-38.605-14.693-53.299,0l-17.234,17.234
	c-2.174,2.174-4.017,4.553-5.549,7.071c-23.491-24.951-36.385-57.388-36.385-91.81c0-35.803,13.942-69.464,39.26-94.78
	c25.316-25.316,58.978-39.259,94.78-39.259c32.536,0,63.302,11.516,87.644,32.618l-61.457,61.457
	c-8.116,8.117-12.586,18.908-12.586,30.386c0,11.479,4.47,22.27,12.586,30.387c8.378,8.377,19.383,12.566,30.387,12.566
	c11.004,0,22.009-4.188,30.387-12.566l27.232-27.232h35.253c2.911,0,5.79-0.199,8.634-0.552l110.403,110.401
	C429.418,307.625,429.418,318.845,422.523,325.739z"/>
<g>
</g>
<g>
</g>
<g>
</g>
<g>
</g>
<g>
</g>
<g>
</g>
<g>
</g>
<g>
</g>
<g>
</g>
<g>
</g>
<g>
</g>
<g>
</g>
<g>
</g>
<g>
</g>
<g>
</g>
</svg>
