<?xml version="1.0" encoding="utf-8"?>
<!-- Generator: Adobe Illustrator 19.0.0, SVG Export Plug-In . SVG Version: 6.00 Build 0)  -->
<svg version="1.1" xmlns="http://www.w3.org/2000/svg" xmlns:xlink="http://www.w3.org/1999/xlink" x="0px" y="0px"
	 viewBox="0 0 500 500" style="enable-background:new 0 0 500 500;" xml:space="preserve">
<style type="text/css">
	.stw0{fill:#E0E0E0;}
	.stw1{fill:#27DEBF;}
	.stw2{opacity:0.6;fill:#FFFFFF;}
	.stw3{opacity:5.000000e-002;}
	.stw4{opacity:0.75;fill:#FFFFFF;}
	.stw5{opacity:0.1;}
	.stw6{opacity:0.85;fill:#FFFFFF;}
	.stw7{opacity:0.7;fill:#FFFFFF;}
	.stw8{fill:#455A64;}
	.stw9{fill:#EBEBEB;}
	.stw10{fill:#FAFAFA;}
	.stw11{fill:#476CAB;}
	.stw12{fill:#263238;}
	.stw13{fill:#37474F;}
	.stw14{fill:#48bb78;}
	.stw15{opacity:0.5;}
	.stw16{opacity:0.3;}
	.stw17{opacity:0.15;}
	.stw18{fill:#FFBDA7;}
	.stw19{fill:#F0997A;}
	.stw20{fill:#F0F0F0;}
	.stw21{fill:#FFA8A7;}
	.stw22{fill:#F28F8F;}
	.stw23{fill:#F5F5F5;}
	.stw24{opacity:0.2;}
	.stw25{opacity:0.35;}
</style>
<g id="Layer_10">
</g>
<g id="Floor">
</g>
<g id="Layer_10_copy">
</g>
<g id="Shadows">
	<path id="Shadow_2_" class="stw0" d="M311.5,430.6l157.3-90.8c4.8-2.8,4.8-7.2,0-10l-63.9-36.9c-4.8-2.8-12.5-2.8-17.3,0
		l-157.3,90.8c-4.8,2.8-4.8,7.2,0,10l63.9,36.9C298.9,433.4,306.7,433.4,311.5,430.6z"/>
	<path id="Shadow_5_" class="stw0" d="M229.6,407.7l-48.9-32.9l32.2-18.6c4.8-2.8,4.8-7.2,0-10L149,309.3c-4.8-2.8-12.5-2.8-17.3,0
		l-92.4,53.3c-4.8,2.8-4.8,7.2,0,10l63.9,36.9c4.8,2.8,12.5,2.8,17.3,0l17.9-10.3l57.3,29.6c9.8,5.1,25,5,34-0.2
		C238.7,423.4,238.6,414,229.6,407.7z"/>
	<path id="Shadow_29_" class="stw0" d="M277.6,312.4l-60.8-35.1c-2.4-1.4-6.3-1.4-8.7,0l-50.6,29.3c-2.4,1.4-2.4,3.6,0,5l60.8,35.1
		c2.4,1.4,6.3,1.4,8.7,0l50.6-29.3C280,316.1,279.9,313.8,277.6,312.4z"/>
</g>
<g id="Diplomas">
</g>
<g id="Shelf_1_">
</g>
<g id="Side_Table_1_">
	<g id="Side_Table">
		<g id="Side_table_2_">
			<g>
				<g>
					<polygon id="XMLID_707_" class="stw1" points="265.7,318.9 257.5,314.1 265.7,311.8 					"/>
					<polygon id="XMLID_1289_" class="stw2" points="265.7,318.9 257.5,314.1 265.7,311.8 					"/>
					<polygon id="XMLID_695_" class="stw3" points="265.7,318.9 257.5,314.1 265.7,311.8 					"/>
				</g>
				<g>
					<polygon id="XMLID_687_" class="stw1" points="265.7,318.9 269.9,316.5 269.9,309.4 265.7,311.8 					"/>
					<polygon id="XMLID_681_" class="stw4" points="265.7,318.9 269.9,316.5 269.9,309.4 265.7,311.8 					"/>
				</g>
			</g>
			<g>
				<g>
					<polygon id="XMLID_671_" class="stw1" points="224.4,335.6 224.4,343.2 164.8,308.8 164.8,301.2 					"/>
					<polygon id="XMLID_670_" class="stw2" points="224.4,335.6 224.4,343.2 164.8,308.8 164.8,301.2 					"/>
					<polygon id="XMLID_715_" class="stw5" points="224.4,335.6 224.4,343.2 164.8,308.8 164.8,301.2 					"/>
				</g>
				<g>
					<polygon id="XMLID_664_" class="stw1" points="224.4,343.2 228.5,340.8 228.5,333.2 224.4,335.6 					"/>
					<polygon id="XMLID_661_" class="stw4" points="224.4,343.2 228.5,340.8 228.5,333.2 224.4,335.6 					"/>
				</g>
			</g>
			<g>
				<polygon id="XMLID_710_" class="stw1" points="160.6,241.7 220.3,276.1 220.3,338 160.6,303.6 				"/>
				<polygon id="XMLID_704_" class="stw2" points="160.6,241.7 220.3,276.1 220.3,338 160.6,303.6 				"/>
			</g>
			<g>
				<polygon id="XMLID_655_" class="stw1" points="220.3,276.1 274,245.1 274,307 220.3,338 				"/>
				<polygon id="XMLID_652_" class="stw4" points="220.3,276.1 274,245.1 274,307 220.3,338 				"/>
			</g>
			<g>
				<polygon id="XMLID_651_" class="stw1" points="274,245.1 214.3,210.7 160.6,241.7 220.3,276.1 				"/>
				<polygon id="XMLID_650_" class="stw6" points="274,245.1 214.3,210.7 160.6,241.7 220.3,276.1 				"/>
			</g>
			<g>
				<polygon id="XMLID_643_" class="stw1" points="224.4,297.5 269.9,271.3 269.9,304.6 224.4,330.9 				"/>
				<polygon id="XMLID_639_" class="stw7" points="224.4,297.5 269.9,271.3 269.9,304.6 224.4,330.9 				"/>
				<polygon id="XMLID_636_" class="stw5" points="269.9,304.6 241.2,287.8 224.4,297.5 224.4,330.9 				"/>
				<polygon class="stw3" points="269.9,304.6 241.2,287.8 269.9,271.3 				"/>
			</g>
			<g>
				<polygon id="XMLID_654_" class="stw1" points="224.4,278.5 269.9,252.3 269.9,266.5 224.4,292.8 				"/>
				<polygon id="XMLID_633_" class="stw6" points="224.4,278.5 269.9,252.3 269.9,266.5 224.4,292.8 				"/>
				<path id="XMLID_632_" class="stw8" d="M238.5,273.4c0,0.7,2,0.1,4.4-1.3l7.7-4.4c2.4-1.4,4.4-3.1,4.4-3.7l0-1.2l-16.5,9.5
					C238.5,272.2,238.5,272.7,238.5,273.4z"/>
			</g>
		</g>
		<g id="Plant_8_">
			<g id="Shadow_8_">
				<path id="XMLID_6453_" class="stw5" d="M224.3,234c5,2.9,5,7.6,0,10.5c-5,2.9-13.2,2.9-18.2,0c-5-2.9-5-7.6,0-10.5
					C211.1,231.1,219.3,231.1,224.3,234z"/>
			</g>
			<g id="Pot_3_">
				<g id="XMLID_14635_">
					<g id="XMLID_14299_">
						<path class="stw9" d="M222.5,239.7c4.1-4.1,6.5-14.5,2.5-17.8h-20.2c-4,3.3-1.6,13.6,2.5,17.8c0,0,0.1,0.1,0.1,0.1
							c0,0,0.1,0.1,0.1,0.1c0.1,0.1,0.2,0.2,0.4,0.3c0,0,0.1,0.1,0.1,0.1c0.1,0.1,0.2,0.2,0.3,0.2c0.2,0.1,0.3,0.2,0.5,0.3
							c3.3,1.9,8.8,1.9,12.1,0l0,0h0c0.2-0.1,0.4-0.2,0.5-0.3c0.1-0.1,0.2-0.1,0.3-0.2c0,0,0.1-0.1,0.1-0.1c0.1-0.1,0.2-0.2,0.4-0.3
							C222.3,239.9,222.4,239.8,222.5,239.7C222.5,239.7,222.5,239.7,222.5,239.7z"/>
					</g>
					<g id="XMLID_6452_">
						<path class="stw10" d="M206.6,220.6c-4.6,2.7-4.6,7,0,9.6c4.6,2.7,12.1,2.7,16.7,0c4.6-2.7,4.6-7,0-9.6
							C218.7,217.9,211.2,217.9,206.6,220.6z"/>
					</g>
					<g id="XMLID_6449_">
						<path class="stw9" d="M209.9,222.4c-2.8,1.6-2.8,4.2,0,5.9c2.8,1.6,7.3,1.6,10.1,0c2.8-1.6,2.8-4.2,0-5.9
							C217.2,220.8,212.7,220.8,209.9,222.4z"/>
					</g>
					<g id="XMLID_6448_">
						<path class="stw8" d="M220,225.2c-2.8-1.6-7.3-1.6-10.1,0c-0.8,0.4-1.3,1-1.7,1.5c0.3,0.6,0.9,1.1,1.7,1.5
							c2.8,1.6,7.3,1.6,10.1,0c0.8-0.4,1.3-1,1.7-1.5C221.3,226.2,220.8,225.7,220,225.2z"/>
					</g>
				</g>
				<g>
					<g>
						<path class="stw11" d="M215.2,227.5c0,0,7.7,0.4,11.8-7c4.3-7.9-0.9-16.7-0.9-16.7s-1.5,2-5.3,3.6c-3.8,1.6-7.3,4.1-8,9.6
							C212.1,223.4,215.2,227.5,215.2,227.5z"/>
						<path class="stw5" d="M215.2,227.5c0,0,7.7,0.4,11.8-7c4.3-7.9-0.9-16.7-0.9-16.7s-1.5,2-5.3,3.6c-3.8,1.6-7.3,4.1-8,9.6
							C212.1,223.4,215.2,227.5,215.2,227.5z"/>
						<path class="stw5" d="M226.2,203.8c0,0-1.5,2-5.3,3.6c-3.8,1.6-7.3,4.1-8,9.6c-0.8,6.5,2.3,10.5,2.3,10.5
							C227.9,218.3,227.2,208.5,226.2,203.8z"/>
					</g>
					<g>
						<g>
							<path class="stw10" d="M226.6,206.5c0.4,1.8,0.3,3.8,0,5.6c-0.3,1.9-0.9,3.7-1.8,5.4c-0.9,1.7-1.9,3.3-3.2,4.7
								c-1.3,1.4-2.7,2.6-4.3,3.7c1.4-1.3,2.7-2.6,3.9-4c1.1-1.5,2.1-3,3-4.7c0.8-1.6,1.4-3.4,1.9-5.2
								C226.4,210.2,226.7,208.4,226.6,206.5z"/>
						</g>
						<g>
							<path class="stw10" d="M221.6,210.5c1.1,0.8,2,1.9,2.6,3.2c0.3,0.6,0.6,1.3,0.7,2c0,0.7-0.1,1.5-0.6,2.1l-0.1,0
								c-0.1-0.7-0.2-1.3-0.3-1.9c-0.1-0.6-0.2-1.2-0.4-1.8c-0.2-0.6-0.5-1.2-0.8-1.8C222.3,211.6,222,211.1,221.6,210.5
								L221.6,210.5z"/>
						</g>
					</g>
				</g>
				<g>
					<g>
						<path class="stw11" d="M215.2,227.5c0,0-8.3-0.6-11.4-6.3c-3.3-6,0.8-11.1-1.6-16.9c0,0,10.8,1.2,14.6,7.1
							C221.3,218.2,218.5,223.6,215.2,227.5z"/>
						<path class="stw5" d="M216.9,211.4c-3.8-6-14.6-7.1-14.6-7.1c2.7,1.1,13.3,12.3,13,23.2C218.5,223.6,221.3,218.2,216.9,211.4z"
							/>
					</g>
					<g>
						<g>
							<path class="stw10" d="M203.7,205.2c1.7,1.2,3.2,2.7,4.6,4.3c1.4,1.6,2.5,3.4,3.6,5.2c1,1.9,1.9,3.8,2.5,5.8
								c0.6,2,1,4.1,0.9,6.2c-0.2-2.1-0.7-4.1-1.4-6c-0.7-1.9-1.6-3.8-2.6-5.6c-1-1.8-2.1-3.6-3.4-5.2
								C206.6,208.2,205.2,206.6,203.7,205.2z"/>
						</g>
						<g>
							<path class="stw10" d="M205.9,215.4c1.2-0.2,2.4-0.2,3.6-0.1c0.6,0.1,1.2,0.1,1.8,0.4c0.6,0.3,1.1,0.7,1.4,1.2l-0.1,0.1
								c-0.6-0.1-1.2-0.2-1.7-0.4c-0.5-0.1-1.1-0.4-1.6-0.5C208.2,215.8,207,215.6,205.9,215.4L205.9,215.4z"/>
						</g>
					</g>
				</g>
			</g>
		</g>
	</g>
</g>
<g id="Divan_1_">
	<g id="Divan">
		<g>
			<path id="XMLID_959_" class="stw10" d="M308.5,414.5h-11.4l1.8,11.1h0c0.1,0.5,0.4,1,1.1,1.4c1.5,0.9,4,0.9,5.5,0
				c0.7-0.4,1-0.9,1.1-1.4h0L308.5,414.5z"/>
			<path id="XMLID_960_" class="stw10" d="M249.2,379.3h-11.4l1.8,11.1h0c0.1,0.5,0.4,1,1.1,1.4c1.5,0.9,4,0.9,5.5,0
				c0.7-0.4,1-0.9,1.1-1.4h0L249.2,379.3z"/>
			<path id="XMLID_962_" class="stw10" d="M461.2,326.3h-11.4l1.8,11.1h0c0.1,0.5,0.4,1,1.1,1.4c1.5,0.9,4,0.9,5.5,0
				c0.7-0.4,1-0.9,1.1-1.4h0L461.2,326.3z"/>
			<path id="XMLID_961_" class="stw10" d="M401.9,291.1h-11.4l1.8,11.1h0c0.1,0.5,0.4,1,1.1,1.4c1.5,0.9,4,0.9,5.5,0
				c0.7-0.4,1-0.9,1.1-1.4h0L401.9,291.1z"/>
		</g>
		<g>
			<path class="stw8" d="M394.2,256.2l-2,1.2l-17.8,30.3c-1.4,2.4-4.4,5.4-6.8,6.8l-129.4,74.7c-1.2,0.7-1.8,1.6-1.8,2.5
				c0,0.9,0,6.5,0,7.4c0,0.9,0.6,1.8,1.8,2.5l60.4,34.9c2.4,1.4,6.3,1.4,8.7,0l153.3-88.6c2.4-1.4,4.3-4.7,4.3-7.5v-20.8
				c0-2.8-1.9-6.1-4.3-7.5l-59.9-34.6C398.2,256.1,395.3,255.6,394.2,256.2z"/>
			<path class="stw12" d="M458.5,301.4l-15.1,26.1c-1.4,2.4-4.4,5.4-6.8,6.8l-129.4,74.7c-2.4,1.4-6.3,1.4-8.7,0l-60.4-34.9
				c-2.4-1.4-2.4-3.6,0-5l129.4-74.7c2.4-1.4,5.4-4.4,6.8-6.8l15.3-26c1.4-2.4,4.5-3.2,6.9-1.8l60.2,34.7
				C459,296,459.9,299,458.5,301.4z"/>
			<path class="stw13" d="M302.8,410.2v7.4c-1.6,0-3.1-0.4-4.3-1l-60.4-34.9c-1.2-0.7-1.8-1.6-1.8-2.5c0-0.9,0-6.3,0-7.3
				c0,0.9,0.6,1.8,1.8,2.5l60.4,34.9C299.7,409.8,301.2,410.2,302.8,410.2z"/>
		</g>
		<g>
			<path class="stw14" d="M233.7,349.1v13.5c0,2.8,1.9,6.1,4.3,7.5l60.4,34.9c2.4,1.4,6.3,1.4,8.7,0l125.7-72.5
				c2.4-1.4,5.5-4.4,6.9-6.8l37.5-62.9c1.4-2.4,2.6-6.5,2.6-9.3v-15.8c0-2.8-1.9-6.1-4.3-7.5L415,195.2c-2.4-1.4-5.4-0.6-6.8,1.8
				l-15.9,32.2l-21.7,33c-1.4,2.4-4.4,5.4-4.6,5.5l-125.7,72.5C235.7,343,233.7,346.4,233.7,349.1z"/>
			<path class="stw15" d="M233.7,349.1v13.5c0,2.8,1.9,6.1,4.3,7.5l60.4,34.9c2.4,1.4,6.3,1.4,8.7,0l125.7-72.5
				c2.4-1.4,5.5-4.4,6.9-6.8l37.5-62.9c1.4-2.4,2.6-6.5,2.6-9.3v-15.8c0-2.8-1.9-6.1-4.3-7.5L415,195.2c-2.4-1.4-5.4-0.6-6.8,1.8
				l-15.9,32.2l-21.7,33c-1.4,2.4-4.4,5.4-4.6,5.5l-125.7,72.5C235.7,343,233.7,346.4,233.7,349.1z"/>
			<path class="stw5" d="M302.8,382.6V406c-1.6,0-3.1-0.3-4.3-1l-60.4-34.9c-2.4-1.4-4.3-4.7-4.3-7.5v-13.5c0-2.6,1.7-5.7,3.9-7.2
				c-1.9,1.4-1.8,3.4,0.4,4.7l60.4,34.9C299.7,382.2,301.2,382.6,302.8,382.6z"/>
		</g>
		<g>
			<path class="stw14" d="M415,195.2l60.4,34.9c2.4,1.4,3.2,4.4,1.8,6.8l-37.7,65.2c-1.4,2.4-4.4,5.4-6.8,6.8l-125.7,72.5
				c-2.4,1.4-6.3,1.4-8.7,0l-60.4-34.9c-2.4-1.4-2.4-3.6,0-5c8.4-9.1,20.3-16.5,32.2-18.6c9.8-10.7,19.6-15.9,32.5-18.8
				c8.7-11.3,19.7-17.7,32.5-18.8c7-7.9,15.9-13.8,28.4-16.4c2.4-1.4,5.4-4.4,6.8-6.8c4.1-13.6,9.4-23.7,21.7-33
				c2.5-11.9,6.9-24.2,15.9-32.2C409.6,194.7,412.6,193.8,415,195.2z"/>
			<path class="stw16" d="M415,195.2l60.4,34.9c2.4,1.4,3.2,4.4,1.8,6.8l-37.7,65.2c-1.4,2.4-4.4,5.4-6.8,6.8l-125.7,72.5
				c-2.4,1.4-6.3,1.4-8.7,0l-60.4-34.9c-2.4-1.4-2.4-3.6,0-5c8.4-9.1,20.3-16.5,32.2-18.6c9.8-10.7,19.6-15.9,32.5-18.8
				c8.7-11.3,19.7-17.7,32.5-18.8c7-7.9,15.9-13.8,28.4-16.4c2.4-1.4,5.4-4.4,6.8-6.8c4.1-13.6,9.4-23.7,21.7-33
				c2.5-11.9,6.9-24.2,15.9-32.2C409.6,194.7,412.6,193.8,415,195.2z"/>
			<path class="stw5" d="M475.4,230.1L415,195.2c-2.4-1.4-5.4-0.6-6.8,1.8c-9.1,8.1-13.4,20.3-15.9,32.2c-12.3,9.3-17.6,19.4-21.7,33
				c-0.8,1.3-2,2.8-3.4,4.1l0,0l69,39.9c1.4-1.3,2.6-2.8,3.4-4.1l37.7-65.2C478.6,234.5,477.8,231.5,475.4,230.1z"/>
		</g>
		<g>
			<g>
				<path class="stw17" d="M425.3,226.8c-2-0.5-4.1-1-5.7-2.5c-0.5-0.4-0.8-0.9-1.2-1.4c-0.3-0.4-0.5-1-0.9-1.4
					c-0.1-0.1-0.3-0.1-0.4-0.1c0-1.4,0.8-2.8,1.5-3.9c0.4-0.6,0.8-1.3,1.4-1.8c0.4-0.5,1-0.9,1.4-1.4c0.1-0.1,0-0.4-0.1-0.3
					c-0.8,0.1-1.5,0.7-2.1,1.2c-0.8,0.7-1.4,1.5-1.9,2.4c-0.4,0.7-0.8,1.4-1,2.2c-0.1,0.3-0.2,0.7-0.2,1c0,0.2,0,0.4,0,0.5
					c-0.2-0.2-0.5-0.2-0.7-0.3c-1.2-0.3-2.4-0.9-3.5-1.6c-1.7-1.1-3.4-2.5-3.9-4.5c0-0.1-0.1,0-0.1,0.1c0.2,0.7,0.5,1.5,0.8,2.1
					c0.4,0.7,0.8,1.3,1.4,1.9c1.1,1,2.4,1.8,3.8,2.4c0.4,0.2,0.9,0.3,1.3,0.5c-1.1,0.7-2,1.7-2.5,2.9c-0.8,1.6-1.1,3.5-0.8,5.3
					c0,0.1,0.1,0,0.1,0c0.1-0.8,0.2-1.6,0.4-2.3c0.2-0.8,0.5-1.6,0.9-2.4c0.7-1.2,1.6-2.4,2.9-3c0.2-0.1,0.3-0.3,0.2-0.4
					c0,0,0,0,0,0c0.1,0,0.2,0,0.2,0c0.1,0.5,0.5,1,0.7,1.4c0.4,0.6,0.9,1.2,1.5,1.7c0.7,0.6,1.6,1.1,2.5,1.5
					c0.6,0.2,1.2,0.4,1.8,0.5c0.6,0.1,1.2,0.1,1.8,0C425.4,226.9,425.4,226.8,425.3,226.8z"/>
				<ellipse transform="matrix(0.866 0.5 -0.5 0.866 166.562 -178.1422)" class="st13" cx="415.7" cy="221.7" rx="2.6" ry="2.3"/>
			</g>
			<g>
				<path class="stw17" d="M342.3,300.5c1.3-1.3,2.4-2.7,4.8-3.4c0.7-0.2,1.4-0.4,2.2-0.5c0.6-0.1,1.5-0.1,2-0.3
					c0.1,0,0.2-0.2,0.3-0.3c1.8,0.4,3.4,1.2,4.6,2.1c0.7,0.5,1.4,0.9,2,1.4c0.5,0.4,0.9,0.9,1.4,1.4c0.1,0.1,0.4,0.1,0.5,0
					c0.1-0.6-0.4-1.3-1-1.8c-0.7-0.7-1.5-1.4-2.5-2c-0.8-0.5-1.6-0.9-2.6-1.3c-0.4-0.2-0.8-0.3-1.3-0.4c-0.2-0.1-0.5-0.1-0.7-0.2
					c0.2-0.1,0.4-0.3,0.5-0.4c0.8-0.8,1.9-1.5,3.1-2.1c1.9-0.9,4.2-1.8,7-1.7c0.1,0,0-0.1-0.1-0.1c-1-0.1-2,0-3,0.1
					c-1,0.1-2,0.2-2.9,0.5c-1.6,0.5-3.1,1.3-4.2,2.1c-0.3,0.3-0.7,0.5-1,0.9c-0.5-1-1.7-1.8-3.1-2.5c-1.8-0.9-4.3-1.7-6.6-1.9
					c-0.1,0-0.1,0.1,0,0.1c1,0.3,1.9,0.5,2.9,0.9c1,0.4,2,0.8,2.8,1.3c1.4,0.8,2.7,1.8,3,2.8c0.1,0.2,0.3,0.3,0.5,0.3c0,0,0,0,0,0
					c0,0.1,0,0.1,0,0.2c-0.7-0.1-1.5,0.1-2.1,0.2c-0.9,0.2-1.8,0.4-2.6,0.7c-1,0.4-1.9,0.9-2.6,1.4c-0.4,0.4-0.8,0.8-1.1,1.2
					c-0.3,0.4-0.5,0.8-0.5,1.3C342.1,300.5,342.2,300.6,342.3,300.5z"/>
				<path class="stw13" d="M349.2,296.2c1.2,0.7,3.3,0.7,4.6,0c1.3-0.7,1.3-1.9,0.1-2.6c-1.2-0.7-3.3-0.7-4.6,0
					C348,294.3,348,295.5,349.2,296.2z"/>
			</g>
			<g>
				<path class="stw17" d="M376.6,320.3c1.3-1.3,2.4-2.7,4.8-3.4c0.7-0.2,1.4-0.4,2.2-0.5c0.6-0.1,1.5-0.1,2-0.3
					c0.1,0,0.2-0.2,0.3-0.3c1.8,0.4,3.4,1.2,4.6,2.1c0.7,0.5,1.4,0.9,2,1.4c0.5,0.4,0.9,0.9,1.4,1.4c0.1,0.1,0.4,0.1,0.5,0
					c0.1-0.6-0.4-1.3-1-1.8c-0.7-0.7-1.5-1.4-2.5-2c-0.8-0.5-1.6-0.9-2.6-1.3c-0.4-0.2-0.8-0.3-1.3-0.4c-0.2-0.1-0.5-0.1-0.7-0.2
					c0.2-0.1,0.4-0.3,0.5-0.4c0.8-0.8,1.9-1.5,3.1-2.1c1.9-0.9,4.2-1.8,7-1.7c0.1,0,0-0.1-0.1-0.1c-1-0.1-2,0-3,0.1
					c-1,0.1-2,0.2-2.9,0.5c-1.6,0.5-3.1,1.3-4.2,2.1c-0.3,0.3-0.7,0.5-1,0.9c-0.5-1-1.7-1.8-3.1-2.5c-1.8-0.9-4.3-1.7-6.6-1.9
					c-0.1,0-0.1,0.1,0,0.1c1,0.3,1.9,0.5,2.9,0.9c1,0.4,2,0.8,2.8,1.3c1.4,0.8,2.7,1.8,3,2.8c0.1,0.2,0.3,0.3,0.5,0.3c0,0,0,0,0,0
					c0,0.1,0,0.1,0,0.2c-0.7-0.1-1.5,0.1-2.1,0.2c-0.9,0.2-1.8,0.4-2.6,0.7c-1,0.4-1.9,0.9-2.6,1.4c-0.4,0.4-0.8,0.8-1.1,1.2
					c-0.3,0.4-0.5,0.8-0.5,1.3C376.4,320.3,376.6,320.4,376.6,320.3z"/>
				<path class="stw13" d="M383.5,316c1.2,0.7,3.3,0.7,4.6,0c1.3-0.7,1.3-1.9,0.1-2.6c-1.2-0.7-3.3-0.7-4.6,0
					C382.4,314.1,382.3,315.3,383.5,316z"/>
			</g>
			<g>
				<path class="stw17" d="M309.8,319.3c1.3-1.3,2.4-2.7,4.8-3.4c0.7-0.2,1.4-0.4,2.2-0.5c0.6-0.1,1.5-0.1,2-0.3
					c0.1,0,0.2-0.2,0.3-0.3c1.8,0.4,3.4,1.2,4.6,2.1c0.7,0.5,1.4,0.9,2,1.4c0.5,0.4,0.9,0.9,1.4,1.4c0.1,0.1,0.4,0.1,0.5,0
					c0.1-0.6-0.4-1.3-1-1.8c-0.7-0.7-1.5-1.4-2.5-2c-0.8-0.5-1.6-0.9-2.6-1.3c-0.4-0.2-0.8-0.3-1.3-0.4c-0.2-0.1-0.5-0.1-0.7-0.2
					c0.2-0.1,0.4-0.3,0.5-0.4c0.8-0.8,1.9-1.5,3.1-2.1c1.9-0.9,4.2-1.8,7-1.7c0.1,0,0-0.1-0.1-0.1c-1-0.1-2,0-3,0.1
					c-1,0.1-2,0.2-2.9,0.5c-1.6,0.5-3.1,1.3-4.2,2.1c-0.3,0.3-0.7,0.5-1,0.9c-0.5-1-1.7-1.8-3.1-2.5c-1.8-0.9-4.3-1.7-6.6-1.9
					c-0.1,0-0.1,0.1,0,0.1c1,0.3,1.9,0.5,2.9,0.9c1,0.4,2,0.8,2.8,1.3c1.4,0.8,2.7,1.8,3,2.8c0.1,0.2,0.3,0.3,0.5,0.3c0,0,0,0,0,0
					c0,0.1,0,0.1,0,0.2c-0.7-0.1-1.5,0.1-2.1,0.2c-0.9,0.2-1.8,0.4-2.6,0.7c-1,0.4-1.9,0.9-2.6,1.4c-0.4,0.4-0.8,0.8-1.1,1.2
					c-0.3,0.4-0.5,0.8-0.5,1.3C309.6,319.3,309.8,319.3,309.8,319.3z"/>
				<path class="stw13" d="M316.7,315c1.2,0.7,3.3,0.7,4.6,0c1.3-0.7,1.3-1.9,0.1-2.6c-1.2-0.7-3.3-0.7-4.6,0
					C315.6,313.1,315.5,314.2,316.7,315z"/>
			</g>
			<g>
				<path class="stw17" d="M344.1,339.1c1.3-1.3,2.4-2.7,4.8-3.4c0.7-0.2,1.4-0.4,2.2-0.5c0.6-0.1,1.5-0.1,2-0.3
					c0.1,0,0.2-0.2,0.3-0.3c1.8,0.4,3.4,1.2,4.6,2.1c0.7,0.5,1.4,0.9,2,1.4c0.5,0.4,0.9,0.9,1.4,1.4c0.1,0.1,0.4,0.1,0.5,0
					c0.1-0.6-0.4-1.3-1-1.8c-0.7-0.7-1.5-1.4-2.5-2c-0.8-0.5-1.6-0.9-2.6-1.3c-0.4-0.2-0.8-0.3-1.3-0.4c-0.2-0.1-0.5-0.1-0.7-0.2
					c0.2-0.1,0.4-0.3,0.5-0.4c0.8-0.8,1.9-1.5,3.1-2.1c1.9-0.9,4.2-1.8,7-1.7c0.1,0,0-0.1-0.1-0.1c-1-0.1-2,0-3,0.1
					c-1,0.1-2,0.2-2.9,0.5c-1.6,0.5-3.1,1.3-4.2,2.1c-0.3,0.3-0.7,0.5-1,0.9c-0.5-1-1.7-1.8-3.1-2.5c-1.8-0.9-4.3-1.7-6.6-1.9
					c-0.1,0-0.1,0.1,0,0.1c1,0.3,1.9,0.5,2.9,0.9c1,0.4,2,0.8,2.8,1.3c1.4,0.8,2.7,1.8,3,2.8c0.1,0.2,0.3,0.3,0.5,0.3c0,0,0,0,0,0
					c0,0.1,0,0.1,0,0.2c-0.7-0.1-1.5,0.1-2.1,0.2c-0.9,0.2-1.8,0.4-2.6,0.7c-1,0.4-1.9,0.9-2.6,1.4c-0.4,0.4-0.8,0.8-1.1,1.2
					c-0.3,0.4-0.5,0.8-0.5,1.3C343.9,339.1,344.1,339.1,344.1,339.1z"/>
				<path class="stw13" d="M351,334.8c1.2,0.7,3.3,0.7,4.6,0c1.3-0.7,1.3-1.9,0.1-2.6c-1.2-0.7-3.3-0.7-4.6,0
					C349.9,332.9,349.8,334,351,334.8z"/>
			</g>
			<g>
				<path class="stw17" d="M275.4,336.9c1.3-1.3,2.4-2.7,4.8-3.4c0.7-0.2,1.4-0.4,2.2-0.5c0.6-0.1,1.5-0.1,2-0.3
					c0.1,0,0.2-0.2,0.3-0.3c1.8,0.4,3.4,1.2,4.6,2.1c0.7,0.5,1.4,0.9,2,1.4c0.5,0.4,0.9,0.9,1.4,1.4c0.1,0.1,0.4,0.1,0.5,0
					c0.1-0.6-0.4-1.3-1-1.8c-0.7-0.7-1.5-1.4-2.5-2c-0.8-0.5-1.6-0.9-2.6-1.3c-0.4-0.2-0.8-0.3-1.3-0.4c-0.2-0.1-0.5-0.1-0.7-0.2
					c0.2-0.1,0.4-0.3,0.5-0.4c0.8-0.8,1.9-1.5,3.1-2.1c1.9-0.9,4.2-1.8,7-1.7c0.1,0,0-0.1-0.1-0.1c-1-0.1-2,0-3,0.1
					c-1,0.1-2,0.2-2.9,0.5c-1.6,0.5-3.1,1.3-4.2,2.1c-0.3,0.3-0.7,0.5-1,0.9c-0.5-1-1.7-1.8-3.1-2.5c-1.8-0.9-4.3-1.7-6.6-1.9
					c-0.1,0-0.1,0.1,0,0.1c1,0.3,1.9,0.5,2.9,0.9c1,0.4,2,0.8,2.8,1.3c1.4,0.8,2.7,1.8,3,2.8c0.1,0.2,0.3,0.3,0.5,0.3c0,0,0,0,0,0
					c0,0.1,0,0.1,0,0.2c-0.7-0.1-1.5,0.1-2.1,0.2c-0.9,0.2-1.8,0.4-2.6,0.7c-1,0.4-1.9,0.9-2.6,1.4c-0.4,0.4-0.8,0.8-1.1,1.2
					c-0.3,0.4-0.5,0.8-0.5,1.3C275.2,336.9,275.3,337,275.4,336.9z"/>
				<path class="stw13" d="M282.3,332.6c1.2,0.7,3.3,0.7,4.6,0c1.3-0.7,1.3-1.9,0.1-2.6c-1.2-0.7-3.3-0.7-4.6,0
					C281.1,330.7,281.1,331.9,282.3,332.6z"/>
			</g>
			<g>
				<path class="stw17" d="M309.7,356.7c1.3-1.3,2.4-2.7,4.8-3.4c0.7-0.2,1.4-0.4,2.2-0.5c0.6-0.1,1.5-0.1,2-0.3
					c0.1,0,0.2-0.2,0.3-0.3c1.8,0.4,3.4,1.2,4.6,2.1c0.7,0.5,1.4,0.9,2,1.4c0.5,0.4,0.9,0.9,1.4,1.4c0.1,0.1,0.4,0.1,0.5,0
					c0.1-0.6-0.4-1.3-1-1.8c-0.7-0.7-1.5-1.4-2.5-2c-0.8-0.5-1.6-0.9-2.6-1.3c-0.4-0.2-0.8-0.3-1.3-0.4c-0.2-0.1-0.5-0.1-0.7-0.2
					c0.2-0.1,0.4-0.3,0.5-0.4c0.8-0.8,1.9-1.5,3.1-2.1c1.9-0.9,4.2-1.8,7-1.7c0.1,0,0-0.1-0.1-0.1c-1-0.1-2,0-3,0.1
					c-1,0.1-2,0.2-2.9,0.5c-1.6,0.5-3.1,1.3-4.2,2.1c-0.3,0.3-0.7,0.5-1,0.9c-0.5-1-1.7-1.8-3.1-2.5c-1.8-0.9-4.3-1.7-6.6-1.9
					c-0.1,0-0.1,0.1,0,0.1c1,0.3,1.9,0.5,2.9,0.9c1,0.4,2,0.8,2.8,1.3c1.4,0.8,2.7,1.8,3,2.8c0.1,0.2,0.3,0.3,0.5,0.3c0,0,0,0,0,0
					c0,0.1,0,0.1,0,0.2c-0.7-0.1-1.5,0.1-2.1,0.2c-0.9,0.2-1.8,0.4-2.6,0.7c-1,0.4-1.9,0.9-2.6,1.4c-0.4,0.4-0.8,0.8-1.1,1.2
					c-0.3,0.4-0.5,0.8-0.5,1.3C309.5,356.7,309.6,356.8,309.7,356.7z"/>
				<path class="stw13" d="M316.6,352.4c1.2,0.7,3.3,0.7,4.6,0c1.3-0.7,1.3-1.9,0.1-2.6s-3.3-0.7-4.6,0
					C315.4,350.5,315.4,351.7,316.6,352.4z"/>
			</g>
			<g>
				<path class="stw17" d="M462.4,247.8c-2-0.5-4.1-1-5.7-2.5c-0.5-0.4-0.8-0.9-1.2-1.4c-0.3-0.4-0.5-1-0.9-1.4
					c-0.1-0.1-0.3-0.1-0.4-0.1c0-1.4,0.8-2.8,1.5-3.9c0.4-0.6,0.8-1.3,1.4-1.8c0.4-0.5,1-0.9,1.4-1.4c0.1-0.1,0-0.4-0.1-0.3
					c-0.8,0.1-1.5,0.7-2.1,1.2c-0.8,0.7-1.4,1.5-1.9,2.4c-0.4,0.7-0.8,1.4-1,2.2c-0.1,0.3-0.2,0.7-0.2,1c0,0.2,0,0.4,0,0.5
					c-0.2-0.2-0.5-0.2-0.7-0.3c-1.2-0.3-2.4-0.9-3.5-1.6c-1.7-1.1-3.4-2.5-3.9-4.5c0-0.1-0.1,0-0.1,0.1c0.2,0.7,0.5,1.5,0.8,2.1
					c0.4,0.7,0.8,1.3,1.4,1.9c1.1,1,2.4,1.8,3.8,2.4c0.4,0.2,0.9,0.3,1.3,0.5c-1.1,0.7-2,1.7-2.5,2.9c-0.8,1.6-1.1,3.5-0.8,5.3
					c0,0.1,0.1,0,0.1,0c0.1-0.8,0.2-1.6,0.4-2.3c0.2-0.8,0.5-1.6,0.9-2.4c0.7-1.2,1.6-2.4,2.9-3c0.2-0.1,0.3-0.3,0.2-0.4
					c0,0,0,0,0,0c0.1,0,0.2,0,0.2,0c0.1,0.5,0.5,1,0.7,1.4c0.4,0.6,0.9,1.2,1.5,1.7c0.7,0.6,1.6,1.1,2.5,1.5
					c0.6,0.2,1.2,0.4,1.8,0.5c0.6,0.1,1.2,0.1,1.8,0C462.4,248,462.4,247.8,462.4,247.8z"/>
				<ellipse transform="matrix(0.866 0.5 -0.5 0.866 182.0268 -193.844)" class="st13" cx="452.7" cy="242.7" rx="2.6" ry="2.3"/>
			</g>
			<g>
				<path class="stw17" d="M406.6,257.9c-2-0.5-4.1-1-5.7-2.5c-0.5-0.4-0.8-0.9-1.2-1.4c-0.3-0.4-0.5-1-0.9-1.4
					c-0.1-0.1-0.3-0.1-0.4-0.1c0-1.4,0.8-2.8,1.5-3.9c0.4-0.6,0.8-1.3,1.4-1.8c0.4-0.5,1-0.9,1.4-1.4c0.1-0.1,0-0.4-0.1-0.3
					c-0.8,0.1-1.5,0.7-2.1,1.2c-0.8,0.7-1.4,1.5-1.9,2.4c-0.4,0.7-0.8,1.4-1,2.2c-0.1,0.3-0.2,0.7-0.2,1c0,0.2,0,0.4,0,0.5
					c-0.2-0.2-0.5-0.2-0.7-0.3c-1.2-0.3-2.4-0.9-3.5-1.6c-1.7-1.1-3.4-2.5-3.9-4.5c0-0.1-0.1,0-0.1,0.1c0.2,0.7,0.5,1.5,0.8,2.1
					c0.4,0.7,0.8,1.3,1.4,1.9c1.1,1,2.4,1.8,3.8,2.4c0.4,0.2,0.9,0.3,1.3,0.5c-1.1,0.7-2,1.7-2.5,2.9c-0.8,1.6-1.1,3.5-0.8,5.3
					c0,0.1,0.1,0,0.1,0c0.1-0.8,0.2-1.6,0.4-2.3c0.2-0.8,0.5-1.6,0.9-2.4c0.7-1.2,1.6-2.4,2.9-3c0.2-0.1,0.3-0.3,0.2-0.4
					c0,0,0,0,0,0c0.1,0,0.2,0,0.2,0c0.1,0.5,0.5,1,0.7,1.4c0.4,0.6,0.9,1.2,1.5,1.7c0.7,0.6,1.6,1.1,2.5,1.5
					c0.6,0.2,1.2,0.4,1.8,0.5c0.6,0.1,1.2,0.1,1.8,0C406.7,258,406.7,257.9,406.6,257.9z"/>
				<ellipse transform="matrix(0.866 0.5 -0.5 0.866 179.6079 -164.6274)" class="st13" cx="397" cy="252.8" rx="2.6" ry="2.3"/>
			</g>
			<g>
				<path class="stw17" d="M443.2,279.3c-2-0.5-4.1-1-5.7-2.5c-0.5-0.4-0.8-0.9-1.2-1.4c-0.3-0.4-0.5-1-0.9-1.4
					c-0.1-0.1-0.3-0.1-0.4-0.1c0-1.4,0.8-2.8,1.5-3.9c0.4-0.6,0.8-1.3,1.4-1.8c0.4-0.5,1-0.9,1.4-1.4c0.1-0.1,0-0.4-0.1-0.3
					c-0.8,0.1-1.5,0.7-2.1,1.2c-0.8,0.7-1.4,1.5-1.9,2.4c-0.4,0.7-0.8,1.4-1,2.2c-0.1,0.3-0.2,0.7-0.2,1c0,0.2,0,0.4,0,0.5
					c-0.2-0.2-0.5-0.2-0.7-0.3c-1.2-0.3-2.4-0.9-3.5-1.6c-1.7-1.1-3.4-2.5-3.9-4.5c0-0.1-0.1,0-0.1,0.1c0.2,0.7,0.5,1.5,0.8,2.1
					c0.4,0.7,0.8,1.3,1.4,1.9c1.1,1,2.4,1.8,3.8,2.4c0.4,0.2,0.9,0.3,1.3,0.5c-1.1,0.7-2,1.7-2.5,2.9c-0.8,1.6-1.1,3.5-0.8,5.3
					c0,0.1,0.1,0,0.1,0c0.1-0.8,0.2-1.6,0.4-2.3c0.2-0.8,0.5-1.6,0.9-2.4c0.7-1.2,1.6-2.4,2.9-3c0.2-0.1,0.3-0.3,0.2-0.4
					c0,0,0,0,0,0c0.1,0,0.2,0,0.2,0c0.1,0.5,0.5,1,0.7,1.4c0.4,0.6,0.9,1.2,1.5,1.7c0.7,0.6,1.6,1.1,2.5,1.5
					c0.6,0.2,1.2,0.4,1.8,0.5c0.6,0.1,1.2,0.1,1.8,0C443.2,279.5,443.2,279.4,443.2,279.3z"/>
				<ellipse transform="matrix(0.866 0.5 -0.5 0.866 195.2153 -180.0163)" class="st13" cx="433.5" cy="274.3" rx="2.6" ry="2.3"/>
			</g>
		</g>
	</g>
</g>
<g id="Character_2_1_">
	<path id="Shadow_6_" class="stw5" d="M455.4,255.6c-4,3-9.5,6.1-13.6,3.2c-3.5-2.5-3.2-8-1.2-11.9c1.9-3.9,5-7.3,6-11.5
		c2.2-9.6-7.3-18.2-9.6-27.6L415,195.2c-2.4-1.4-5.4-0.6-6.8,1.8c-0.2,0.2-0.4,0.4-0.6,0.6c-0.4,1-0.9,1.9-1.3,2.9
		c-0.8,1.8-1.5,3.6-2.3,5.4c-2.7,6.5-5.2,13-7.1,19.8c-0.4,1.5-0.7,2.9-0.9,4.3c-0.2,1.5-1.1,2.9-1.7,4.2c-1.4,3.2-2.6,6.4-3.8,9.7
		c-2.1,5.9-4,11.9-6.3,17.7c-2.2,5.5-4.7,11.4-8.2,16.2c-1.7,2.3-4.8,4.2-7.1,5.8c-2.6,1.7-5.3,3.3-8,4.7
		c-5.5,2.8-11.3,5.1-17.1,7.2c-3.1,1.2-6.2,2.3-9.2,3.6c-5.7,2.3-11.4,4.9-16.7,8.2c-5.3,3.4-10.2,7.7-14.7,12.1
		c-4.8,4.8-9.2,10-14.3,14.5c-3.9,3.4-8.2,6.3-12.8,8.7c-2.3,1.2-4.6,2.2-7,3.1c-2.1,0.8-4.6,1.4-6.4,2.7c-1,0.7-1.9,1.8-2,3.1
		c-0.1,1.1,0.3,2.2,1.1,3.1c0.7,0.9,1.7,1.5,2.7,2c5,2.6,11.3,2.5,16.2-0.2c3.3-1.8,5.9-4.6,9.3-6.2c1.8-0.8,3.7-1.3,5.7-1.7
		c0.6-0.1,1.2-0.3,1.8,0c3.6,1.3-6.5,6.8-7.5,7.4c-1.8,1.1-3.7,2.1-5.4,3.4c-1.3,0.9-3.7,2.4-3.8,4.1c-0.1,0.9,0.4,1.8,1,2.5
		c0.6,0.7,1.4,1.2,2.2,1.6c2.7,1.5,5.3,2,8.3,2.3c4,0.4,8.2-0.6,11.6-2.9c2.2-1.5,4-3.5,6.4-4.5c2.4-1,5.4-1,7.3-2.7
		c1.2-1.1,1.8-2.6,2.6-4c1.8-3.4,6.2-5.3,9.5-7.2c3.7-2.1,7.5-4.3,10.6-7.2c4.2-4,7-9.2,10.6-13.6c4-4.9,9.3-8.9,15.5-10.4
		c2.1-0.5,4.1-1,6.2-1.5c3.5-0.9,7.1-1.8,10.7-2.6c3.1-0.7,6.2-1.1,9.2-1.7c6.2-1.3,12.4-3.1,17.8-6.7c0.6-0.4,1.1-0.8,1.7-1.2
		c9.7-7.4,13.6-19.8,17.1-31.5c2.9,6,10.7,8.3,17.2,6.8c3.3-0.7,6.4-2.2,9.3-4l12.9-22.3C464.5,250.3,459.2,252.9,455.4,255.6z"/>
	<g id="Bottom">
		<g id="XMLID_827_">
			<path id="XMLID_309_" class="stw18" d="M296.7,311.2c0,0-9.4,18.3-12.9,22.6c-3.5,4.3-5.5,6.2-9.6,9.1c-0.9,0.6-2.8,1.7-3.6,2.3
				c-0.6,0.5-0.9,1.1-0.3,2c1.1,1.7,7,3.5,11,1.8c4-1.7,8.4-6.3,10.9-7.9c0.9-0.6,1.8-1.2,2.7-1.9c0.8-0.6,0.9-1.4,1.1-2.3
				c0.1-0.4,0.4-1.6,0.4-1.6c1-2,11.2-13.9,12.3-15.8L296.7,311.2z"/>
			<g>
				<path class="stw12" d="M295.2,345c0,0-0.2,1-0.5,1.5c-0.5,0.7-4,1.8-5.3,2.1c-1.3,0.3-2.8,0.9-4.4,3.1c-1.7,2.3-4.5,3.7-7.5,4.4
					c-3,0.7-7.2,0.7-11.8-1.2c-4.7-1.9-4.5-4.8-4.5-4.8s0.3-2.7,1.6-2.9C264.1,347,295.2,345,295.2,345z"/>
				<path id="XMLID_291_" class="stw13" d="M296.6,334.6c0.1,0.1,0.3,0.2,0.4,0.8c0,0.2-0.7,2.5-0.8,3.8c-0.2,1.4,0,4.2-1,5.8
					c-3.1,2.1-7.3,1.9-9.8,4.2c-2.5,2.3-5,5.3-11.6,5.3c-6.6,0-11-3.1-11.8-5.1c-0.8-2,0.6-3.5,5.1-4.9c4.8-1.4,11.9-7.2,11.9-7.2
					c1-0.8,1.9-1.7,2.8-2.6c0.8-0.9,1.4-2.1,2.1-3.2c0.3-0.5,0.7-1,1.3-1.2c0.6-0.2,1.2,0,1.7,0.1c0.9,0.3,1.8,0.5,2.6,1
					c0.8,0.4,1.6,1.1,1.9,2c0.3,0.6,0.3,1.3,0.6,1.9c0.4,0.8,1.4,1.3,2.3,1.2c1.3-0.1,1.7-0.8,2-1.4
					C296.4,335.1,296.6,334.6,296.6,334.6z"/>
				<path class="stw10" d="M278.3,353.8c0,0,1-4.4-3.3-7.8c-4.3-3.4-7.5-2.5-9.2-1.7c-2,0.9-5,3-3.9,5.2c1.2,2.4,3.6,3.9,8.5,5
					C275.3,355.5,278.3,353.8,278.3,353.8z"/>
				<g>
					<path class="stw10" d="M287.9,340.3c-0.2,0-0.3-0.2-0.4-0.3c-0.4-0.9-3.3-4.4-6.8-4.2c-0.1-0.4,0.3-0.8,1-1
						c3.6,0.4,6.4,3.7,6.8,4.8c0.1,0.3,0,0.6-0.3,0.7C288.1,340.3,288,340.3,287.9,340.3z"/>
					<path class="stw10" d="M278.2,337.9c0.2-0.5,0.8-0.9,1.2-1c3.4,0.6,5.9,3.7,6.4,4.7c0.1,0.3,0,0.6-0.3,0.7c-0.1,0-0.2,0.1-0.3,0
						c-0.2,0-0.3-0.2-0.4-0.3C284.4,341.3,281.6,337.9,278.2,337.9z"/>
					<path class="stw10" d="M271.8,342.3c0.4-0.5,1-0.9,1.8-1.1c3.5,0.5,6.2,3.7,6.7,4.8c0.1,0.3,0,0.6-0.3,0.7c-0.1,0-0.2,0.1-0.3,0
						c-0.2,0-0.3-0.2-0.4-0.3C278.8,345.5,275.6,341.6,271.8,342.3z"/>
					<path class="stw10" d="M282.4,344.6c-0.2,0-0.3-0.2-0.4-0.3c-0.4-0.9-3.2-4.3-6.7-4.2c0.2-0.5,0.7-0.8,1.4-1
						c3.4,0.6,5.9,3.7,6.4,4.7c0.1,0.3,0,0.6-0.3,0.7C282.6,344.6,282.5,344.6,282.4,344.6z"/>
				</g>
			</g>
		</g>
		<g id="XMLID_310_">
			<path id="XMLID_432_" class="stw18" d="M317.9,324.4c0,0-10,16.6-13.5,20.9c-3.5,4.3-5.9,6.4-9.9,9.3c-0.9,0.6-2.8,1.7-3.6,2.3
				c-0.6,0.5-0.9,1.1-0.3,2c1.1,1.7,7,3.5,11,1.8c4-1.7,8.4-6.3,10.9-7.9c0.9-0.6,1.8-1.2,2.7-1.9c0.8-0.6,0.9-1.4,1.1-2.3
				c0.1-0.4,0.4-1.6,0.4-1.6c1-2,12.1-12.4,13.9-14.5L317.9,324.4z"/>
			<g>
				<path class="stw12" d="M315.5,356.7c0,0-0.2,1-0.5,1.5c-0.5,0.7-4,1.8-5.3,2.1c-1.3,0.3-2.8,0.9-4.4,3.1
					c-1.7,2.3-4.5,3.7-7.5,4.4c-3,0.7-7.2,0.7-11.8-1.2c-4.7-1.9-4.5-4.8-4.5-4.8s0.3-2.7,1.6-2.9
					C284.4,358.8,315.5,356.7,315.5,356.7z"/>
				<path id="XMLID_431_" class="stw13" d="M317,346.3c0.1,0.1,0.3,0.2,0.4,0.8c0,0.2-0.7,2.5-0.8,3.8c-0.2,1.4,0,4.2-1,5.8
					c-3.1,2.1-7.3,1.9-9.8,4.2c-2.5,2.3-5,5.3-11.6,5.3c-6.6,0-11-3.1-11.8-5.1c-0.8-2,0.6-3.5,5.1-4.9c4.8-1.4,11.9-7.2,11.9-7.2
					c1-0.8,1.9-1.7,2.8-2.6c0.8-0.9,1.4-2.1,2.1-3.2c0.3-0.5,0.7-1,1.3-1.2c0.6-0.2,1.2,0,1.7,0.1c0.9,0.3,1.8,0.5,2.6,1
					c0.8,0.5,1.6,1.1,1.9,2c0.3,0.6,0.3,1.3,0.6,1.9c0.4,0.8,1.4,1.3,2.3,1.2c1.3-0.1,1.7-0.8,2-1.4
					C316.7,346.8,317,346.3,317,346.3z"/>
				<path class="stw10" d="M298.6,365.5c0,0,1-4.4-3.3-7.8c-4.3-3.4-7.5-2.5-9.2-1.7c-2,0.9-5,3-3.9,5.2c1.2,2.4,3.6,3.9,8.5,5
					C295.6,367.2,298.6,365.5,298.6,365.5z"/>
				<g>
					<path class="stw10" d="M308.2,352c-0.2,0-0.3-0.2-0.4-0.3c-0.4-0.9-3.3-4.4-6.8-4.2c-0.1-0.4,0.3-0.8,1-1
						c3.6,0.4,6.4,3.7,6.8,4.8c0.1,0.3,0,0.6-0.3,0.7C308.4,352,308.3,352.1,308.2,352z"/>
					<path class="stw10" d="M298.5,349.7c0.2-0.5,0.8-0.9,1.2-1c3.4,0.6,5.9,3.7,6.4,4.7c0.1,0.3,0,0.6-0.3,0.7c-0.1,0-0.2,0.1-0.3,0
						c-0.2,0-0.3-0.2-0.4-0.3C304.7,353,301.9,349.6,298.5,349.7z"/>
					<path class="stw10" d="M292.1,354c0.4-0.5,1-0.9,1.8-1.1c3.5,0.5,6.2,3.7,6.7,4.8c0.1,0.3,0,0.6-0.3,0.7c-0.1,0-0.2,0.1-0.3,0
						c-0.2,0-0.3-0.2-0.4-0.3C299.1,357.2,295.9,353.3,292.1,354z"/>
					<path class="stw10" d="M302.7,356.3c-0.2,0-0.3-0.2-0.4-0.3c-0.4-0.9-3.2-4.3-6.7-4.2c0.2-0.5,0.7-0.8,1.4-1
						c3.4,0.6,5.9,3.7,6.4,4.7c0.1,0.3,0,0.6-0.3,0.7C302.9,356.3,302.8,356.3,302.7,356.3z"/>
				</g>
			</g>
		</g>
		<g id="XMLID_769_">
			<g id="XMLID_770_">
				<path id="XMLID_773_" class="stw13" d="M396.3,257.8c-0.1,7.1-0.1,12.7-3.8,19.2c-3.8,6.5-11,10.2-21.8,13.8
					c-8.9,3-32.2,4.1-36,4.8c-2.6,0.5-5.7,0.8-7.4,4.4c-2,4.2-2.5,4.6-7.8,10c-6.9,6.9-8.4,8.4-13.5,13.1
					c-3.5,1.1-10.4-3.3-12.4-6.7c0,0,15.2-28.3,19.1-33.4c4.2-5.4,28.3-13,39.4-16.3c3.7-1.1,23.5-5.2,23.5-5.2L396.3,257.8z"/>
				<path id="XMLID_289_" class="stw13" d="M396.3,257.8c-0.1,7.1-0.1,12.7-3.8,19.2c-3.8,6.5-11,10.2-21.8,13.8
					c-8.9,3-32.2,4.1-36,4.8c-2.6,0.5-5.7,0.8-7.4,4.4c-2,4.2-2.5,4.6-7.8,10c-6.9,6.9-8.4,8.4-13.5,13.1
					c-3.5,1.1-10.4-3.3-12.4-6.7c0,0,15.2-28.3,19.1-33.4c4.2-5.4,28.3-13,39.4-16.3c3.7-1.1,23.5-5.2,23.5-5.2L396.3,257.8z"/>
				<path class="stw12" d="M334.6,295.6c3.7-0.7,27-1.8,36-4.8c0,0,0,0,0,0c10.8-3.6,18.1-7.3,21.8-13.8c0.3-0.5,0.5-1,0.8-1.5
					c0.1-0.1,0.1-0.2,0.2-0.3c0,0,0,0,0,0c0.2-0.4,0.4-0.8,0.6-1.2c0,0,0-0.1,0-0.1c0,0,0-0.1,0.1-0.1c0.4-1,0.8-2,1-3l-19.1-3.5
					c0,0-0.5,6.2,1,11.1c0,0-28.6,7.1-34.3,9.2c-6.6,2.5-15.1,3.8-16.5,9.5c-0.8,3.3-2.4,7.4-7.1,13.2c0.1-0.1,0.1-0.1,0.2-0.2
					c5.3-5.4,5.8-5.8,7.8-10C329,296.3,332,296.1,334.6,295.6z"/>
				<path id="XMLID_771_" class="stw13" d="M315.7,326.9c2.9,6.3,11.7,8.8,11.7,8.8s5.5-4.8,12.7-11.5c4.3-3.9,5.7-6.6,8.2-10.5
					c2.2-3.5,5.3-3.1,7.9-3.7c2.6-0.6,26.8-2.8,36-4.8c8.2-1.8,13.9-4.8,18.6-10.7c0.5-0.6,1-1.3,1.4-1.9c2.6-3.8,4.2-8.5,5.8-16.6
					l-32.7-10.4l-9.9-3.2l-0.2-0.1c0,1,0.7,4.2,0.9,5.3c1.1,6.1,4.1,12.3,4.3,12.7c0,0,0,0,0,0s-39.3,9.4-44.8,16.6
					C331.6,302.1,315.7,326.9,315.7,326.9z"/>
			</g>
		</g>
	</g>
	<path class="stw12" d="M403.1,170.8c3.5-2.1,13.8-4.7,22.3,1.7c8.5,6.4,7.9,15.7,8.1,26.9c0.1,7.6,1.4,16.6,4.9,23
		c3.8,7.1,5.2,14.8-1.5,20.3c-6.8,5.5-25.2,5.2-32.5,3.3c-7.3-1.9-21-8.7-17.4-21.2c3.6-12.4,9.7-10.5,11-19.3
		C399.2,196.7,403.1,170.8,403.1,170.8z"/>
	<g>
		<g>
			<path class="stw18" d="M367.7,213.9c0.1-0.6,0.5-2.1,0.7-2.7c1.4-4.2,0.8-8.8,0-13.1c-0.1-0.7-0.3-1.5-0.5-2.2
				c-0.1-0.4-0.2-0.7-0.2-1.1c0-0.3-0.1-0.6-0.5-0.7c-0.3-0.1-0.6,0-0.9,0.2c-0.9,0.5-1.4,1.5-1.5,2.5c-0.2,1-0.1,2-0.1,3
				c0,0.8-0.7,0.2-1-0.1c-1.5-1.5-2.2-4.7-2.6-6.7c-0.3-1.3-0.4-2.7-0.9-3.9c-0.3-0.8-0.8-1.5-1.5-2c-0.5-0.3-1-0.4-1.3,0.2
				c-0.2,0.4-0.2,0.9-0.2,1.3c0,0.9,0,1.7-0.7,2.4c-0.4,0.4-1,0.8-1.3,1.3c-0.4,0.7-0.4,1.5-0.7,2.2c-0.3,0.6-0.9,1-1.2,1.6
				c-0.4,0.6-0.3,1.7-0.3,2.3c-0.1,1.6,0.1,3.3,0.4,4.8c0.5,2.4,1.4,4.7,2.5,7c0.6,1.2,1.2,2.5,1.2,3.9c0,1.4-0.3,2.7-0.5,4.1
				c-0.3,1.7-0.6,3.4-1,5.1c-4.2,14.7-3.5,17.3-1.3,23.1c0.8,2,3.9,5.4,11.4,2.3c8.3-3.5,25.9-14.2,25.9-14.2l11.1-19.2
				c0,0-2.4-0.7-5.3-1.1c-2.7-0.3-6.3,1-9.2,3c-6,4.1-21.4,14.8-21.4,14.8S367.5,216.4,367.7,213.9z"/>
			<path class="stw19" d="M363.8,202.8c-1.2,2.2-1.6,5.8-1.3,7.4c0,0-0.9-2.1-0.6-4C362.4,204.1,363,203.4,363.8,202.8z"/>
		</g>
		<g>
			<path class="stw11" d="M402.5,215.2c-2.3-0.6-4.7-1.9-9.6-0.6c-4.9,1.3-23.7,15.2-24.6,15.6c-0.9,0.3-1.6,0.6-1.6,0.6l-0.1,1.4
				c0,0,2.6,5.9,2.1,9.9c-0.5,4-2.1,6.2-2.1,6.2s1,1.2,2.7,0.7c1.7-0.6,3.5-2.4,5-3.3c1.5-0.8,20.3-11.7,20.3-11.7L402.5,215.2z"/>
			<path class="stw5" d="M402.5,215.2c-2.3-0.6-4.7-1.9-9.6-0.6c-4.9,1.3-23.7,15.2-24.6,15.6c-0.9,0.3-1.6,0.6-1.6,0.6l-0.1,1.4
				c0,0,2.6,5.9,2.1,9.9c-0.5,4-2.1,6.2-2.1,6.2s1,1.2,2.7,0.7c1.7-0.6,3.5-2.4,5-3.3c1.5-0.8,20.3-11.7,20.3-11.7L402.5,215.2z"/>
			<path class="stw8" d="M366.7,232.1c1.3,1.7,4.5,9.3,0,16.1c0,0-2.7,1.5-5.2,1.7c2.2-1.6,5.7-7.1,5.2-16.5L366.7,232.1z"/>
		</g>
	</g>
	<path id="XMLID_767_" class="stw14" d="M417.7,218.2l8.6,3.2c0,0,3.7,2.3,3.8,13.1c0.1,5,0,7.8-1.4,14.4
		c-4.1,22.5-13.2,37.2-13.2,37.2s-11.1-2.9-23.3-10c-13.1-7.6-16.7-14.6-16.7-14.6l10-8l2.6-12c0,0-4.8-5.3-2.5-11.4
		c3.3-8.5,16.9-15,16.9-15L417.7,218.2z"/>
	<g id="XMLID_718_">
		<path id="XMLID_731_" class="stw18" d="M398.7,176.7c-1.2,1.1-5.3,5.1-5.3,18.4c0,11.4,3.2,14.1,4.9,15c1.8,0.9,4.7,0.9,8.1,0.6
			l-0.4,5.5c0,0-16.5,11.9-6.5,15.3c10,3.4,21.3-11.8,21.3-11.8l1.2-16.1c0,0,1.9,2.1,5.5-0.6c3-2.3,4.3-6.3,2.3-8.8
			c-2-2.4-6.1-2.1-8,1c0,0-8-3.3-6.1-16.4C408.9,179.5,402.5,179.5,398.7,176.7z"/>
		<g>
			<path id="XMLID_729_" class="stw12" d="M406.2,193c-0.1,0.8,0.4,1.5,1.2,1.6c0.8,0.1,1.5-0.5,1.6-1.3c0.1-0.8-0.4-1.5-1.2-1.6
				C407,191.6,406.3,192.2,406.2,193z"/>
			<path id="XMLID_727_" class="stw12" d="M399.9,186.5l-3.3,1.1c0.3,0.9,1.2,1.4,2.2,1.1C399.7,188.5,400.2,187.4,399.9,186.5z"/>
			<path id="XMLID_288_" class="stw12" d="M410.6,189.3l-2.9-2c-0.6,0.8-0.4,1.9,0.4,2.4C408.9,190.2,410,190,410.6,189.3z"/>
			<path id="XMLID_722_" class="stw12" d="M395.5,191.8c-0.1,0.8,0.4,1.5,1.2,1.6c0.8,0.1,1.5-0.5,1.6-1.3c0.1-0.8-0.4-1.5-1.2-1.6
				C396.3,190.4,395.6,191,395.5,191.8z"/>
			<polygon id="XMLID_720_" class="stw19" points="403.1,190.4 402.2,199.4 397.4,197.9 			"/>
			<path id="XMLID_719_" class="stw19" d="M406.4,210.8c2.1-0.1,5.7-0.9,8.5-2.4c2.1-1.1,3.5-2.8,4.1-4.1c0,0-0.2,2.8-3.4,5.3
				c-3.5,2.8-9.4,3.4-9.4,3.4L406.4,210.8z"/>
			<circle class="stw19" cx="405" cy="203.4" r="1.6"/>
		</g>
		<path class="stw12" d="M408.4,169c-6.1-1.5-12.2,1.2-15,5.5c-2.9,4.4-2.2,9.5-2.2,9.5l5.5,1c0.1-1.9,0.9-4.1,1.9-6.5
			c-0.6,2.5-0.7,4.9-0.2,7c0,0,3.9,0.7,8.6,1.1c0.2-2.4,0.6-4.7,1.5-6.9c-0.3,2.5-0.3,4.8,0,7c2.2,0.1,6.1,0.3,7.9,0.2l3.5-12.9
			C419.9,173.9,412.8,170,408.4,169z"/>
	</g>
	<g>
		<g>
			<path class="stw18" d="M490.4,241.7c-0.7-0.3-1.6-0.4-2.4-0.3c-1.3,0.2-2.5,0.9-3.8,1.3c-2,0.6-5.1,1.7-7.1,1.2
				c-0.4-0.1-1.2-0.4-0.6-0.8c0.9-0.5,1.8-1,2.5-1.7c0.8-0.7,1.4-1.6,1.4-2.6c0-0.3-0.1-0.6-0.3-0.9c-0.3-0.3-0.6-0.2-0.9,0
				c-0.3,0.2-0.7,0.3-1,0.4c-0.7,0.3-1.4,0.5-2.1,0.7c-4.1,1.5-8.3,3.3-11.2,6.7c-0.4,0.5-1.4,1.6-1.9,2c-2,1.5-18.3,8.8-18.3,8.8
				s-5.9-17.8-8.2-24.7c-1.1-3.3-2.8-6.8-5.2-8.1c-2.5-1.5-4.4-1.9-4.4-1.9c-6.1,7.1-6.3,14.1-3.4,21.8c0,0,7.6,19.1,12.2,26.9
				c0.3,0.5,0.6,1,1,1.5c0,0,0,0.1,0.1,0.1c1.5,1.9,4,2.7,9.1,0.5c3.3-1.4,7.7-4.1,13.5-8.6c2.1-1.6,7.7-6.2,8.9-6.9
				c1.2-0.7,2.6-0.9,4-1c2.5-0.3,4.9-0.7,7.2-1.5c1.5-0.5,3-1.2,4.4-2.1c0.6-0.4,1.5-0.9,1.8-1.5c0.3-0.6,0.3-1.3,0.7-1.8
				c0.4-0.6,1.2-1,1.5-1.7c0.3-0.5,0.3-1.2,0.5-1.8c0.2-0.9,0.9-1.4,1.7-1.8c0.4-0.2,0.8-0.5,1-0.8
				C491.2,242.4,490.9,242,490.4,241.7z"/>
			<path class="stw19" d="M474.4,245.4c-1.3,2.2-4.1,4.4-5.6,4.9c0,0,2.3-0.3,3.7-1.6C474,247.3,474.3,246.4,474.4,245.4z"/>
		</g>
		<g>
			<path class="stw11" d="M426.3,221.4c4,1.2,6.2,2.2,8.2,5.3c2,3,7.6,21,8.7,23.8c1.2,2.8,2.8,4.3,1.4,6.1c0,0-8.7,3.4-11.7,9
				c-2.5,1.1-2-2-2.8-3.8c-0.8-1.7-8.5-20.2-8.5-20.2S417.3,228.4,426.3,221.4z"/>
			<path class="stw5" d="M426.3,221.4c4,1.2,6.2,2.2,8.2,5.3c2,3,7.6,21,8.7,23.8c1.2,2.8,2.8,4.3,1.4,6.1c0,0-8.7,3.4-11.7,9
				c-2.5,1.1-2-2-2.8-3.8c-0.8-1.7-8.5-20.2-8.5-20.2S417.3,228.4,426.3,221.4z"/>
			<path class="stw8" d="M444.6,256.5c0,0-4.7,3.2-7.8,8.2c-1.5,2.4-1.7,5-1.7,5l-2.2-4.2C432.9,265.6,434.1,259.9,444.6,256.5z"/>
		</g>
	</g>
	<g>
		<path class="stw10" d="M409.5,222l-7,6.3l3.5-12c0,0-16.5,11.9-6.5,15.3c10,3.4,21.3-11.8,21.3-11.8l0-0.4L409.5,222z"/>
		<g>
			<path class="stw20" d="M402.5,228.2c0,0,5.6-6.7,7.1-7.7c1.5-1,6.8,1.2,11.4-3l0.2-2.3c0,0,0.5-0.1,1.2,1.6
				c0.7,1.7,1.5,3.8,1.5,3.8s-0.2,3.6-4.4,6.4c-5.1,3.4-7.6,3.8-8.3,1.2c-0.8-2.8-2-4.7-2-4.7L402.5,228.2z"/>
			<path class="stw20" d="M402.5,228.2l3.5-12l0.2-2.9c-0.7-0.2-1.4,0.9-2.4,2c-0.9,1.1-6.4,6.3-5.6,8.7c1-1.4,3.8-2.7,4.4-2.7
				L402.5,228.2z"/>
		</g>
	</g>
</g>
<g id="Character_1">
	<g id="Couch">
		<g>
			<path id="XMLID_423_" class="stw10" d="M120,391h-11.4l1.8,11.1h0c0.1,0.5,0.4,1,1.1,1.4c1.5,0.9,4,0.9,5.5,0
				c0.7-0.4,1-0.9,1.1-1.4h0L120,391z"/>
			<path id="XMLID_531_" class="stw10" d="M56.9,357.1H45.5l1.8,11.1h0c0.1,0.5,0.4,1,1.1,1.4c1.5,0.9,4,0.9,5.5,0
				c0.7-0.4,1-0.9,1.1-1.4h0L56.9,357.1z"/>
			<path id="XMLID_356_" class="stw10" d="M205.3,341.8h-11.4l1.8,11.1h0c0.1,0.5,0.4,1,1.1,1.4c1.5,0.9,4,0.9,5.5,0
				c0.7-0.4,1-0.9,1.1-1.4h0L205.3,341.8z"/>
			<path id="XMLID_355_" class="stw10" d="M145.9,309.7h-11.4l1.8,11.1h0c0.1,0.5,0.4,1,1.1,1.4c1.5,0.9,4,0.9,5.5,0
				c0.7-0.4,1-0.9,1.1-1.4h0L145.9,309.7z"/>
		</g>
		<g id="XMLID_1314_">
			<path id="XMLID_347_" class="stw13" d="M212.9,285v53.1c0,3.5-2.5,7.8-5.5,9.6l-4.5,2.6c0,0-0.1,0-0.1,0c-1.8,1-4.6,1.5-6.9,1.2
				l-67.6,35.8c-0.2,3.4-2.5,7.5-5.5,9.2c0,0,0,0-0.1,0l-4.5,2.6c-0.1,0.1-0.3,0.2-0.4,0.2c-0.1,0.1-0.2,0.1-0.2,0.1
				c0,0-0.1,0-0.1,0c-2.5,1.1-5.9,1.3-8.6,0.4c-0.3-0.1-0.7-0.2-1-0.4c-0.1,0-0.1,0-0.2-0.1c-0.2-0.1-0.4-0.2-0.7-0.3l-65.1-37.5
				c-3-1.8-5.5-6.1-5.5-9.6l-0.1-67.2l0-23.3c0-3.5,2.5-7.8,5.5-9.6l72.8-41.9c3-1.8,7.6-1.6,10.7,0.2l4.5,2.6c3,1.8,5.9,6,6.4,9.5
				l4.3,26.2l4-2.3c3.7-2.2,8.3-2.2,12,0l50.7,29.3C210.5,277.2,212.9,281.5,212.9,285z"/>
			<path id="XMLID_1315_" class="stw8" d="M130,212.8l-4.5-2.6c-3.1-1.8-7.6-1.9-10.7-0.2l-72.8,41.9c-0.3,0.2-0.7,0.4-0.6,0.4
				c-2.5,1.8-4.6,5.2-4.9,8.3c0.4-2.8,2.7-3.8,5.5-2.3c-0.4-0.2,4.5,2.6,4.5,2.6c3.1,1.8,8,1.8,11,0l72.4-41.8
				C133.1,217.4,133.1,214.5,130,212.8z"/>
		</g>
		<g id="XMLID_1310_">
			<path id="XMLID_1313_" class="stw12" d="M212.9,285v53.1c0,3.5-2.5,7.8-5.5,9.6l-4.5,2.6c0,0-0.1,0-0.1,0c-1.8,1-4.2,1.4-6.5,1.2
				c-1.6-0.1-3.2-0.5-4.5-1.3l-51.1-29.5c-3-1.7-5.5-6.1-5.5-9.6v-53.1c0-3.5,2.5-7.8,5.5-9.6l4-2.3c3.7-2.2,8.3-2.2,12,0l50.7,29.3
				C210.5,277.2,212.9,281.5,212.9,285z"/>
			<path id="XMLID_1312_" class="stw8" d="M144.7,246.2l-4,2.3c-3,1.8-3,4.6,0,6.4l51.1,29.5c3,1.8,5.5,6.1,5.5,9.6l0,53.1
				c0,3.5,2.5,4.9,5.5,3.2l4.5-2.6c3-1.8,5.5-6.1,5.5-9.6V285c0-3.5-2.5-7.8-5.5-9.6l-50.7-29.2C153,244,148.5,244,144.7,246.2z"/>
			<path id="XMLID_1311_" class="stw13" d="M197.4,294l0,53.1c0,3.5,2.5,4.9,5.5,3.2l4.5-2.6c3-1.8,5.5-6.1,5.5-9.6V285
				c0-1.8-0.6-3.7-1.6-5.4l-15.5,9C196.8,290.3,197.4,292.2,197.4,294z"/>
		</g>
		<g id="XMLID_488_">
			<path id="XMLID_1309_" class="stw12" d="M195.1,351.5c-0.5,1.1-1.2,2.1-2,3c-1.2,1.3-3.7,2.8-5.2,3.6
				c-19.4,11.2-33.4,19.3-52.9,30.5c-1.5,0.9-4,0.9-5.5,0l-18-10.4l-35.9-20.7c-3-1.8-5.5-5.9-5.5-9.2c0-3.3,2.5-7.4,5.5-9.2
				L96,327.4l15.6-9l16.9-9.7c1.5-0.9,3.5-1.3,5.5-1.3c2,0,4,0.4,5.5,1.3l51.1,29.5c3,1.8,5.5,5.9,5.5,9.2
				C196.1,348.7,195.7,350.1,195.1,351.5z"/>
			<path id="XMLID_1308_" class="stw13" d="M135,376.7l58.3-33.7c1.5-0.9,2.8-0.2,2.8,1.6v5.6c0,1.8-1.2,3.9-2.8,4.8L135,388.7
				c-1.5,0.9-2.8,0.2-2.8-1.6l0-5.6C132.2,379.7,133.5,377.6,135,376.7z"/>
		</g>
		<g id="XMLID_477_">
			<path id="XMLID_346_" class="stw13" d="M128.4,281.4l-52.8,30.5c-3.1,1.8-5.5,6-5.5,9.6l0,11.2c0,3.5,2.5,7.8,5.5,9.6l51.1,29.5
				c3.1,1.8,8,1.8,11,0l52.8-30.5c3.1-1.8,5.5-6,5.5-9.6v-11.2c0-3.5-2.5-7.8-5.5-9.6l-51.1-29.5
				C136.4,279.6,131.5,279.6,128.4,281.4z"/>
			<path id="XMLID_345_" class="stw12" d="M132.2,349.1V373c-2,0-4-0.4-5.5-1.3l-51.1-29.5c-3-1.8-5.5-6-5.5-9.6v-11.2
				c0-3.3,2.2-7.3,5-9.2c-2.5,1.8-2.3,4.4,0.6,6l51.1,29.5C128.3,348.6,130.2,349.1,132.2,349.1z"/>
			<path id="XMLID_479_" class="stw8" d="M137.8,347.7l52.8-30.5c3.1-1.8,3.1-4.6,0-6.4l-51.1-29.5c-3.1-1.8-8-1.8-11,0l-52.8,30.5
				c-3.1,1.8-3.1,4.6,0,6.4l51.1,29.5C129.8,349.5,134.7,349.5,137.8,347.7z"/>
		</g>
	</g>
	<g>
		<path class="stw21" d="M178.4,376.3c-0.7-9.4,5.7-33.6,5.7-33.6l-17.3-10.2c0,0-0.8,5.9-1.8,13.9c-1,8-2.7,11.2-2.7,11.2
			s-3.2,4.1-3.1,6.8c0.1,2.7,2.5,8.8,3.9,13.6c1.4,4.7,2.3,8.4,5.2,13c2.8,4.4,15.2,7.9,14.5,3.2
			C181.7,387.7,179.2,383.9,178.4,376.3z"/>
		<path id="XMLID_271_" class="stw8" d="M162.2,357.6c-1-0.1-2.2,1.7-3,3c-0.8,1.3-3,2.3-2.6,5.5c0.4,3.3,3.3,5.7,3.9,10.1
			c0.5,4.5,0.8,12.1,7.3,17.5c6.6,5.4,13.4,5.8,15.9,4.3c0.8-0.4,1.3-1.1,1.5-2c0.2-0.9,0-1.3-0.4-2.1c-0.8-1.6-1.5-3.3-2.1-5
			c-1.3-3.4-2.6-7.1-3.3-10.7c-0.5-2.4-0.6-4.5-1.2-4.9c-1.9-1.2-2.7-1.2-4.9-1.5c-2.6-0.3-4-0.2-4.4,0c-0.5,0.3-0.4,1-0.4,1.6
			c-0.1,0.8-0.1,1.5-0.2,2.3c0,0.2,0,0.4-0.1,0.5c-0.1,0.2-0.3,0.3-0.4,0.2c-0.2,0-0.3-0.2-0.4-0.4c-1.2-2.6-1.7-5.4-2.4-8.2
			c-0.5-1.9-1-3.1-1.7-4.9c-0.4-1-1.1-2.5-1.4-3.4c-0.3-0.8-0.2-1.2,0-1.5L162.2,357.6z"/>
	</g>
	<g>
		<path id="XMLID_317_" class="stw21" d="M192.7,377.9c0,0,5.4,12.9,8.4,17.6c3,4.7,6.7,9.4,11.5,13.3c1,0.9,3.3,2.4,4.2,3.1
			c0.8,0.6,1,1.4,0.3,2.4c-1.5,2-8.9,3.7-13.7,1.3c-4.8-2.4-10-7.7-12.9-9.8c-1.5-1.1-2.9-2.1-3.9-2.8c-1-0.7-0.9-1.2-0.8-2.4
			l-0.5-1.9c-0.8-4-6.8-12.7-6.8-12.7L192.7,377.9z"/>
		<path id="XMLID_323_" class="stw8" d="M185.2,398.8c-0.9,0.5-0.8,2.7-0.8,4.2c0,1.5-1.2,3.6,1,6c2.2,2.5,6,2.8,8.9,6.2
			c3,3.4,7.5,9.5,15.9,10.2c8.4,0.7,14.4-2.8,15.6-5.4c0.4-0.8,0.4-1.6,0.1-2.5c-0.3-0.8-0.8-1-1.5-1.5c-1.6-0.9-3.1-1.9-4.6-2.9
			c-3-2.1-6.2-4.4-8.8-6.9c-1.7-1.7-3-3.4-3.7-3.4c-2.3,0.1-3,0.5-4.9,1.5c-2.3,1.2-3.4,2.1-3.6,2.5c-0.3,0.6,0.3,1.1,0.6,1.6
			c0.4,0.7,0.8,1.3,1.1,2c0.1,0.1,0.2,0.3,0.2,0.5c0,0.2-0.1,0.4-0.2,0.4c-0.2,0.1-0.4,0-0.5-0.1c-2.5-1.4-4.4-3.5-6.6-5.4
			c-1.5-1.3-2.1-1.8-3.8-2.9c-0.9-0.6-2.2-1.2-3.1-1.8c-0.7-0.4-1-0.6-1.1-1L185.2,398.8z"/>
	</g>
	<path class="stw14" d="M184.9,355.8c0.8-6.5,1.9-16.5,2.6-23.1c1.1-10.6,1.7-21.6-0.5-26.2c-2-4.4-11.6-9.7-21.7-15.1
		c-10.1-5.4-28-13.8-28-13.8l-51.2,10.7c1.6,8.9,2.3,13.3,7.3,21.1c4.8,7.5,11.1,12.1,23.4,17.7c11,5,24,10.3,26.9,11.6
		c3.6,1.6,7,2.8,9,8.3c1.8,5.2,4.4,14.3,11.6,25c8.3,12.2,15.6,23.1,15.6,23.1s12.3,0.7,18.3-9.2
		C198.2,385.7,191.8,371.2,184.9,355.8z"/>
	<path class="stw16" d="M184.9,355.8c0.8-6.5,1.9-16.5,2.6-23.1c1.1-10.6,1.7-21.6-0.5-26.2c-2-4.4-11.6-9.7-21.7-15.1
		c-10.1-5.4-28-13.8-28-13.8l-51.2,10.7c1.6,8.9,2.3,13.3,7.3,21.1c4.8,7.5,11.1,12.1,23.4,17.7c11,5,24,10.3,26.9,11.6
		c3.6,1.6,7,2.8,9,8.3c1.8,5.2,4.4,14.3,11.6,25c8.3,12.2,15.6,23.1,15.6,23.1s12.3,0.7,18.3-9.2
		C198.2,385.7,191.8,371.2,184.9,355.8z"/>
	<path class="stw17" d="M183.2,352.1c-6.5-14.4-13-28.7-14.8-31.7c-3.8-6.4-34-23.3-35-23.8c0,0,0,0,0,0l1.3-2
		c2.2-3.9,2.4-7.8,2.4-7.8c0.4,3.7-0.1,6.9-0.8,8.7c4.6,2.7,16.5,9.6,21.2,12.5c6,3.7,12.4,8.2,15.3,15
		C175,328.1,180.5,344.1,183.2,352.1z"/>
	<path class="stw11" d="M176.3,390.2l3,5c0,0,14.7,1.4,19.2-9.5l-2.3-5C194.2,386.8,183.5,391.3,176.3,390.2z"/>
	<g id="Arm_4_">
		<path class="stw21" d="M112.3,219.3c11.5-1.1,14.3,3.6,17.1,8.2c4.7,7.8,13.6,32.7,13.6,32.7l33.4,15.1l-5.8,10.9
			c0,0-31.3-9.2-35.7-11.2c-2.7-1.2-4.2-2-6.2-5.7c-4-7.3-10.3-21.1-10.3-21.1L112.3,219.3z"/>
		<path class="stw1" d="M112.3,219.1c3.4-0.5,8.4-0.3,11.9,2c3.5,2.2,5,4.9,9.2,13.4c4.2,8.5,9.9,25.5,9.9,25.5l6.9,3.4
			c-2.9,1.2-8.1,10.5-6.9,14.5c0,0-7.5-2.4-10.3-3.2c-2.8-0.9-3.5-2.8-5.8-6.9c-2.3-4.1-9.5-19.9-9.5-19.9S111,219.6,112.3,219.1z"
			/>
		<path class="stw7" d="M112.3,219.1c3.4-0.5,8.4-0.3,11.9,2c3.5,2.2,5,4.9,9.2,13.4c4.2,8.5,9.9,25.5,9.9,25.5l6.9,3.4
			c-2.9,1.2-8.1,10.5-6.9,14.5c0,0-7.5-2.4-10.3-3.2c-2.8-0.9-3.5-2.8-5.8-6.9c-2.3-4.1-9.5-19.9-9.5-19.9S111,219.6,112.3,219.1z"
			/>
		<path class="stw17" d="M143.3,260c-1.7-0.4-6.2,0.8-8.9,2.7c0,0,2.1-3.5,8.4-4.2L143.3,260z"/>
	</g>
	<g id="Chest_1_">
		<path id="XMLID_314_" class="stw1" d="M91.4,223.3l-11.8,4.5c-2.3,1.1,1.9,15,2.9,31.4c1.1,16.8,4.3,37.9,4.3,37.9s13,3.6,31.8-4.5
			c16.6-7.2,18.7-15.1,18.7-15.1l-5.2-7.3l-1.8-15.3c0,0,6-8.5,1-18c-5-9.4-18.9-17.8-18.9-17.8l-6.2,1L91.4,223.3z"/>
		<path id="XMLID_281_" class="stw6" d="M91.4,223.3l-11.8,4.5c-2.3,1.1,1.9,15,2.9,31.4c1.1,16.8,4.3,37.9,4.3,37.9s13,3.6,31.8-4.5
			c16.6-7.2,18.7-15.1,18.7-15.1l-5.2-7.3l-1.8-15.3c0,0,6-8.5,1-18c-5-9.4-18.9-17.8-18.9-17.8l-6.2,1L91.4,223.3z"/>
		<path class="stw5" d="M95.9,259.8c0,0,4.4,5.8,12.5,4.6c7.4-1.1,10-7.6,10-7.6s-0.5,8.5-10.5,9.8C97.8,267.8,95.9,259.8,95.9,259.8
			z"/>
	</g>
	<g id="Head_2_">
		<g id="XMLID_301_">
			<path id="XMLID_303_" class="stw21" d="M115.7,179.2c2.7,1.5,6.1,8,6.1,21.8c0,11.7-3.7,14.7-5.5,15.6c-1.9,0.9-5.6,0.5-9.1,0
				l0.1,4.8c4.9,7.3,6.5,12,8.6,19c-9.2-7-12.5-9.4-24.1-15.8l-0.3-16.2c0,0-2,2.1-5.7-0.9c-3-2.5-4.1-6.8-1.9-9.2
				c2.2-2.4,6.5-1.9,8.2,1.4c0,0-1.6-14.1,5.8-18.4C105.2,176.8,115.3,183.7,115.7,179.2z"/>
		</g>
		<g>
			<g id="XMLID_3958_">
				<path id="XMLID_292_" class="stw22" d="M107.3,208l3.8,1c-0.3,1.1-1.3,1.7-2.3,1.4C107.7,210.1,107.1,209,107.3,208z"/>
			</g>
			<g id="XMLID_3956_">
				<path id="XMLID_3957_" class="stw8" d="M119.5,191l-3.8-0.9c0.2-1.1,1.2-1.7,2.3-1.5C119,188.8,119.7,189.9,119.5,191z"/>
			</g>
			<g id="XMLID_304_">
				<path id="XMLID_308_" class="stw8" d="M102.4,193.5l3.4-2c-0.5-1-1.7-1.3-2.6-0.7C102.2,191.4,101.9,192.6,102.4,193.5z"/>
			</g>
			<g id="XMLID_3954_">
				<path id="XMLID_3955_" class="stw12" d="M119.2,196.4c0.1,0.9-0.5,1.7-1.4,1.8c-0.9,0.1-1.7-0.6-1.8-1.5
					c-0.1-0.9,0.5-1.7,1.4-1.8C118.3,194.8,119.1,195.5,119.2,196.4z"/>
			</g>
			<g id="XMLID_293_">
				<path id="XMLID_294_" class="stw12" d="M106.9,197.7c0.1,0.9-0.5,1.7-1.4,1.8c-0.9,0.1-1.7-0.6-1.8-1.5c-0.1-0.9,0.5-1.7,1.4-1.8
					C106,196.1,106.8,196.8,106.9,197.7z"/>
			</g>
			<g id="XMLID_3950_">
				<path id="XMLID_3951_" class="stw22" d="M107.1,216.5c-3.8-0.4-11.6-2.4-12.9-5.4c0,0,0.5,1.9,2.8,3.8c2.4,1.9,10.1,3.9,10.1,3.9
					L107.1,216.5z"/>
			</g>
			<g>
				<path class="stw22" d="M102.8,197.1c-0.1-0.1-0.1-0.1-0.2-0.2c-0.2-0.1-0.3-0.1-0.5-0.2c-0.2-0.1-0.4-0.1-0.7-0.2
					c-0.2-0.1-0.4-0.1-0.6-0.2c-0.1,0-0.2-0.1-0.4-0.1c-0.2,0-0.3,0-0.5,0c-0.1,0-0.1,0.2-0.1,0.3c0,0.1,0.2,0.2,0.3,0.3
					c0.1,0,0.2,0.1,0.3,0.1c0.1,0,0.1,0,0.2,0c0,0,0.1,0,0.1,0c0,0,0,0,0,0c0.1,0,0.1,0,0.2,0c0.2,0.1,0.4,0.1,0.6,0.2
					c0.3,0.1,0.5,0.2,0.8,0.2c0.1,0,0.3,0,0.4-0.1C102.8,197.3,102.8,197.2,102.8,197.1z"/>
				<path class="stw22" d="M102.7,198.3c-0.1-0.2-0.4-0.3-0.6-0.3c-0.3,0-0.7-0.1-1,0c-0.4,0-0.8,0-1.1,0.1c-0.4,0-0.1,0.6,0.1,0.6
					c0.5,0,0.9,0,1.4-0.1c0.2,0,0.4,0,0.6,0c0.1,0,0.2,0,0.3,0c0.1,0,0.1,0,0.2,0c0.1,0,0.1,0,0.2-0.1
					C102.7,198.4,102.7,198.3,102.7,198.3z"/>
				<path class="stw22" d="M102.6,199.1c-0.1-0.1-0.2,0-0.3,0c-0.1,0-0.2,0-0.2,0.1c-0.2,0.1-0.3,0.1-0.5,0.2
					c-0.2,0.1-0.3,0.1-0.5,0.1c-0.1,0-0.1,0-0.2,0.1c-0.1,0-0.2,0.1-0.3,0.1c-0.1,0-0.1,0.1-0.1,0.2c0,0,0,0,0,0
					c0,0.1,0.1,0.2,0.2,0.3c0.1,0,0.1,0.1,0.2,0c0,0,0,0,0.1,0c0.1,0,0.1,0,0.2,0c0.1,0,0.2,0,0.3-0.1c0.2-0.1,0.3-0.1,0.5-0.2
					c0.2-0.1,0.4-0.2,0.6-0.3c0.1-0.1,0.1-0.1,0.1-0.2C102.7,199.3,102.7,199.2,102.6,199.1z"/>
			</g>
		</g>
		<g>
			<path class="stw0" d="M121.3,192.6C121.3,192.6,121.3,192.6,121.3,192.6c-0.7-3.8-1.4-6.5-1.6-7.2c0,0,0-0.1,0-0.1
				c0,8.6-11.3,8.2-11.3,8.2c2.1-5.6-0.7-7.9-0.7-7.9c-2.8,7.3-8.5,8.6-8.5,8.6c0-5.2-2.2-7.7-2.2-7.7c1.1,9-5,13.1-5,13.1
				c-1.7-3.3-6-3.8-8.2-1.4c-2.2,2.4-1.1,6.7,1.9,9.2c3.7,3,5.7,0.9,5.7,0.9l0.2,8.4c-0.5-4-14.8-13.3-15.5-24.6
				c-0.6-11.1,3.2-18.3,15-23.2c10.5-4.4,20.2,2.9,20.2,2.9c5.7-0.4,10.7,3.3,12.5,9.6C125.5,187.8,121.3,192.6,121.3,192.6z"/>
			<path class="stw20" d="M96.9,186.5c0,0-1.7,8.3-10.6,10.3c2.3-0.1,4.2,0.4,5.7,2.8C91.9,199.6,98.7,197,96.9,186.5z"/>
		</g>
		<g>
			<path class="stw13" d="M124.4,191.1c-0.2,0-0.5,0-0.8,0c-2.4,0.1-5.6,0.4-7.5,1.3c-2.4,1.1-3.2,2-4.5,2.2
				c-1.4,0.2-2.4-0.5-4.9-0.9c-2.1-0.3-5.5,0.3-8.1,0.9c-0.3,0.1-0.5,0.1-0.8,0.2c-0.4,0.1-0.9,0.8-0.9,1.5c0.1,0.7,0.6,1.2,0.8,1.5
				c0.1,0.1,0.2,0.3,0.3,0.6c0.3,1.1,0.6,3.2,1.1,4.3c0.2,0.4,0.6,1,1.1,1.4c0.2,0.1,0.3,0.3,0.5,0.4c0.1,0.1,0.2,0.1,0.3,0.2
				c0.3,0.1,0.6,0.2,0.9,0.3c0.1,0,0.1,0,0.2,0c0.1,0,0.2,0,0.2,0c0.1,0,0.2,0,0.3,0c0.2,0,0.5,0,0.8,0c0.1,0,0.2,0,0.3,0
				c0.1,0,0.3,0,0.4,0c3.3-0.5,4.6-2.3,5.4-4.1c0.8-1.8,0.5-4.1,2-4.3c0.1,0,0.1,0,0.1,0c0,0,0.1,0,0.1,0c1.1,0.1,1.1,2.3,1.8,3.8
				c0.3,0.6,0.7,1.1,1.1,1.5c0.1,0.1,0.2,0.2,0.3,0.2c0,0,0.1,0.1,0.1,0.1c0,0,0.1,0.1,0.1,0.1c0,0,0.1,0.1,0.1,0.1
				c0.1,0,0.1,0.1,0.1,0.1c0,0,0.1,0,0.1,0.1c0,0,0.1,0,0.1,0c0.4,0.2,0.8,0.3,1.3,0.4c0,0,0.1,0,0.1,0c0.5,0,1,0,1.6-0.1
				c3.1-0.5,4.1-2.5,4.6-3.7c0.5-1.3,0.6-3.4,0.8-4.5c0-0.3,0.1-0.5,0.3-0.6c0.2-0.3,0.6-1,0.6-1.7
				C125.3,191.7,124.8,191.1,124.4,191.1z M108.7,199.6c-0.1,0.7-0.4,1.6-1.1,2.5l0,0c-0.7,0.9-1.8,1.6-3.6,1.8
				c-1.8,0.2-2.9-0.4-3.5-1.2c0-0.1-0.1-0.1-0.1-0.2c0-0.1-0.1-0.1-0.1-0.2c0,0-0.1-0.1-0.1-0.1c0,0-0.1-0.1-0.1-0.1
				c0,0,0-0.1-0.1-0.1c0,0,0-0.1,0-0.1c0-0.1-0.1-0.1-0.1-0.2l0,0c-0.1-0.2-0.1-0.3-0.2-0.5c0,0,0,0,0,0c0-0.1-0.1-0.2-0.1-0.3
				c-0.1-0.2-0.1-0.3-0.1-0.5c0,0,0-0.1,0-0.1c0,0,0-0.1,0-0.1c-0.3-1.1-0.7-3.4-0.1-4c0.5-0.6,2-1.3,4.5-1.4c0.1,0,0.2,0,0.3,0
				c0.4,0,0.8,0,1.1,0c0.1,0,0.3,0,0.4,0c0.4,0.1,0.8,0.1,1.1,0.2c0.1,0,0.2,0.1,0.3,0.1c0.1,0,0.3,0.1,0.4,0.1c0,0,0,0,0.1,0
				c0,0,0.1,0,0.1,0.1c0.3,0.1,0.6,0.3,0.8,0.5C109,196.7,108.9,198.2,108.7,199.6z M123.1,197c-0.2,0.9-0.5,3-2.2,4.1
				c-0.5,0.3-1.1,0.6-1.8,0.7c-2,0.3-3.1-0.4-3.7-1.2c0,0,0,0,0,0c0,0,0-0.1-0.1-0.1c0,0-0.1-0.1-0.1-0.1c0,0,0,0,0-0.1
				c0-0.1-0.1-0.1-0.1-0.2c0-0.1-0.1-0.1-0.1-0.2c0,0,0-0.1,0-0.1c0,0,0,0,0-0.1c0,0,0-0.1,0-0.1c0,0,0,0,0-0.1
				c-0.1-0.3-0.2-0.6-0.3-0.8c-0.3-1.3-0.5-2.8,0-3.5c0.4-0.8,2.2-1.8,4-2.3c0.4-0.1,0.8-0.2,1.1-0.2c0,0,0.1,0,0.1,0
				c0,0,0.1,0,0.1,0c0.1,0,0.3,0,0.4,0c0,0,0.1,0,0.1,0c0.1,0,0.1,0,0.2,0c0.1,0,0.2,0,0.3,0c0.2,0,0.4,0,0.6,0c0,0,0.1,0,0.1,0
				c0,0,0,0,0,0c0,0,0.1,0,0.1,0c0,0,0.1,0,0.1,0c0.1,0,0.1,0,0.2,0c0.1,0,0.2,0,0.3,0.1c0,0,0,0,0,0c0.3,0.1,0.5,0.2,0.6,0.3
				C123.5,193.5,123.3,195.8,123.1,197z"/>
			<path class="stw13" d="M97.8,195.5l-7.1,2.6c0.5,0.4,0.9,0.9,1.3,1.6l5.9-1.9L97.8,195.5z"/>
		</g>
		<g id="XMLID_3952_">
			<path id="XMLID_3953_" class="stw22" d="M111,196.9l1.2,9.2l5.4-2l-6.1-7.4C111.3,196.8,111.2,196.8,111,196.9z"/>
		</g>
	</g>
	<g id="Writting_Hand">
		<g id="XMLID_285_">
			<g id="XMLID_287_">
				<path id="XMLID_426_" class="stw21" d="M142.3,292l4,4.9c0.1,0.1,0,0.4-0.2,0.3l-6.2-1.4L142.3,292z"/>
				<path id="XMLID_425_" class="stw12" d="M146.1,297.2c0.2,0,0.3-0.2,0.2-0.3l-0.8-1l0,0c0,0.4-0.3,0.7-0.6,0.9l-0.1,0L146.1,297.2
					z"/>
				<path id="XMLID_340_" class="stw11" d="M117.3,281.7l0.5,0.3l0.6,0.4l21.5,13.4c0.7-0.1,1.3-0.6,1.7-1.1c0.7-0.9,0.9-2,0.6-2.6
					l-21.5-13.4l-1.1-0.7C120.4,278.4,118,282.2,117.3,281.7z"/>
				<path id="XMLID_339_" class="stw9" d="M119.2,282.9l1.1,0.7c0.3,0.2,0.9-0.3,1.5-1.1c0.7-1,1.2-2.4,0.8-2.7l-0.8-0.5l-0.3-0.2
					c0.4,0.3-0.1,1.7-0.8,2.7C120.2,282.5,119.6,283,119.2,282.9L119.2,282.9C119.2,282.9,119.2,282.9,119.2,282.9z"/>
				<path id="XMLID_324_" class="stw11" d="M119.5,283c0.7,0.5,3.1-3.3,2.3-3.8l-1.1-0.7c0.7,0.5-1.6,4.3-2.3,3.8L119.5,283z"/>
				<path id="XMLID_316_" class="stw9" d="M117.3,281.7l1.1,0.7c0.7,0.5,3-3.1,2.4-3.7c0,0,0,0,0,0l-1.1-0.7
					C120.4,278.4,118,282.2,117.3,281.7z"/>
				<path id="XMLID_315_" class="stw17" d="M146.3,297.1l0-0.2l-4.3-2.8l-22.8-14.2c0-0.1,0-0.1,0-0.1c-0.6,1.1-1.5,2.1-1.9,1.8
					l0.5,0.3l0.6,0.4l21.5,13.4l0,0l6.2,1.4C146.2,297.2,146.3,297.2,146.3,297.1z"/>
				<path id="XMLID_311_" class="stw22" d="M112.7,278.8l4.6,2.9c0.3,0.2,0.9-0.3,1.5-1.1c0.8-1,1.2-2.4,0.8-2.7c0,0,0,0,0,0L115,275
					c-0.9-0.6-2.3,1.2-2.6,2.5C112.2,278.1,112.3,278.5,112.7,278.8z"/>
			</g>
			<path id="XMLID_286_" class="stw5" d="M114.1,278.3c0.8-0.7,1.3-2,1.1-2.8c-0.1-0.3-0.2-0.5-0.4-0.6c-0.9-0.3-2.2,1.3-2.5,2.6
				c-0.1,0.5,0,1,0.3,1.2C113,279,113.6,278.8,114.1,278.3z"/>
		</g>
		<path class="stw22" d="M127.9,283.1c1.6-0.4,2.5,0.1,3.7,0.8c1.2,0.8,3,0.9,3.1,1.5c0.1,0.6-0.7,1.5-0.7,1.5L127.9,283.1z"/>
		<path class="stw21" d="M113.5,301.8c2.6-0.2,11-0.4,13.7-1c2.7-0.6,4.8-1.9,6.2-3.5c0.4-0.5,0.8-0.9,1.1-1.4c0.3-0.4,0.6-0.8,1-1
			c0.3-0.2,0.7-0.3,1-0.5c0.8-0.5,1.4-1.4,1.4-2.3c0-0.2,0-0.4,0.1-0.6c0-0.2,0.1-0.4,0.3-0.5c0.2-0.1,0.4-0.1,0.6-0.1
			c0.7,0.1,1.5,0.2,2.2,0.1c0.5-0.1,1.1-0.2,1.6-0.5c0.4-0.2,1-0.9,0.4-1.2c-0.8-0.5-1.6-1-2.2-1.3c-3.3-1.6-6.1-1.9-9.7-2.2
			c-1.7-0.1-4-0.1-5.7-0.3c-0.7,0-1.5-0.2-2.2-0.3l-1.1-0.7c-0.6,0-1.4,0.4-2,0.7c-1,0.6-2,1.5-3,2c-2.5,1.3-7,1.4-10.6,1.2"/>
	</g>
	<g id="Notebook">
		<g>
			<g id="XMLID_284_">
				<polygon class="stw23" points="174,259.6 146.7,272.6 139.5,304.6 141.8,307 167.6,293.9 176.4,262 				"/>
				<polygon class="stw9" points="149,275 141.8,307 139.5,304.6 146.7,272.6 				"/>
			</g>
			<g>
				<polygon class="stw11" points="176.7,261.3 148.7,274.6 141.4,307.4 142.1,308.2 168.4,294.8 177.4,262.1 				"/>
				<polygon class="stw7" points="176.7,261.3 148.7,274.6 141.4,307.4 142.1,308.2 168.4,294.8 177.4,262.1 				"/>
				<polygon class="stw11" points="149.5,275.4 142.1,308.2 141.4,307.4 148.7,274.6 				"/>
				<polygon class="stw17" points="149.5,275.4 142.1,308.2 141.4,307.4 148.7,274.6 				"/>
				<polygon id="XMLID_330_" class="stw11" points="177.4,262.1 149.5,275.4 142.1,308.2 168.4,294.8 				"/>
				<g id="XMLID_325_" class="stw24">
					<path id="XMLID_327_" d="M163.2,287c0.3,0.8,3,2.6,6.8,2.3l0.6-2.4L163.2,287z"/>
				</g>
			</g>
			<g>
				<g>
					<path class="stw25" d="M150.6,276.9c-0.1,0.4,0.1,0.6,0.4,0.5c0.3-0.2,0.7-0.6,0.8-1.1c0.1-0.4-0.1-0.6-0.4-0.5
						C151.1,276,150.8,276.5,150.6,276.9z"/>
					<g>
						<path class="stw0" d="M151.1,269.6c-0.6-0.7-1.3-0.9-2-0.7c-0.7,0.2-1.2,0.8-1.4,1.8c-0.1,0.5-0.1,1-0.1,1.5l0.5-0.3
							c0-0.4,0-0.7,0.1-1.1c0.2-0.7,0.5-1.3,1-1.4c0.4-0.1,0.9,0.1,1.4,0.6c1.1,1.2,1.8,3.5,1.4,5.1c-0.1,0.3-0.1,0.5-0.3,0.7
							c-0.2,0.3-0.4,0.6-0.7,0.6c-0.1,0-0.2,0-0.3,0c-0.1,0.1-0.1,0.2-0.1,0.4c0,0.1,0,0.1,0,0.2c0.1,0,0.2,0,0.2,0
							c0.1,0,0.3,0,0.4-0.1c0.1,0,0.2-0.1,0.3-0.1c0.5-0.3,0.9-0.9,1.1-1.7C153,273.4,152.3,270.9,151.1,269.6z"/>
					</g>
				</g>
				<g>
					<path class="stw25" d="M154.5,275.1c-0.1,0.4,0.1,0.6,0.4,0.5c0.3-0.2,0.7-0.6,0.8-1.1c0.1-0.4-0.1-0.6-0.4-0.5
						C155,274.2,154.6,274.7,154.5,275.1z"/>
					<g>
						<path class="stw0" d="M154.9,267.8c-0.6-0.7-1.3-0.9-2-0.7c-0.7,0.2-1.2,0.8-1.4,1.8c-0.1,0.5-0.1,1-0.1,1.5l0.5-0.3
							c0-0.4,0-0.7,0.1-1.1c0.2-0.7,0.5-1.3,1-1.4c0.4-0.1,0.9,0.1,1.4,0.6c1.1,1.2,1.8,3.5,1.4,5.1c-0.1,0.3-0.1,0.5-0.3,0.7
							c-0.2,0.3-0.4,0.6-0.7,0.6c-0.1,0-0.2,0-0.3,0c-0.1,0.1-0.1,0.2-0.1,0.4c0,0.1,0,0.1,0,0.2c0.1,0,0.2,0,0.2,0
							c0.1,0,0.3,0,0.4-0.1c0.1,0,0.2-0.1,0.3-0.1c0.5-0.3,0.9-0.9,1.1-1.7C156.9,271.6,156.2,269.1,154.9,267.8z"/>
					</g>
				</g>
				<g>
					<path class="stw25" d="M158.3,273.3c-0.1,0.4,0.1,0.6,0.4,0.5c0.3-0.2,0.7-0.6,0.8-1.1c0.1-0.4-0.1-0.6-0.4-0.5
						C158.8,272.4,158.4,272.8,158.3,273.3z"/>
					<g>
						<path class="stw0" d="M158.7,266c-0.6-0.7-1.3-0.9-2-0.7c-0.7,0.2-1.2,0.8-1.4,1.8c-0.1,0.5-0.1,1-0.1,1.5l0.5-0.3
							c0-0.4,0-0.7,0.1-1.1c0.2-0.7,0.5-1.3,1-1.4c0.4-0.1,0.9,0.1,1.4,0.6c1.1,1.2,1.8,3.5,1.4,5.1c-0.1,0.3-0.1,0.5-0.3,0.7
							c-0.2,0.3-0.4,0.6-0.7,0.6c-0.1,0-0.2,0-0.3,0c-0.1,0.1-0.1,0.2-0.1,0.4c0,0.1,0,0.1,0,0.2c0.1,0,0.2,0,0.2,0
							c0.1,0,0.3,0,0.4-0.1c0.1,0,0.2-0.1,0.3-0.1c0.5-0.3,0.9-0.9,1.1-1.7C160.7,269.8,160,267.3,158.7,266z"/>
					</g>
				</g>
				<g>
					<path class="stw25" d="M162.2,271.4c-0.1,0.4,0.1,0.6,0.4,0.5c0.3-0.2,0.7-0.6,0.8-1.1c0.1-0.4-0.1-0.6-0.4-0.5
						C162.6,270.5,162.3,271,162.2,271.4z"/>
					<g>
						<path class="stw0" d="M162.6,264.1c-0.6-0.7-1.3-0.9-2-0.7c-0.7,0.2-1.2,0.8-1.4,1.8c-0.1,0.5-0.1,1-0.1,1.5l0.5-0.3
							c0-0.4,0-0.7,0.1-1.1c0.2-0.7,0.5-1.3,1-1.4c0.4-0.1,0.9,0.1,1.4,0.6c1.1,1.2,1.8,3.5,1.4,5.1c-0.1,0.3-0.1,0.5-0.3,0.7
							c-0.2,0.3-0.4,0.6-0.7,0.6c-0.1,0-0.2,0-0.3,0c-0.1,0.1-0.1,0.2-0.1,0.4c0,0.1,0,0.1,0,0.2c0.1,0,0.2,0,0.2,0
							c0.1,0,0.3,0,0.4-0.1c0.1,0,0.2-0.1,0.3-0.1c0.5-0.3,0.9-0.9,1.1-1.7C164.5,268,163.9,265.4,162.6,264.1z"/>
					</g>
				</g>
				<g>
					<path class="stw25" d="M166,269.6c-0.1,0.4,0.1,0.6,0.4,0.5c0.3-0.2,0.7-0.6,0.8-1.1c0.1-0.4-0.1-0.6-0.4-0.5
						C166.5,268.7,166.1,269.2,166,269.6z"/>
					<g>
						<path class="stw0" d="M166.4,262.3c-0.6-0.7-1.3-0.9-2-0.7c-0.7,0.2-1.2,0.8-1.4,1.8c-0.1,0.5-0.1,1-0.1,1.5l0.5-0.3
							c0-0.4,0-0.7,0.1-1.1c0.2-0.7,0.5-1.3,1-1.4c0.4-0.1,0.9,0.1,1.4,0.6c1.1,1.2,1.8,3.5,1.4,5.1c-0.1,0.3-0.1,0.5-0.3,0.7
							c-0.2,0.3-0.4,0.6-0.7,0.6c-0.1,0-0.2,0-0.3,0c-0.1,0.1-0.1,0.2-0.1,0.4c0,0.1,0,0.1,0,0.2c0.1,0,0.2,0,0.2,0
							c0.1,0,0.3,0,0.4-0.1c0.1,0,0.2-0.1,0.3-0.1c0.5-0.3,0.9-0.9,1.1-1.7C168.4,266.1,167.7,263.6,166.4,262.3z"/>
					</g>
				</g>
				<g>
					<path class="stw25" d="M169.9,267.8c-0.1,0.4,0.1,0.6,0.4,0.5c0.3-0.2,0.7-0.6,0.8-1.1c0.1-0.4-0.1-0.6-0.4-0.5
						C170.3,266.9,170,267.3,169.9,267.8z"/>
					<g>
						<path class="stw0" d="M170.3,260.5c-0.6-0.7-1.3-0.9-2-0.7c-0.7,0.2-1.2,0.8-1.4,1.8c-0.1,0.5-0.1,1-0.1,1.5l0.5-0.3
							c0-0.4,0-0.7,0.1-1.1c0.2-0.7,0.5-1.3,1-1.4c0.4-0.1,0.9,0.1,1.4,0.6c1.1,1.2,1.8,3.5,1.4,5.1c-0.1,0.3-0.1,0.5-0.3,0.7
							c-0.2,0.3-0.4,0.6-0.7,0.6c-0.1,0-0.2,0-0.3,0c-0.1,0.1-0.1,0.2-0.1,0.4c0,0.1,0,0.1,0,0.2c0.1,0,0.2,0,0.2,0
							c0.1,0,0.3,0,0.4-0.1c0.1,0,0.2-0.1,0.3-0.1c0.5-0.3,0.9-0.9,1.1-1.7C172.2,264.3,171.5,261.8,170.3,260.5z"/>
					</g>
				</g>
				<g>
					<path class="stw25" d="M173.7,265.9c-0.1,0.4,0.1,0.6,0.4,0.5c0.3-0.2,0.7-0.6,0.8-1.1c0.1-0.4-0.1-0.6-0.4-0.5
						C174.2,265,173.8,265.5,173.7,265.9z"/>
					<g>
						<path class="stw0" d="M174.1,258.6c-0.6-0.7-1.3-0.9-2-0.7c-0.7,0.2-1.2,0.8-1.4,1.8c-0.1,0.5-0.1,1-0.1,1.5l0.5-0.3
							c0-0.4,0-0.7,0.1-1.1c0.2-0.7,0.5-1.3,1-1.4c0.4-0.1,0.9,0.1,1.4,0.6c1.1,1.2,1.8,3.5,1.4,5.1c-0.1,0.3-0.1,0.5-0.3,0.7
							c-0.2,0.3-0.4,0.6-0.7,0.6c-0.1,0-0.2,0-0.3,0c-0.1,0.1-0.1,0.2-0.1,0.4c0,0.1,0,0.1,0,0.2c0.1,0,0.2,0,0.2,0
							c0.1,0,0.3,0,0.4-0.1c0.1,0,0.2-0.1,0.3-0.1c0.5-0.3,0.9-0.9,1.1-1.7C176.1,262.5,175.4,259.9,174.1,258.6z"/>
					</g>
				</g>
			</g>
		</g>
		<g id="XMLID_282_">
			<path id="XMLID_283_" class="stw21" d="M175.7,268.5c0,0-1.2,4.5-1.5,5.6c-0.8,2.7-6,3.7-8.8,4.1c-5.4,0.7-6,1.8-4.7,5.7
				c1.2,3.5,4.7,4.9,9.6,4.3c2.3-0.3,5.4-2.3,6.7-5.8c1.6-4.5,0.7-9.3,1.4-12C178.9,267.8,177,267,175.7,268.5z"/>
		</g>
	</g>
	<g id="XMLID_743_">
		<path id="XMLID_261_" class="stw12" d="M112.8,395.9v-53.1c0-3.5-2.5-7.8-5.5-9.6l-51.2-29.6c-2.4-1.4-2.4-4.9,0-6.3l1.2-0.7
			L53,270.4c-0.5-3.5-3.3-7.8-6.4-9.5l-4.5-2.6c-3-1.8-5.5-0.3-5.5,3.2v23.3l0.1,67.2c0,3.5,2.5,7.8,5.5,9.6l65.1,37.5
			C110.3,400.8,112.8,399.4,112.8,395.9z"/>
		<path id="XMLID_260_" class="stw8" d="M128.3,333.8v53.1c0,0.1,0,0.2,0,0.4c-0.2,3.4-2.5,7.5-5.5,9.2c0,0,0,0-0.1,0l-4.5,2.6
			c-0.1,0.1-0.3,0.2-0.4,0.2c-0.1,0.1-0.2,0.1-0.2,0.1c0,0-0.1,0-0.1,0c-0.2,0.1-0.3,0.1-0.4,0.2c-2.4,1-5.6,1-8.1,0.2
			c-0.3-0.1-0.7-0.2-1-0.4c2.7,1.1,4.7-0.4,4.7-3.6c0,0,0,0,0,0v-53.1c0-3.5-2.5-7.8-5.5-9.6l-10-5.8l-41.2-23.8
			c-2.4-1.4-2.4-4.9,0-6.3l4.6-2.6c3-1.7,8-1.7,11,0l41.1,23.7l10,5.8C125.9,326,128.3,330.3,128.3,333.8z"/>
		<path id="XMLID_259_" class="stw13" d="M112.8,342.8v53.1c0,0,0,0,0,0c0,3.2-2.1,4.7-4.7,3.6c0.3,0.1,0.6,0.3,1,0.4
			c2.5,0.8,5.7,0.7,8.1-0.2c0.1,0,0.3-0.1,0.4-0.2c0,0,0,0,0.1,0c0.1,0,0.2-0.1,0.2-0.1c0.1-0.1,0.3-0.1,0.4-0.2l4.5-2.6
			c0,0,0,0,0.1,0c2.9-1.7,5.3-5.8,5.5-9.2c0-0.1,0-0.2,0-0.4v-53.1c0-1.8-0.6-3.7-1.6-5.4l-15.5,9
			C112.2,339.1,112.8,341,112.8,342.8z"/>
	</g>
	<g id="Arm_2_">
		<path class="stw21" d="M106.6,288.7c-7.1-0.3-23.2-2.5-23.2-2.5l3.6-31.3c1.8-7.4-3.3-24.5-7.4-27c-1.8,0.5-5.5,1.6-9.5,7.7
			c-2.2,3.4-2.7,9.1-4.3,23c-1.1,9.9-1.5,23.4-1.7,32.3C64,300.7,68.1,303.4,77,304c15,0.9,30.6-1.6,36.5-2.1"/>
		<g>
			<path class="stw1" d="M80.5,227.4c-5.9,1.4-8.2,3.4-11,8.1c-2.9,4.8-4,19.2-5.3,34.6c-1.3,15.4-0.9,24.4-0.7,26.9
				c0.3,2.6,2.5,6.5,8.9,7c6.4,0.5,12.8,0,12.8,0s-1.2-11.2,3.5-17.3l-4.9-0.9l4.5-34.2C88.3,251.7,87.9,234,80.5,227.4z"/>
			<path class="stw7" d="M80.5,227.4c-5.9,1.4-8.2,3.4-11,8.1c-2.9,4.8-4,19.2-5.3,34.6c-1.3,15.4-0.9,24.4-0.7,26.9
				c0.3,2.6,2.5,6.5,8.9,7c6.4,0.5,12.8,0,12.8,0s-1.2-11.2,3.5-17.3l-4.9-0.9l4.5-34.2C88.3,251.7,87.9,234,80.5,227.4z"/>
			<path class="stw17" d="M83.8,286c0,0-5.4-0.6-10.7,2.1c0,0,2.3-3.7,11-4.5L83.8,286z"/>
		</g>
	</g>
</g>
<g id="Line">
	<g id="Lines_2_">
		<g id="Lines_1_">
			<g>
				<path class="stw8" d="M101.6,160c2.9-0.1,4.7-3.8,3-6.2c-0.9-1.3-2.6-1.8-4-2.4c-0.8-0.3-1.7-0.7-2.3-1.4
					c-1.4-1.8,0.5-3.5,1.8-4.4c1.7-1.1,3.7-1.9,5-3.5c1-1.3,1.5-3,1.4-4.6c-0.4-4-3.7-5.8-7.1-7.2c-4.7-2-9.3-4-11.4-8.9
					c-2.3-5.4,0.6-12.3,5.4-15.3c5.3-3.3,11.9-2.2,16.1,2.3c4.1,4.4,5.8,11.4,3.3,17c-4.9,11.3-24.3,8.1-27.4-3
					c-1.6-5.8,0.2-12.6,4.5-16.8c3.7-3.5,9.1-5,14-4c5.8,1.2,10.5,5.9,11.9,11.6c0.7,2.9,1.3,6,1,9c-0.3,3.3-2,6.1-4.4,8.3
					c-4.3,3.9-10.2,5.7-15.9,4.6c-5.4-1-10.6-5.2-12.8-10.2c-3.6-8.3-1.2-20.1,7.5-24.4c6.1-2.9,12.6-3.5,18.3,0.5
					c4.6,3.2,8.3,7.8,9.8,13.3c1.6,6,0.2,12.5-4.1,17.1c-3.6,3.8-8.8,5.9-14,6.2c-4.9,0.3-10-1-13.9-4.2c-4.5-3.7-7-9.5-7.5-15.2
					c-0.9-10.7,5.2-19.5,14.8-23.7c10.2-4.4,22-3.5,32.5-0.7c11.1,2.9,21.8,7.8,31.9,13.3c5.3,2.9,10.6,6,16,8.6
					c4.9,2.4,10,4.5,15.2,6.3c9.3,3.2,19,5.5,28.9,5.5c9.3,0,18.8-1.4,27.4-5c8-3.3,15.1-8.7,20.1-15.8c2.3-3.4,4.4-6.9,4.2-11.1
					c-0.2-3.7-2.5-6.5-6.4-6.2c-4.6,0.3-7.2,4.7-9.2,8.3c0.2,0,0.4,0.1,0.6,0.1c-1.6-2.9-3.3-6-6.3-7.6c-2.2-1.2-5.4-1.5-7.5,0.2
					c-4.8,3.9-1.4,11.7,1.5,15.6c6.8,9.2,18.1,14.7,28.7,18.2c15.2,5,31.7,6.9,47.5,3.8c13.6-2.7,26-9.1,38.1-15.6
					c7.2-3.9,14.3-7.9,21.8-11.2c8.1-3.5,17.3-6.2,26-3.4c7.4,2.4,14.3,10.1,12.2,18.3c-1.8,6.9-10.4,11.9-16.8,7.5
					c-5.4-3.7-14.4-16.4-4.3-20c6.4-2.3,14.9,1.2,19.7,5.5c2.8,2.5,5,6.2,3.4,10c-1.6,3.7-5.9,5.4-9.7,5.5
					c-8,0.3-16.3-5.3-16.5-13.8c-0.1-3.7,1.4-7.4,4.4-9.7c3.1-2.4,7.2-3,11-2.6c7.6,0.8,15.7,5.4,19.4,12.3c3.5,6.4,2.2,15.8-5,19.2
					c-6.4,3-15.2,1.7-21.5-0.9c-6.4-2.6-12.3-7.5-14.3-14.4c-2.2-7.7,1.8-16.7,10.8-16.1c8.4,0.6,15.7,8.1,17.4,16.1
					c1.5,7.4-2.3,16-9.8,18.5c-6.8,2.3-16-2-16.1-9.8c-0.1-7.1,7.2-14,14-9.6c3,1.9,5.1,5.6,4.3,9.1c-0.8,3.6-5.1,7-8.6,4.4
					c-2.3-1.7-3.2-5.2-2.5-7.9c0.9-3.6,4.7-5.5,8.1-5.8c3.6-0.3,7.7,0.6,10.7,2.8c1.7,1.3,3,3.5,1.6,5.5c-1.8,2.7-4.5,0.2-5.1-2
					c-0.8-2.9,0.7-6.6,3.5-7.9c3.7-1.7,7.7,1.5,8.2,5.2c0.3,1.7-0.2,3.7-2,4.3c-1.6,0.6-3.9-0.2-4.7-1.8c-2.1-3.8,3.9-7.1,6.9-5.1
					c3.7,2.6,2.3,8.2-1.3,10.1c-3.4,1.8-7.5,0.9-10-2c-2.4-2.8-3.2-6.9-1.9-10.3c1.2-3.2,4-5.5,7.2-6.6c7.7-2.7,16.8,2.8,17,11.2
					c0.2,7.1-5.8,13.7-12.7,14.8c-7.8,1.2-16-3.7-19.6-10.7c-1.5-3-2.3-6.8-1.2-10.2c1.4-4.3,5.9-5.9,10.1-5.4
					c8.6,1.1,14.1,9.7,11.6,17.9c-1.2,3.9-3.9,6.2-6.8,8.9c-2.5,2.2-4.7,5-4.4,8.5c0.2,2.8,2,4.3,4.5,5.2c1.2,0.5,3.6,1,3.6,2.7
					c0,1.7-2,2.3-3.2,2.8c-2.1,0.9-4.3,2-4,4.7c0.2,2.2,2,4,4.2,4.1c0.8,0,0.4-1.1-0.3-1.1c-2.6-0.1-3.6-3.6-1.8-5.3
					c1.3-1.2,3.2-1.5,4.7-2.4c2.5-1.5,1.9-4.3-0.5-5.6c-1.8-0.9-4.1-1.2-5.3-3c-1.4-2.2-0.5-5.3,1-7.3c2.7-3.6,6.9-5.7,8.9-10.1
					c3.5-7.8-0.2-16.8-8-20.2c-3.7-1.6-8.7-1.9-12.1,0.6c-2.9,2.1-3.8,5.8-3.4,9.2c0.8,8,7.7,14.9,15.3,16.9
					c7.7,2.1,15.8-1.3,19.3-8.6c3.5-7.3,0-15.7-7.4-18.8c-6.8-2.8-16.1,0.5-17.8,8.2c-1.5,6.8,4.1,14.8,11.5,13.3
					c3.5-0.7,6.4-3.4,6.3-7.1c-0.1-3-2.1-6.1-5.3-6.5c-2.9-0.3-6.2,2-6.2,5c0,2.8,2.8,4.7,5.4,4.7c3.3-0.1,4.3-3.5,3.5-6.3
					c-0.9-3-3.6-5.7-6.8-5.9c-6.4-0.4-9.4,9.3-4.2,12.9c2.7,1.9,5.6-0.9,5.2-3.8c-0.6-3.5-4.7-5.5-7.7-6.4
					c-6.3-1.9-16.1,0.2-15.3,8.5c0.2,2.7,1.7,5.6,4.1,6.8c3.1,1.6,6.5-0.1,8.2-2.9c3.7-6.2-2.5-14.4-9.3-14.3
					c-7.3,0.1-11.7,8.8-9.4,15.2c2.5,6.9,11.3,10,17.9,7.3c7.7-3.2,11.1-12.4,9-20.2c-2.1-7.9-9.4-15.1-17.7-16
					c-4.1-0.4-8.1,1-10.4,4.4c-2.2,3.2-2.6,7.4-1.9,11.1c1.5,7.6,7.6,13.3,14.5,16.3c3.6,1.6,7.4,2.5,11.3,2.8
					c4.2,0.3,9,0.1,12.7-2.1c6.8-4,7.6-13.6,4-20c-4-7.2-12.4-12-20.5-12.8c-4-0.4-8.3,0.3-11.5,3c-2.9,2.5-4.3,6.4-4.2,10.2
					c0.3,8.3,7.7,14.2,15.7,14.7c3.7,0.2,7.8-0.7,10.4-3.4c2.5-2.6,2.8-6.4,1.2-9.5c-3.4-6.6-12.5-10.5-19.7-10.4
					c-3.2,0-6.5,1-8.2,4c-2.1,3.7-0.4,8,1.8,11.3c2.3,3.4,5.5,7.3,9.5,8.5c3.3,1,6.9,0.1,9.6-1.8c6.8-4.7,7-13.6,2.3-19.9
					c-5.7-7.7-15.6-9.3-24.5-7.6c-10.3,2-19.8,7.6-29,12.5c-7.6,4.1-15.2,8.3-23.1,11.8c-8.1,3.6-16.6,6.2-25.5,7.3
					c-10.4,1.3-20.8,0.4-31-1.8c-9.1-2-18.1-5-26.1-9.8c-5.4-3.2-10.7-7.4-13.9-12.8c-2.1-3.6-4.2-11.2,1.2-13.2
					c5.5-2.1,9.2,3.7,11.4,7.7c0.1,0.2,0.4,0.4,0.6,0.1c1.5-2.7,3.2-5.8,6-7.3c2.5-1.3,6.3-1.2,7.7,1.7c2.5,5.2-1.6,11.2-4.6,15.1
					c-6.1,7.9-14.8,13.1-24.3,16c-10.2,3.1-21.6,3.9-32.1,2.2c-12.1-1.9-23.8-6.3-34.7-11.6c-6-2.9-11.7-6.4-17.6-9.5
					c-5.6-2.9-11.4-5.6-17.4-7.9c-10.3-4-21.5-6.9-32.6-6c-10.3,0.8-21.3,6-25.4,16c-3.7,9-1.3,21.2,6.5,27.4
					c7.8,6.1,20.1,5.4,27.3-1.2c8.4-7.6,7.1-20.2,0-28.2c-3.7-4.1-8.6-7.5-14.3-7.4c-4.5,0.1-9.5,1.9-12.8,5
					c-6.6,6.4-7.8,17.4-2.8,25.2c6.2,9.7,19.8,11.1,28.1,3.5c4.2-3.8,5.2-8.7,4.3-14.2c-0.8-5.1-2.5-9.7-6.8-13
					c-8.3-6.4-20.6-2.7-24.5,6.9c-1.8,4.5-2.1,10.2,0.4,14.6c2.7,4.6,8.1,7.1,13.2,7.6c4.9,0.4,9.9-0.9,12.7-5.2
					c2.6-4,2.8-9.2,1.3-13.6c-1.6-4.8-5.4-9-10.4-10.2c-5.1-1.3-10.6,1.1-13.6,5.4c-2.6,3.8-3.4,9.1-1.3,13.3
					c2.3,4.5,6.6,6.4,11,8.3c2.4,1,5.1,2.1,6.4,4.6c1.6,3.3,0,6.5-2.9,8.3c-2,1.2-7.1,3.9-4.4,6.9c1.2,1.4,3.2,1.7,4.7,2.5
					c1.5,0.9,2.3,2.4,1.6,4.1c-0.5,1.3-1.6,2.2-3.1,2.3C101.2,159.4,101.3,160,101.6,160L101.6,160z"/>
			</g>
		</g>
		<g>
			<g>
				<path class="stw8" d="M424,115.2c0.3,1.4,1,2.7,2.1,3.7c1.1,0.9,2.4,1.4,3.8,1.6c3.2,0.5,7.4-0.2,9.3-3.2c1-1.6,1.4-3.7,1.5-5.5
					c0.1-2,0-3.9-0.5-5.8c-0.8-3.5-2.6-6.8-5.2-9.3c-4.1-4-10.9-7.1-16.6-5.1c-3.1,1.1-5.4,3.6-6.5,6.7c-0.6,1.7-0.7,3.5-0.2,5.2
					c0.5,1.5,1.4,2.8,2.5,3.9c2.2,2.3,5.4,4,8.6,4.5c3.3,0.5,7.2-0.8,8.4-4.3c1.3-3.5-0.3-7.8-2.2-10.8c-2.1-3.1-5.1-5.6-8.7-6.8
					c-7.2-2.5-15.6,0.1-19.9,6.4c-1.9,2.8-2.8,6.5-1.3,9.7c1.6,3.3,5,5.3,8.6,5.4c3.7,0.1,7.8-1.8,9.7-5.1c1.8-3.2,0.1-6.9-3-8.5
					c-3.4-1.7-7.6-0.3-10.2,2.3c-2.2,2.2-3.4,5.6-2.8,8.7c0.3,1.7,1.2,3.2,2.3,4.4c0.4,0.4,1.2,0.1,0.7-0.4
					c-2.2-2.3-2.9-5.5-1.8-8.5c1.1-2.9,3.5-5.2,6.5-6c1.7-0.5,3.6-0.4,5.2,0.6c1.3,0.8,2.4,2.2,2.7,3.7c0.6,3.6-2.8,6.4-5.8,7.4
					c-3.3,1.1-7.1,0.7-9.6-1.8c-2.4-2.3-2.9-5.7-1.7-8.8c1.1-3,3.5-5.4,6.2-7.1c2.9-1.8,6.4-2.7,9.8-2.4c7,0.6,12.9,5.7,14.4,12.6
					c0.4,1.7,0.4,3.6-0.4,5.3c-0.7,1.6-2.3,2.6-3.9,3c-2.8,0.8-5.8-0.2-8.2-1.7c-2.4-1.4-4.7-3.7-5.3-6.6c-0.6-3.1,1.2-6.7,3.6-8.7
					c4.4-3.6,10.7-2,15.2,0.7c5.6,3.5,8.9,9.8,8.7,16.4c-0.1,1.8-0.3,3.6-1.1,5.2c-0.8,1.7-2.3,2.7-4.1,3.2c-2.6,0.7-6,0.8-8.3-0.9
					c-1.1-0.9-1.9-2.1-2.3-3.5C424.1,114.8,423.9,115,424,115.2L424,115.2z"/>
			</g>
		</g>
	</g>
</g>
</svg>
