<?xml version="1.0" encoding="utf-8"?>
<!-- Generator: Adobe Illustrator 19.0.0, SVG Export Plug-In . SVG Version: 6.00 Build 0)  -->
<svg version="1.1" xmlns="http://www.w3.org/2000/svg" xmlns:xlink="http://www.w3.org/1999/xlink" x="0px" y="0px"
	 viewBox="0 0 407.4 380.5" style="enable-background:new 0 0 407.4 380.5;" xml:space="preserve">
<style type="text/css">
	.st0{fill:#E6E6E6;}
	.st1{fill:#476CAB;}
	.st2{fill:#FFFFFF;}
	.st3{fill:#48BB78;}
	.st4{fill:#269655;}
	.st5{fill:#77B97B;}
</style>
<g id="BACKGROUND">
</g>
<g id="OBJECTS">
	<g id="XMLID_1_">
		
			<rect id="XMLID_225_" x="81.7" y="85.3" transform="matrix(0.9985 -5.463581e-002 5.463581e-002 0.9985 -10.3977 9.6218)" class="st0" width="178.3" height="219.3"/>
		
			<rect id="XMLID_1499_" x="178.8" y="120.4" transform="matrix(0.9456 0.3253 -0.3253 0.9456 89.4234 -74.646)" class="st0" width="178.3" height="219.3"/>
		
			<rect id="XMLID_1496_" x="173.2" y="108.4" transform="matrix(0.9456 0.3253 -0.3253 0.9456 85.2011 -73.4923)" class="st1" width="178.3" height="219.3"/>
		
			<rect id="XMLID_1495_" x="170.2" y="146.4" transform="matrix(0.3253 -0.9456 0.9456 0.3253 -29.1603 395.2197)" class="st2" width="184.4" height="143.4"/>
		<g id="XMLID_19_">
			<g id="XMLID_28_">
				<g id="XMLID_196_">
					<g id="XMLID_213_">
						
							<rect id="XMLID_214_" x="236" y="151.7" transform="matrix(0.9456 0.3253 -0.3253 0.9456 65.0045 -79.3044)" class="st3" width="67.4" height="6.1"/>
					</g>
					<g id="XMLID_211_">
						
							<rect id="XMLID_212_" x="231.7" y="166.6" transform="matrix(0.9456 0.3253 -0.3253 0.9456 70.4101 -81.7952)" class="st3" width="96.3" height="6.1"/>
					</g>
					<g id="XMLID_209_">
						
							<rect id="XMLID_210_" x="228.1" y="176.8" transform="matrix(0.9456 0.3253 -0.3253 0.9456 73.5429 -80.096)" class="st3" width="96.3" height="6.1"/>
					</g>
					<g id="XMLID_207_">
						
							<rect id="XMLID_208_" x="218.4" y="202.8" transform="matrix(0.9456 0.3253 -0.3253 0.9456 80.667 -70.8089)" class="st3" width="67.4" height="6.1"/>
					</g>
					<g id="XMLID_205_">
						
							<rect id="XMLID_206_" x="214.1" y="217.7" transform="matrix(0.9456 0.3253 -0.3253 0.9456 86.0727 -73.2996)" class="st3" width="96.3" height="6.1"/>
					</g>
					<g id="XMLID_203_">
						
							<rect id="XMLID_204_" x="210.6" y="227.9" transform="matrix(0.9456 0.3253 -0.3253 0.9456 89.2054 -71.6004)" class="st3" width="96.3" height="6.1"/>
					</g>
					<g id="XMLID_201_">
						
							<rect id="XMLID_202_" x="201" y="253.3" transform="matrix(0.9456 0.3253 -0.3253 0.9456 96.1656 -62.4023)" class="st3" width="67.4" height="6.1"/>
					</g>
					<g id="XMLID_199_">
						
							<rect id="XMLID_200_" x="196.7" y="268.2" transform="matrix(0.9456 0.3253 -0.3253 0.9456 101.571 -64.893)" class="st3" width="96.3" height="6.1"/>
					</g>
					<g id="XMLID_197_">
						
							<rect id="XMLID_198_" x="193.2" y="278.4" transform="matrix(0.9456 0.3253 -0.3253 0.9456 104.704 -63.1938)" class="st3" width="96.3" height="6.1"/>
					</g>
				</g>
			</g>
		</g>
		<polygon id="XMLID_104_" class="st1" points="142.4,292.7 176.6,304.5 265.8,299.6 254.8,99.5 213.8,85.4 		"/>
		<polygon id="XMLID_102_" class="st0" points="164.6,281.9 222.8,301.9 265.8,299.6 255.8,118.3 224.6,107.5 		"/>
		<g id="XMLID_96_">
			<g id="XMLID_112_">
				<polygon id="XMLID_121_" class="st1" points="236.8,146.7 257.8,153.9 257.4,147.3 238.8,140.9 				"/>
				<polygon id="XMLID_120_" class="st1" points="235.3,151.1 233.3,156.9 258.4,165.6 258.1,158.9 				"/>
				<polygon id="XMLID_119_" class="st1" points="231.8,161.3 229.8,167.1 259.1,177.2 258.7,170.6 				"/>
				<polygon id="XMLID_118_" class="st1" points="219.2,197.8 261,212.1 260.6,205.5 221.2,192 				"/>
				<polygon id="XMLID_117_" class="st1" points="217.7,202.2 215.7,208 261.6,223.8 261.3,217.2 				"/>
				<polygon id="XMLID_116_" class="st1" points="214.2,212.4 212.2,218.2 262.3,235.4 261.9,228.8 				"/>
				<polygon id="XMLID_115_" class="st1" points="201.8,248.3 264.1,269.8 263.8,263.1 203.8,242.5 				"/>
				<polygon id="XMLID_114_" class="st1" points="200.3,252.7 198.3,258.5 264.8,281.4 264.4,274.8 				"/>
				<polygon id="XMLID_113_" class="st1" points="265,286.4 196.8,262.9 194.8,268.8 265.4,293 				"/>
			</g>
		</g>
		
			<rect id="XMLID_224_" x="69.8" y="74.3" transform="matrix(0.9985 -5.463547e-002 5.463547e-002 0.9985 -9.8153 8.9571)" class="st1" width="178.3" height="219.3"/>
		
			<rect id="XMLID_223_" x="66.7" y="112.3" transform="matrix(-5.463545e-002 -0.9985 0.9985 -5.463545e-002 -16.1266 352.7229)" class="st2" width="184.4" height="143.4"/>
		<path id="XMLID_4_" class="st3" d="M173.9,56.5c-1.5-11.3-11.4-19.7-23-19.1c-11.6,0.6-20.6,10.1-20.8,21.5l-26.2,1.4l2.2,40.9
			l96.1-5.3l-2.2-40.9L173.9,56.5z M152.4,65.7c-4.4,0.2-8.2-3.1-8.4-7.5s3.1-8.2,7.5-8.4c4.4-0.2,8.2,3.1,8.4,7.5
			C160.2,61.7,156.8,65.4,152.4,65.7z"/>
		<path id="XMLID_3_" class="st4" d="M160,57.2c0.2,4.4-3.1,8.2-7.5,8.4l1.8,32.9l48.1-2.6l-2.2-40.9l-26.2,1.4
			c-1.5-11.3-11.4-19.7-23-19.1l0.7,12.3C156,49.5,159.7,52.8,160,57.2z"/>
		<g id="XMLID_1468_">
			<circle id="XMLID_1475_" class="st5" cx="117.8" cy="134.7" r="11.3"/>
			<circle id="XMLID_1472_" class="st5" cx="120.8" cy="188.7" r="11.3"/>
			<circle id="XMLID_1469_" class="st5" cx="123.7" cy="242.1" r="11.3"/>
		</g>
		<g id="XMLID_1466_">
			<polygon id="XMLID_1467_" class="st4" points="118.2,143 109.2,134.9 113.7,129.8 117.7,133.3 129.2,120.4 134.3,125 			"/>
		</g>
		<g id="XMLID_1464_">
			<g id="XMLID_30_">
				<polygon id="XMLID_31_" class="st1" points="121.1,196.2 112.1,188.2 116.6,183.1 120.6,186.6 132.1,173.7 137.2,178.3 				"/>
			</g>
		</g>
		<g id="XMLID_1462_">
			<polygon id="XMLID_1463_" class="st4" points="124,249.5 115,241.4 119.6,236.4 123.5,239.9 135.1,227 140.1,231.5 			"/>
		</g>
		<g id="XMLID_1460_">
			
				<rect id="XMLID_1461_" x="144" y="118.6" transform="matrix(0.9985 -5.463571e-002 5.463571e-002 0.9985 -6.4066 8.9097)" class="st3" width="31.5" height="6.1"/>
		</g>
		<g id="XMLID_1458_">
			
				<rect id="XMLID_1459_" x="144.6" y="128.6" transform="matrix(0.9985 -5.463608e-002 5.463608e-002 0.9985 -6.9306 9.7454)" class="st3" width="60.4" height="6.1"/>
		</g>
		<g id="XMLID_1456_">
			
				<rect id="XMLID_1457_" x="145.2" y="139.3" transform="matrix(0.9985 -5.463507e-002 5.463507e-002 0.9985 -7.5191 9.7936)" class="st3" width="60.4" height="6.1"/>
		</g>
		<g id="XMLID_1454_">
			
				<rect id="XMLID_1455_" x="146.9" y="172.5" transform="matrix(0.9985 -5.463583e-002 5.463583e-002 0.9985 -9.3495 9.1516)" class="st3" width="31.5" height="6.1"/>
		</g>
		<g id="XMLID_1452_">
			
				<rect id="XMLID_1453_" x="147.5" y="182.5" transform="matrix(0.9985 -5.463608e-002 5.463608e-002 0.9985 -9.8735 9.9873)" class="st3" width="60.4" height="6.1"/>
		</g>
		<g id="XMLID_1450_">
			
				<rect id="XMLID_1451_" x="148.1" y="193.3" transform="matrix(0.9985 -5.463501e-002 5.463501e-002 0.9985 -10.4619 10.0354)" class="st3" width="60.4" height="6.1"/>
		</g>
		<g id="XMLID_1448_">
			
				<rect id="XMLID_1449_" x="149.9" y="225.9" transform="matrix(0.9985 -5.463583e-002 5.463583e-002 0.9985 -12.2615 9.3909)" class="st3" width="31.5" height="6.1"/>
		</g>
		<g id="XMLID_1444_">
			
				<rect id="XMLID_1446_" x="150.4" y="235.9" transform="matrix(0.9985 -5.463501e-002 5.463501e-002 0.9985 -12.7852 10.2264)" class="st3" width="60.4" height="6.1"/>
		</g>
		<g id="XMLID_1441_">
			
				<rect id="XMLID_1443_" x="151" y="246.7" transform="matrix(0.9985 -5.463501e-002 5.463501e-002 0.9985 -13.3739 10.2747)" class="st3" width="60.4" height="6.1"/>
		</g>
		<path id="XMLID_1620_" class="st3" d="M41.6,50.4c2-1.6,4.4-2.7,6.4-3.3c1-0.3,1-1.6,0-1.9c-2-0.6-4.4-1.7-6.4-3.3
			c-0.1,0-0.1-0.1-0.1-0.1c-1.6-2-2.7-4.4-3.3-6.4c-0.3-1-1.6-1-1.9,0c-0.6,2-1.7,4.4-3.3,6.4c0,0.1-0.1,0.1-0.1,0.1
			c-2,1.6-4.4,2.7-6.4,3.3c-1,0.3-1,1.6,0,1.9c2,0.6,4.4,1.7,6.4,3.3c0.1,0,0.1,0.1,0.1,0.1c1.6,2,2.7,4.4,3.3,6.4
			c0.3,1,1.6,1,1.9,0c0.6-2,1.7-4.4,3.3-6.4C41.5,50.5,41.5,50.5,41.6,50.4z"/>
		<path id="XMLID_1604_" class="st1" d="M378,332.8c2-1.6,4.4-2.7,6.4-3.3c1-0.3,1-1.6,0-1.9c-2-0.6-4.4-1.7-6.4-3.3
			c-0.1,0-0.1-0.1-0.1-0.1c-1.6-2-2.7-4.4-3.3-6.4c-0.3-1-1.6-1-1.9,0c-0.6,2-1.7,4.4-3.3,6.4c0,0.1-0.1,0.1-0.1,0.1
			c-2,1.6-4.4,2.7-6.4,3.3c-1,0.3-1,1.6,0,1.9c2,0.6,4.4,1.7,6.4,3.3c0.1,0,0.1,0.1,0.1,0.1c1.6,2,2.7,4.4,3.3,6.4
			c0.3,1,1.6,1,1.9,0c0.6-2,1.7-4.4,3.3-6.4C377.9,332.9,378,332.9,378,332.8z"/>
	</g>
</g>
<g id="DESIGNED_BY_FREEPIK">
</g>
</svg>
