<?xml version="1.0" encoding="utf-8"?>
<!-- Generator: Adobe Illustrator 19.0.0, SVG Export Plug-In . SVG Version: 6.00 Build 0)  -->
<svg version="1.1" id="Capa_1" xmlns="http://www.w3.org/2000/svg" xmlns:xlink="http://www.w3.org/1999/xlink" x="0px" y="0px"
	 viewBox="-277 25 361 503" style="enable-background:new -277 25 361 503;" xml:space="preserve">
<style type="text/css">
	.st0{fill:#433F43;}
	.st1{fill:#554E56;}
	.st2{fill:#F3F0F3;}
	.st3{fill:#E2DEE2;}
	.st4{fill:#FFFFFF;}
	.st5{fill:#48BB78;}
	.st6{opacity:0.3;fill:#8F6756;enable-background:new    ;}
	.st7{fill:#476CAB;}
	.st8{fill:#2F508A;}
	.st9{fill:#3D8A5D;}
	.st10{fill:#15753D;}
	.st11{fill:#8F6756;}
	.st12{fill:#C99077;}
	.st13{opacity:0.1;fill:#A44F3E;enable-background:new    ;}
	.st14{fill:#CBC4CC;}
	.st15{fill:none;stroke:#2C8F55;stroke-width:6;stroke-miterlimit:10;}
	.st16{fill:#C0BBB5;}
</style>
<g>
	<g>
		<path class="st0" d="M-50.3,73.2v23.4h16.6c12.7,0,23.1,10.3,23.1,23.1v21.2H3c4.2,0,8.2,1,11.6,2.9V88.3
			c0-29.9-24.2-54.1-54.1-54.1h-31.3C-58.4,42.7-50.3,57-50.3,73.2L-50.3,73.2z"/>
		<path class="st1" d="M-180.7,140.8h13.6v-21.2c0-12.7,10.3-23.1,23.1-23.1h94.6V73.2C-49.4,46.6-71,25-97.6,25h-82.3
			c-6.9,0-12.5,5.6-12.5,12.5v106.2C-188.9,141.8-184.9,140.8-180.7,140.8z"/>
		<path class="st0" d="M-180.7,140h12.8v-20.4c0-8.2,4.1-15.4,10.4-19.7V37.5c0-6.9,5.6-12.5,12.5-12.5h-34.8
			c-6.9,0-12.5,5.6-12.5,12.5v105.3C-188.9,141-184.9,140-180.7,140L-180.7,140z"/>
	</g>
	<g>
		<path class="st2" d="M-231.8,439.1h101.4V272.9h-89.4c-20.7,0-37.5,16.8-37.5,37.5V360h25.5c5.8,0,10.5,4.7,10.5,10.5
			c0,3.3-1.5,6.4-4.2,8.4c-0.4,0.3-0.6,0.8-0.6,1.3s0.2,1,0.6,1.3c2.7,2,4.2,5.1,4.2,8.4s-1.5,6.4-4.2,8.4c-0.4,0.3-0.6,0.8-0.6,1.3
			s0.2,1,0.6,1.3c2.7,2,4.2,5.1,4.2,8.4s-1.5,6.4-4.2,8.4c-0.4,0.3-0.6,0.8-0.6,1.3s0.2,1,0.6,1.3c2.7,2,4.2,5.1,4.2,8.4
			C-221.3,434.4-226.1,439.1-231.8,439.1L-231.8,439.1z"/>
		<path class="st2" d="M42.1,272.9h-89.4v166.2H71.3c4.6,0,8.3-3.7,8.3-8.3V310.4C79.6,289.7,62.8,272.9,42.1,272.9z"/>
	</g>
	<g>
		<path class="st3" d="M-257.3,332.6c0-2.2,1.8-4,4-4h21.8v-9.4c0-2.3,1.9-4.2,4.2-4.2h9.4v-0.3c0-6.6,2.7-12.5,7.1-16.7
			c5.1-14.6,19-25.2,35.4-25.2h-44.4c-20.7,0-37.5,16.8-37.5,37.5V332.6z"/>
		<path class="st3" d="M-305,25"/>
	</g>
	<g>
		<g>
			<path class="st3" d="M-162.4,315.8c1.9,0,3.4,1.5,3.4,3.4v9.9l0.3,0.3h23.5c1.8,0,3.2,1.5,3.2,3.2h1.6v-84.5
				c-4.1-1.8-7.9-4-11.5-6.5l-27.6,74.2H-162.4z"/>
		</g>
		<path class="st3" d="M-8.4,315.4l-27.4-73.9c-3.6,2.6-7.4,4.8-11.5,6.5v109.4l38-37.7C-8.2,318.6-7.8,316.9-8.4,315.4L-8.4,315.4z
			"/>
	</g>
	<g>
		<path class="st4" d="M-10.9,351.9l-36.4-18.2v103.8l0.8,1.6l37.4-81.9C-8.2,355.2-9,352.9-10.9,351.9L-10.9,351.9z"/>
	</g>
	<path class="st5" d="M-135.2,328.5H-159v7c0,1.9-1.5,3.4-3.4,3.4h-65c-1.9,0-3.4-1.5-3.4-3.4v-7h-22.6c-2.2,0-4,1.8-4,4v28.2h25.5
		c5.3,0,9.7,4.3,9.7,9.7c0,3.1-1.4,5.9-3.9,7.8c-0.6,0.5-1,1.2-1,1.9c0,0.8,0.4,1.5,1,1.9c2.5,1.9,3.9,4.7,3.9,7.8
		c0,3.1-1.4,5.9-3.9,7.8c-0.6,0.5-1,1.2-1,1.9c0,0.8,0.4,1.5,1,1.9c2.5,1.9,3.9,4.7,3.9,7.8c0,3.1-1.4,5.9-3.9,7.8
		c-0.6,0.5-1,1.2-1,1.9c0,0.8,0.4,1.5,1,1.9c2.5,1.9,3.9,4.7,3.9,7.8c0,5.3-4.3,9.7-9.7,9.7v0.8h100.6V332.6
		C-131.2,330.3-133,328.5-135.2,328.5L-135.2,328.5z"/>
	<path class="st6" d="M-231.5,335.5v-7h-21.8c-2.2,0-4,1.8-4,4V360h25.5c0.2,0,0.4,0,0.6,0v-23
		C-231.4,336.6-231.5,336.1-231.5,335.5z"/>
	<path class="st5" d="M-46.5,300.4l-5.1-5.8l-34-31.6c-0.9-0.8-2.1-1.3-3.3-1.3c-1.2,0-2.4,0.5-3.3,1.3l-34,31.6l-5.1,5.8v138.7
		h84.7V300.4H-46.5z"/>
	<path class="st5" d="M-131.2,300.4v138.7h17.4V284.2L-131.2,300.4z"/>
	<g>
		<path class="st7" d="M-87,307.8c-0.5,0.3-1.2,0.5-1.8,0.5c-0.6,0-1.3-0.2-1.8-0.5l-10.1-6.5l-10.8,137.8h45.4l-10.8-137.7
			L-87,307.8z"/>
	</g>
	<g>
		<path class="st8" d="M-91.1,308.5l-9.8-6.3l-10.7,136.9h14.1l10.2-130.3C-88.5,309.4-89.9,309.3-91.1,308.5z"/>
	</g>
	<g>
		<path class="st7" d="M-85.5,263c-0.9-0.8-2.1-1.3-3.3-1.3c-1.2,0-2.4,0.5-3.3,1.3l-20.5,19v10.4c0,1.4,0.7,2.7,1.9,3.5l19.6,12.6
			c1.4,0.9,3.1,0.9,4.5,0L-67,296c1.2-0.8,1.9-2.1,1.9-3.5V282L-85.5,263z"/>
	</g>
	<path class="st8" d="M-95.4,283.3v-16.1l-17.2,16v9.3c0,1.4,0.7,2.7,1.9,3.5l19.6,12.6c1.4,0.9,3.1,0.9,4.5,0l13.1-8.4L-93,287.7
		C-94.5,286.7-95.4,285-95.4,283.3L-95.4,283.3z"/>
	<path class="st9" d="M-71.3,253.1h-35c-8.8,0-17.2-1.9-24.8-5.3v52.7l39.6-36.8c1.6-1.4,4-1.4,5.5,0l39.6,36.8v-52.7
		C-54.1,251.1-62.5,253.1-71.3,253.1z"/>
	<path class="st10" d="M-113.8,252.6c-6.1-0.8-12-2.4-17.4-4.9v52.7l17.4-16.2C-113.8,284.2-113.8,252.6-113.8,252.6z"/>
	<g>
		<path class="st11" d="M3,140h-13.6v52.4c0,2.4-0.1,4.7-0.4,6.9H3c14.2,0,25.8-11.5,25.8-25.8v-7.8C28.8,151.5,17.3,140,3,140
			L3,140z"/>
		<path class="st11" d="M-167.1,192.3V140h-13.6c-14.2,0-25.8,11.5-25.8,25.8v7.8c0,14.2,11.5,25.8,25.8,25.8h14
			C-167,197-167.1,194.7-167.1,192.3L-167.1,192.3z"/>
	</g>
	<g>
		<path class="st12" d="M-71.3,253.9h-35c-34,0-61.5-27.6-61.5-61.5v-72.7c0-13.2,10.7-23.9,23.9-23.9h110.2
			c13.2,0,23.9,10.7,23.9,23.9v72.7C-9.8,226.3-37.3,253.9-71.3,253.9z"/>
	</g>
	<path class="st13" d="M-132.1,227.2v-1.6c-6.2-9.6-9.8-21-9.8-33.3v-72.7c0-13.2,10.7-23.9,23.9-23.9h-26
		c-13.2,0-23.9,10.7-23.9,23.9v72.7c0,29.1,20.2,53.5,47.4,59.9C-127.6,246.2-132.1,237.2-132.1,227.2L-132.1,227.2z"/>
	<g>
		<g>
			<path class="st11" d="M-126.3,174.3c-3.4,0-6.1-2.7-6.1-6.1v-17.9c0-3.4,2.7-6.1,6.1-6.1c3.4,0,6.1,2.7,6.1,6.1v17.9
				C-120.3,171.6-123,174.3-126.3,174.3z"/>
		</g>
		<g>
			<path class="st11" d="M-51.4,174.3c-3.4,0-6.1-2.7-6.1-6.1v-17.9c0-3.4,2.7-6.1,6.1-6.1c3.4,0,6.1,2.7,6.1,6.1v17.9
				C-45.3,171.6-48,174.3-51.4,174.3z"/>
		</g>
	</g>
	<g>
		<g>
			<path class="st11" d="M-88.8,233.9c-7.3,0-14.6-2.8-20.2-8.4c-2.4-2.4-2.4-6.2,0-8.6c2.4-2.4,6.2-2.4,8.6,0
				c6.4,6.4,16.8,6.4,23.2,0c2.4-2.4,6.2-2.4,8.6,0s2.4,6.2,0,8.6C-74.2,231.1-81.5,233.9-88.8,233.9z"/>
		</g>
		<g>
			<path class="st1" d="M-78.3,259.9h-21.2c-18,0-32.7-14.7-32.7-32.7v-18c0-7.7,6.2-13.9,13.9-13.9h17.6c3.4,0,6.1,2.7,6.1,6.1
				s-2.7,6.1-6.1,6.1h-17.6c-1,0-1.8,0.8-1.8,1.8v18c0,11.3,9.2,20.6,20.6,20.6h21.2c11.3,0,20.6-9.2,20.6-20.6v-18
				c0-1-0.8-1.8-1.8-1.8h-17.6c-3.4,0-6.1-2.7-6.1-6.1s2.7-6.1,6.1-6.1h17.6c7.7,0,13.9,6.2,13.9,13.9v18
				C-45.6,245.3-60.2,259.9-78.3,259.9L-78.3,259.9z"/>
		</g>
	</g>
	<g>
		<g>
			<path class="st7" d="M-171.8,315.8v-1.1c0-12.7-10.3-23.1-23.1-23.1c-12.7,0-23.1,10.3-23.1,23.1v1.1H-171.8z"/>
			<g>
				<path class="st8" d="M-200.8,315v-0.3c0-9.7,6-18,14.5-21.4c-2.7-1.1-5.6-1.7-8.6-1.7c-12.7,0-23.1,10.3-23.1,23.1v0.3H-200.8z"
					/>
			</g>
			<g>
				<path class="st7" d="M-162.4,339.7h-65c-2.3,0-4.2-1.9-4.2-4.2v-16.4c0-2.3,1.9-4.2,4.2-4.2h65c2.3,0,4.2,1.9,4.2,4.2v16.4
					C-158.2,337.8-160.1,339.7-162.4,339.7z"/>
			</g>
			<g>
				<path class="st8" d="M-205.4,335.5v-16.4c0-2.3,1.9-4.2,4.2-4.2h-26.1c-2.3,0-4.2,1.9-4.2,4.2v16.4c0,2.3,1.9,4.2,4.2,4.2h26.1
					C-203.6,339.7-205.4,337.8-205.4,335.5z"/>
			</g>
		</g>
	</g>
	<g>
		<path class="st12" d="M-257.5,360c-9.9,0-18,8.1-18,18v43.2c0,9.9,8.1,18,18,18h25.7c5.8,0,10.5-4.7,10.5-10.5
			c0-3.3-1.5-6.4-4.2-8.4c-0.4-0.3-0.6-0.8-0.6-1.3s0.2-1,0.6-1.3c2.7-2,4.2-5.1,4.2-8.4s-1.5-6.4-4.2-8.4c-0.4-0.3-0.6-0.8-0.6-1.3
			s0.2-1,0.6-1.3c2.7-2,4.2-5.1,4.2-8.4s-1.5-6.4-4.2-8.4c-0.4-0.3-0.6-0.8-0.6-1.3s0.2-1,0.6-1.3c2.7-2,4.2-5.1,4.2-8.4
			c0-5.8-4.7-10.5-10.5-10.5L-257.5,360z"/>
	</g>
	<g>
		<path class="st6" d="M-252.5,423.5v-47.8c0-6.4,3-12,7.6-15.7h-12.6c-9.9,0-18,8.1-18,18v43.2c0,9.9,8.1,18,18,18h12.6
			C-249.5,435.5-252.5,429.8-252.5,423.5L-252.5,423.5z"/>
	</g>
	<g>
		<path class="st3" d="M-6.6,439.1h61.7v-33.7c0-1.4-1.1-2.5-2.5-2.5H-4.1c-1.4,0-2.5,1.1-2.5,2.5V439.1L-6.6,439.1z"/>
	</g>
	<path class="st14" d="M12.8,402.9H-4.1c-1.4,0-2.5,1.1-2.5,2.5v33.7h16.9v-33.7C10.3,404,11.4,402.9,12.8,402.9z"/>
	<g>
		<path class="st1" d="M30.5,421.9H18c-2.3,0-4.2-1.9-4.2-4.2v-37.3c0-2.3,1.9-4.2,4.2-4.2h12.5c2.3,0,4.2,1.9,4.2,4.2v37.3
			C34.6,420,32.8,421.9,30.5,421.9z"/>
	</g>
	<path class="st0" d="M22,417.7v-37.3c0-2.3,1.9-4.2,4.2-4.2H18c-2.3,0-4.2,1.9-4.2,4.2v37.3c0,2.3,1.9,4.2,4.2,4.2h8.2
		C23.8,421.9,22,420,22,417.7z"/>
</g>
<circle id="XMLID_60_" class="st15" cx="-96.5" cy="486.1" r="31.4"/>
<g id="XMLID_1466_">
	<polygon id="XMLID_1467_" class="st16" points="-100.2,503.5 -114.1,491.1 -107.1,483.2 -101,488.6 -83.2,468.7 -75.3,475.8 	"/>
</g>
</svg>
