<?xml version="1.0" encoding="utf-8"?>
<!-- Generator: Adobe Illustrator 19.0.0, SVG Export Plug-In . SVG Version: 6.00 Build 0)  -->
<svg version="1.1" id="Capa_1" xmlns="http://www.w3.org/2000/svg" xmlns:xlink="http://www.w3.org/1999/xlink" x="0px" y="0px"
	 viewBox="-223 25 404.6 512" style="enable-background:new -223 25 404.6 512;" xml:space="preserve">
<style type="text/css">
	.st0{fill:#433F43;}
	.st1{fill:#554E56;}
	.st2{fill:#F3F0F3;}
	.st3{fill:#E2DEE2;}
	.st4{fill:#FFFFFF;}
	.st5{fill:#48BB78;}
	.st6{opacity:0.3;fill:#8F6756;}
	.st7{fill:#476CAB;}
	.st8{fill:#2F508A;}
	.st9{fill:#3D8A5D;}
	.st10{fill:#15753D;}
	.st11{fill:#8F6756;}
	.st12{fill:#C99077;}
	.st13{opacity:0.1;fill:#A44F3E;}
	.st14{fill:#CBC4CC;}
	.st15{fill:none;stroke:#2C8F55;stroke-width:6;stroke-miterlimit:10;}
</style>
<g>
	<g>
		<path class="st0" d="M31.7,73.2v23.4h16.6c12.7,0,23.1,10.3,23.1,23.1v21.2H85c4.2,0,8.2,1,11.6,2.9V88.3
			c0-29.9-24.2-54.1-54.1-54.1H11.2C23.6,42.7,31.7,57,31.7,73.2L31.7,73.2z"/>
		<path class="st1" d="M-98.7,140.8h13.6v-21.2c0-12.7,10.3-23.1,23.1-23.1h94.6V73.2C32.6,46.6,11,25-15.6,25h-82.3
			c-6.9,0-12.5,5.6-12.5,12.5v106.2C-106.9,141.8-102.9,140.8-98.7,140.8z"/>
		<path class="st0" d="M-98.7,140h12.8v-20.4c0-8.2,4.1-15.4,10.4-19.7V37.5c0-6.9,5.6-12.5,12.5-12.5h-34.8
			c-6.9,0-12.5,5.6-12.5,12.5v105.3C-106.9,141-102.9,140-98.7,140L-98.7,140z"/>
	</g>
	<g>
		<path class="st2" d="M-149.8,439.1h101.4V272.9h-89.4c-20.7,0-37.5,16.8-37.5,37.5V360l25.5,0c5.8,0,10.5,4.7,10.5,10.5
			c0,3.3-1.5,6.4-4.2,8.4c-0.4,0.3-0.6,0.8-0.6,1.3c0,0.5,0.2,1,0.6,1.3c2.7,2,4.2,5.1,4.2,8.4c0,3.3-1.5,6.4-4.2,8.4
			c-0.4,0.3-0.6,0.8-0.6,1.3c0,0.5,0.2,1,0.6,1.3c2.7,2,4.2,5.1,4.2,8.4c0,3.3-1.5,6.4-4.2,8.4c-0.4,0.3-0.6,0.8-0.6,1.3
			c0,0.5,0.2,1,0.6,1.3c2.7,2,4.2,5.1,4.2,8.4C-139.3,434.4-144.1,439.1-149.8,439.1L-149.8,439.1z"/>
		<path class="st2" d="M124.1,272.9H34.7v166.2h118.6c4.6,0,8.3-3.7,8.3-8.3V310.4C161.6,289.7,144.8,272.9,124.1,272.9z"/>
	</g>
	<g>
		<path class="st3" d="M-175.3,332.6c0-2.2,1.8-4,4-4h21.8v-9.4c0-2.3,1.9-4.2,4.2-4.2h9.4v-0.3c0-6.6,2.7-12.5,7.1-16.7
			c5.1-14.6,19-25.2,35.4-25.2h-44.4c-20.7,0-37.5,16.8-37.5,37.5L-175.3,332.6z"/>
		<path class="st3" d="M-223,25"/>
	</g>
	<g>
		<g>
			<path class="st3" d="M-80.4,315.8c1.9,0,3.4,1.5,3.4,3.4v9.9l0.3,0.3h23.5c1.8,0,3.2,1.5,3.2,3.2h1.6v-84.5
				c-4.1-1.8-7.9-4-11.5-6.5l-27.6,74.2H-80.4z"/>
		</g>
		<path class="st3" d="M73.6,315.4l-27.4-73.9c-3.6,2.6-7.4,4.8-11.5,6.5v109.4l38-37.7C73.8,318.6,74.2,316.9,73.6,315.4
			L73.6,315.4z"/>
	</g>
	<g>
		<path class="st4" d="M71.1,351.9l-36.4-18.2v103.8l0.8,1.6l37.4-81.9C73.8,355.2,73,352.9,71.1,351.9L71.1,351.9z"/>
	</g>
	<path class="st5" d="M-53.2,328.5H-77v7c0,1.9-1.5,3.4-3.4,3.4h-65c-1.9,0-3.4-1.5-3.4-3.4v-7h-22.6c-2.2,0-4,1.8-4,4v28.2l25.5,0
		c5.3,0,9.7,4.3,9.7,9.7c0,3.1-1.4,5.9-3.9,7.8c-0.6,0.5-1,1.2-1,1.9c0,0.8,0.4,1.5,1,1.9c2.5,1.9,3.9,4.7,3.9,7.8
		c0,3.1-1.4,5.9-3.9,7.8c-0.6,0.5-1,1.2-1,1.9c0,0.8,0.4,1.5,1,1.9c2.5,1.9,3.9,4.7,3.9,7.8c0,3.1-1.4,5.9-3.9,7.8
		c-0.6,0.5-1,1.2-1,1.9c0,0.8,0.4,1.5,1,1.9c2.5,1.9,3.9,4.7,3.9,7.8c0,5.3-4.3,9.7-9.7,9.7v0.8h100.6V332.6
		C-49.2,330.3-51,328.5-53.2,328.5L-53.2,328.5z"/>
	<path class="st6" d="M-149.5,335.5v-7h-21.8c-2.2,0-4,1.8-4,4V360l25.5,0c0.2,0,0.4,0,0.6,0v-23
		C-149.4,336.6-149.5,336.1-149.5,335.5z"/>
	<path class="st5" d="M35.5,300.4l-5.1-5.8l-34-31.6c-0.9-0.8-2.1-1.3-3.3-1.3c-1.2,0-2.4,0.5-3.3,1.3l-34,31.6l-5.1,5.8v138.7h84.7
		V300.4z"/>
	<path class="st5" d="M-49.2,300.4v138.7h17.4V284.2L-49.2,300.4z"/>
	<g>
		<path class="st7" d="M-5,307.8c-0.5,0.3-1.2,0.5-1.8,0.5c-0.6,0-1.3-0.2-1.8-0.5l-10.1-6.5l-10.8,137.8h45.4L5.1,301.4L-5,307.8z"
			/>
	</g>
	<g>
		<path class="st8" d="M-9.1,308.5l-9.8-6.3l-10.7,136.9h14.1l10.2-130.3C-6.5,309.4-7.9,309.3-9.1,308.5z"/>
	</g>
	<g>
		<path class="st7" d="M-3.5,263c-0.9-0.8-2.1-1.3-3.3-1.3c-1.2,0-2.4,0.5-3.3,1.3l-20.5,19v10.4c0,1.4,0.7,2.7,1.9,3.5l19.6,12.6
			c1.4,0.9,3.1,0.9,4.5,0L15,296c1.2-0.8,1.9-2.1,1.9-3.5V282L-3.5,263z"/>
	</g>
	<path class="st8" d="M-13.4,283.3v-16.1l-17.2,16v9.3c0,1.4,0.7,2.7,1.9,3.5l19.6,12.6c1.4,0.9,3.1,0.9,4.5,0l13.1-8.4l-19.5-12.5
		C-12.5,286.7-13.4,285-13.4,283.3L-13.4,283.3z"/>
	<path class="st9" d="M10.7,253.1h-35c-8.8,0-17.2-1.9-24.8-5.3v52.7l39.6-36.8c1.6-1.4,4-1.4,5.5,0l39.6,36.8v-52.7
		C27.9,251.1,19.5,253.1,10.7,253.1z"/>
	<path class="st10" d="M-31.8,252.6c-6.1-0.8-12-2.4-17.4-4.9v52.7l17.4-16.2V252.6z"/>
	<g>
		<path class="st11" d="M85,140H71.4v52.4c0,2.4-0.1,4.7-0.4,6.9h14c14.2,0,25.8-11.5,25.8-25.8v-7.8C110.8,151.5,99.3,140,85,140
			L85,140z"/>
		<path class="st11" d="M-85.1,192.3V140h-13.6c-14.2,0-25.8,11.5-25.8,25.8v7.8c0,14.2,11.5,25.8,25.8,25.8h14
			C-85,197-85.1,194.7-85.1,192.3L-85.1,192.3z"/>
	</g>
	<g>
		<path class="st12" d="M10.7,253.9h-35c-34,0-61.5-27.6-61.5-61.5v-72.7c0-13.2,10.7-23.9,23.9-23.9H48.3
			c13.2,0,23.9,10.7,23.9,23.9v72.7C72.2,226.3,44.7,253.9,10.7,253.9z"/>
	</g>
	<path class="st13" d="M-50.1,227.2v-1.6c-6.2-9.6-9.8-21-9.8-33.3v-72.7c0-13.2,10.7-23.9,23.9-23.9h-26
		c-13.2,0-23.9,10.7-23.9,23.9v72.7c0,29.1,20.2,53.5,47.4,59.9C-45.6,246.2-50.1,237.2-50.1,227.2L-50.1,227.2z"/>
	<g>
		<g>
			<path class="st11" d="M-44.3,174.3c-3.4,0-6.1-2.7-6.1-6.1v-17.9c0-3.4,2.7-6.1,6.1-6.1c3.4,0,6.1,2.7,6.1,6.1v17.9
				C-38.3,171.6-41,174.3-44.3,174.3z"/>
		</g>
		<g>
			<path class="st11" d="M30.6,174.3c-3.4,0-6.1-2.7-6.1-6.1v-17.9c0-3.4,2.7-6.1,6.1-6.1s6.1,2.7,6.1,6.1v17.9
				C36.7,171.6,34,174.3,30.6,174.3z"/>
		</g>
	</g>
	<g>
		<g>
			<path class="st11" d="M-6.8,233.9c-7.3,0-14.6-2.8-20.2-8.4c-2.4-2.4-2.4-6.2,0-8.6c2.4-2.4,6.2-2.4,8.6,0
				c6.4,6.4,16.8,6.4,23.2,0c2.4-2.4,6.2-2.4,8.6,0c2.4,2.4,2.4,6.2,0,8.6C7.8,231.1,0.5,233.9-6.8,233.9z"/>
		</g>
		<g>
			<path class="st1" d="M3.7,259.9h-21.2c-18,0-32.7-14.7-32.7-32.7v-18c0-7.7,6.2-13.9,13.9-13.9h17.6c3.4,0,6.1,2.7,6.1,6.1
				s-2.7,6.1-6.1,6.1h-17.6c-1,0-1.8,0.8-1.8,1.8v18c0,11.3,9.2,20.6,20.6,20.6H3.7c11.3,0,20.6-9.2,20.6-20.6v-18
				c0-1-0.8-1.8-1.8-1.8H4.9c-3.4,0-6.1-2.7-6.1-6.1s2.7-6.1,6.1-6.1h17.6c7.7,0,13.9,6.2,13.9,13.9v18
				C36.4,245.3,21.8,259.9,3.7,259.9L3.7,259.9z"/>
		</g>
	</g>
	<g>
		<g>
			<path class="st7" d="M-89.8,315.8v-1.1c0-12.7-10.3-23.1-23.1-23.1c-12.7,0-23.1,10.3-23.1,23.1v1.1H-89.8z"/>
			<g>
				<path class="st8" d="M-118.8,315v-0.3c0-9.7,6-18,14.5-21.4c-2.7-1.1-5.6-1.7-8.6-1.7c-12.7,0-23.1,10.3-23.1,23.1v0.3H-118.8z"
					/>
			</g>
			<g>
				<path class="st7" d="M-80.4,339.7h-65c-2.3,0-4.2-1.9-4.2-4.2v-16.4c0-2.3,1.9-4.2,4.2-4.2h65c2.3,0,4.2,1.9,4.2,4.2v16.4
					C-76.2,337.8-78.1,339.7-80.4,339.7z"/>
			</g>
			<g>
				<path class="st8" d="M-123.4,335.5v-16.4c0-2.3,1.9-4.2,4.2-4.2h-26.1c-2.3,0-4.2,1.9-4.2,4.2v16.4c0,2.3,1.9,4.2,4.2,4.2h26.1
					C-121.6,339.7-123.4,337.8-123.4,335.5z"/>
			</g>
		</g>
	</g>
	<g>
		<path class="st12" d="M-175.5,360c-9.9,0-18,8.1-18,18v43.2c0,9.9,8.1,18,18,18h25.7c5.8,0,10.5-4.7,10.5-10.5
			c0-3.3-1.5-6.4-4.2-8.4c-0.4-0.3-0.6-0.8-0.6-1.3c0-0.5,0.2-1,0.6-1.3c2.7-2,4.2-5.1,4.2-8.4c0-3.3-1.5-6.4-4.2-8.4
			c-0.4-0.3-0.6-0.8-0.6-1.3c0-0.5,0.2-1,0.6-1.3c2.7-2,4.2-5.1,4.2-8.4c0-3.3-1.5-6.4-4.2-8.4c-0.4-0.3-0.6-0.8-0.6-1.3
			c0-0.5,0.2-1,0.6-1.3c2.7-2,4.2-5.1,4.2-8.4c0-5.8-4.7-10.5-10.5-10.5L-175.5,360z"/>
	</g>
	<g>
		<path class="st6" d="M-170.5,423.5v-47.8c0-6.4,3-12,7.6-15.7l-12.6,0c-9.9,0-18,8.1-18,18v43.2c0,9.9,8.1,18,18,18h12.6
			C-167.5,435.5-170.5,429.8-170.5,423.5L-170.5,423.5z"/>
	</g>
	<g>
		<path class="st3" d="M75.4,439.1h61.7v-33.7c0-1.4-1.1-2.5-2.5-2.5H77.9c-1.4,0-2.5,1.1-2.5,2.5L75.4,439.1L75.4,439.1z"/>
	</g>
	<path class="st14" d="M94.8,402.9H77.9c-1.4,0-2.5,1.1-2.5,2.5v33.7h16.9v-33.7C92.3,404,93.4,402.9,94.8,402.9z"/>
	<g>
		<path class="st1" d="M112.5,421.9H100c-2.3,0-4.2-1.9-4.2-4.2v-37.3c0-2.3,1.9-4.2,4.2-4.2h12.5c2.3,0,4.2,1.9,4.2,4.2v37.3
			C116.6,420,114.8,421.9,112.5,421.9z"/>
	</g>
	<path class="st0" d="M104,417.7v-37.3c0-2.3,1.9-4.2,4.2-4.2H100c-2.3,0-4.2,1.9-4.2,4.2v37.3c0,2.3,1.9,4.2,4.2,4.2h8.2
		C105.8,421.9,104,420,104,417.7z"/>
</g>
<circle id="XMLID_60_" class="st15" cx="-5.3" cy="491.1" r="26.2"/>
<g id="XMLID_1466_">
	<polygon id="XMLID_1467_" class="st8" points="-10.8,508.5 -24.7,496.1 -17.7,488.2 -11.6,493.6 6.2,473.7 14.1,480.8 	"/>
</g>
</svg>
