<?xml version="1.0" encoding="utf-8"?>
<!-- Generator: Adobe Illustrator 19.0.0, SVG Export Plug-In . SVG Version: 6.00 Build 0)  -->
<svg version="1.1" id="Capa_1" xmlns="http://www.w3.org/2000/svg" xmlns:xlink="http://www.w3.org/1999/xlink" x="0px" y="0px"
	 viewBox="-223 25 512 512" style="enable-background:new -223 25 512 512;" xml:space="preserve">
<style type="text/css">
	.st0{fill:#2B4D66;}
	.st1{fill:#365E7D;}
	.st2{fill:#48BB78;}
	.st3{fill:#3D8A5D;}
	.st4{fill:#EAAC9D;}
	.st5{fill:#FFCBBE;}
	.st6{fill:#DA4A54;}
</style>
<g>
	<g>
		<path class="st0" d="M-62.7,101.1c-3.2,0-6.1-2-7.2-5.1l-21-60.9c-1.4-4,0.7-8.3,4.7-9.7c4-1.4,8.3,0.7,9.7,4.7l12.2,35.3
			l7.6-34.5c0.9-4.1,5-6.7,9.1-5.8c4.1,0.9,6.7,5,5.8,9.1l-13.4,60.9c-0.7,3.3-3.6,5.8-7,6C-62.4,101.1-62.6,101.1-62.7,101.1z"/>
	</g>
	<path class="st1" d="M121,308.6h-285.6c-11,0-20-9-20-20V174.9c0-67.4,54.6-122,122-122H19c67.4,0,122,54.6,122,122v113.8
		C141,299.7,132,308.6,121,308.6L121,308.6z"/>
	<path class="st0" d="M19,52.9h-35.2c67.4,0,122,54.6,122,122v113.8c0,11-9,20-20,20H121c11,0,20-9,20-20V174.9
		C141,107.5,86.4,52.9,19,52.9L19,52.9z"/>
	<path class="st2" d="M24.6,395.5H5.5h-54.7h-19.1c-38,0-68.7,30.8-68.7,68.7v64c0,4.8,3.9,8.8,8.8,8.8H84.6c4.8,0,8.8-3.9,8.8-8.8
		v-64C93.4,426.2,62.6,395.5,24.6,395.5z"/>
	<path class="st3" d="M24.6,395.5H-8.9c38,0,68.7,30.8,68.7,68.7v64c0,4.8-3.9,8.8-8.8,8.8h33.5c4.8,0,8.8-3.9,8.8-8.8v-64
		C93.4,426.2,62.6,395.5,24.6,395.5L24.6,395.5z"/>
	<path class="st4" d="M-2.7,344.8l-36.8-2.2c-9.4,0-9.8,44-9.8,44v26.9c0,15.1,12.3,27.4,27.4,27.4c15.1,0,27.4-12.3,27.4-27.4
		v-26.9C5.5,386.6,6.7,344.8-2.7,344.8L-2.7,344.8z"/>
	<path class="st5" d="M-21.8,395.5c-72.9,0-132.1-59.1-132.1-132.1v-69.7c0-1.9,1.6-3.5,3.5-3.5c61.1-0.1,115.2-8.9,163.3-40
		c1.4-0.9,3.4-0.6,4.4,0.7c21.8,28.9,51.4,36.9,89.5,39.1c1.9,0.1,3.5,1.7,3.5,3.6v69.7C110.2,336.3,51.1,395.5-21.8,395.5
		L-21.8,395.5z"/>
	<path class="st4" d="M106.8,190c-11.2-0.6-21.7-1.8-31.4-3.8v77.2c0,67-49.9,122.4-114.6,130.9c5.7,0.8,11.5,1.1,17.4,1.1
		c72.9,0,132.1-59.1,132.1-132.1v-69.7C110.2,191.7,108.7,190.1,106.8,190z"/>
	<path class="st3" d="M156.8,165.3H145c-45.3,0-82-36.7-82-82v-8.7c0-1.7,1.4-3.1,3.1-3.1h8.7c45.3,0,82,36.7,82,82L156.8,165.3z"/>
	<path class="st3" d="M156.8,165.3v-11.8c0-45.3,36.7-82,82-82h8.7c1.7,0,3.1,1.4,3.1,3.1v8.7c0,45.3-36.7,82-82,82H156.8z"/>
	<path class="st2" d="M156.8,165.3l-8.4-8.4c-32-32-32-84,0-116l6.2-6.2c1.2-1.2,3.2-1.2,4.4,0l6.2,6.2c32,32,32,84,0,116
		L156.8,165.3z"/>
	<g>
		<g>
			<path class="st1" d="M28.7,261.8c-13.8,0-25-11.2-25-25c0-4.2,3.4-7.6,7.6-7.6c4.2,0,7.6,3.4,7.6,7.6c0,5.4,4.4,9.8,9.8,9.8
				c5.4,0,9.8-4.4,9.8-9.8c0-4.2,3.4-7.6,7.6-7.6s7.6,3.4,7.6,7.6C53.7,250.5,42.5,261.8,28.7,261.8z"/>
		</g>
		<g>
			<path class="st1" d="M-72.3,261.8c-13.8,0-25-11.2-25-25c0-4.2,3.4-7.6,7.6-7.6s7.6,3.4,7.6,7.6c0,5.4,4.4,9.8,9.8,9.8
				s9.8-4.4,9.8-9.8c0-4.2,3.4-7.6,7.6-7.6c4.2,0,7.6,3.4,7.6,7.6C-47.3,250.5-58.5,261.8-72.3,261.8L-72.3,261.8z"/>
		</g>
	</g>
	<g>
		<path class="st6" d="M-21.8,354.4c-23.4,0-44.4-13.9-53.6-35.5c-1.6-3.9,0.2-8.3,4-10c3.9-1.6,8.3,0.2,10,4
			c6.8,15.9,22.3,26.2,39.6,26.2S11,328.9,17.7,313c1.6-3.9,6.1-5.7,10-4c3.9,1.6,5.7,6.1,4,10C22.6,340.5,1.6,354.4-21.8,354.4z"/>
	</g>
</g>
</svg>
